<?xml version="1.0" encoding="UTF-8"?>
<svg width="32px" height="32px" viewBox="0 0 32 32" version="1.1" xmlns="http://www.w3.org/2000/svg" xmlns:xlink="http://www.w3.org/1999/xlink">
    <!-- Generator: Sketch 48.1 (47250) - http://www.bohemiancoding.com/sketch -->
    <title>ic_2</title>
    <desc>Created with Sketch.</desc>
    <defs></defs>
    <g id="Page-1" stroke="none" stroke-width="1" fill="none" fill-rule="evenodd" opacity="0.800000012">
        <g id="Stacked-Group" transform="translate(-38.000000, 0.000000)" fill="#333333" fill-rule="nonzero">
            <g id="ic_2" transform="translate(38.000000, 0.000000)">
                <path d="M16,31.372549 C24.4900244,31.372549 31.372549,24.4900244 31.372549,16 C31.372549,7.50997561 24.4900244,0.62745098 16,0.62745098 C7.50997561,0.62745098 0.62745098,7.50997561 0.62745098,16 C0.62745098,24.4900244 7.50997561,31.372549 16,31.372549 Z M16,32 C7.163444,32 0,24.836556 0,16 C0,7.163444 7.163444,0 16,0 C24.836556,0 32,7.163444 32,16 C32,24.836556 24.836556,32 16,32 Z" id="Oval-2"></path>
                <path d="M16,5.4379085 L7.32026144,9.31668398 L7.32026144,15.1348699 C7.32026144,20.5215556 11.0187794,25.5445591 16,26.7712418 C20.9812206,25.5445591 24.6797386,20.5215556 24.6797386,15.1348699 L24.6797386,9.31668398 L16,5.4379085 Z M16,25 L16,16.1045979 L9,16.1045979 L9,10 L16,7 L16,16.0948706 L23,16.1045979 C22.4888448,20.0997825 19.5924172,23.889681 16,25 Z" id="Shape"></path>
            </g>
        </g>
    </g>
</svg>