<?xml version="1.0" encoding="UTF-8"?>
<svg width="32px" height="32px" viewBox="0 0 32 32" version="1.1" xmlns="http://www.w3.org/2000/svg" xmlns:xlink="http://www.w3.org/1999/xlink">
    <!-- Generator: Sketch 48.1 (47250) - http://www.bohemiancoding.com/sketch -->
    <title>ic_1</title>
    <desc>Created with Sketch.</desc>
    <defs></defs>
    <g id="Page-1" stroke="none" stroke-width="1" fill="none" fill-rule="evenodd" opacity="0.800000012">
        <g id="Stacked-Group">
            <g id="ic_1">
                <path d="M16,31.372549 C24.4900244,31.372549 31.372549,24.4900244 31.372549,16 C31.372549,7.50997561 24.4900244,0.62745098 16,0.62745098 C7.50997561,0.62745098 0.62745098,7.50997561 0.62745098,16 C0.62745098,24.4900244 7.50997561,31.372549 16,31.372549 Z M16,32 C7.163444,32 0,24.836556 0,16 C0,7.163444 7.163444,0 16,0 C24.836556,0 32,7.163444 32,16 C32,24.836556 24.836556,32 16,32 Z" id="Oval-2" fill="#333333" fill-rule="nonzero"></path>
                <path d="M29.081057,13.6471584 C29.0241143,13.6329388 28.9676409,13.617263 28.9101702,13.6085828 C28.089855,13.4831764 27.268513,13.3607111 26.4397782,13.3048036 C25.777911,13.2600034 25.1151637,13.2315642 24.4518296,13.2025826 C23.1752101,13.1469321 21.9011722,13.1741434 20.6315055,13.3303874 C19.8557822,13.4258699 19.0879212,13.5625262 18.3418868,13.7970921 C17.9649091,13.9157027 17.5944148,14.0540723 17.2169091,14.1707413 C16.6278851,14.352255 16.0234007,14.4340033 15.4121101,14.3224168 C15.0445788,14.2551736 14.6819468,14.1528955 14.3255342,14.0405951 C13.6805943,13.8376093 13.0360945,13.6375073 12.3670691,13.517726 C11.0662174,13.2839311 9.7554792,13.176599 8.53339675,13.1893909 C7.53720755,13.1908186 6.64231826,13.2238834 5.75138944,13.3279889 C5.02072747,13.4133064 4.29106295,13.5082748 3.5613691,13.6046995 C3.40632419,13.6254578 3.25474103,13.6698012 3.10292316,13.7088336 C3.02168961,13.7295634 2.96794462,13.782073 2.96521629,13.8700745 C2.9511053,14.2895233 2.93623155,14.7087722 2.9253476,15.128735 C2.92388076,15.1918951 2.93972263,15.255512 2.94963846,15.318672 C2.95779409,15.371924 2.98777628,15.4088149 3.04028913,15.4312293 C3.09599968,15.4548715 3.15323575,15.4787136 3.20278558,15.5119782 C3.44232043,15.6744468 3.55773134,15.9203769 3.64961415,16.1756439 C3.71500584,16.358157 3.75736816,16.5480939 3.81158254,16.7342047 C3.84526117,16.8501885 3.88985308,16.9634596 3.91684293,17.0806141 C4.04340182,17.6282675 4.16107166,18.1783194 4.29059357,18.7250876 C4.41418944,19.2467861 4.57518972,19.7569204 4.83153454,20.2342469 C5.11786156,20.7674808 5.52605359,21.1758795 6.10536708,21.4106452 C6.45608835,21.5528695 6.82092061,21.6435264 7.19493528,21.7014041 C7.86516347,21.8045674 8.53938146,21.8171308 9.21553568,21.7693896 C9.90013889,21.7211915 10.5760584,21.6203982 11.2346692,21.426578 C11.7235961,21.2824121 12.1857971,21.0818533 12.578118,20.7568875 C13.1770284,20.2598021 13.6592665,19.6696613 14.0295554,18.9927468 C14.3996096,18.3167746 14.6591521,17.5980009 14.8919982,16.8692907 C14.9591208,16.6600517 15.0222535,16.4495849 15.1000547,16.244172 C15.2149669,15.9416206 15.4376624,15.7545961 15.7692854,15.7049133 C15.8748098,15.6889805 15.9842361,15.6846689 16.091286,15.6906937 C16.3400619,15.7049133 16.5793327,15.7560238 16.7452616,15.9582672 C16.8176061,16.0462687 16.8844646,16.1436642 16.9310221,16.246599 C17.0217021,16.4469579 17.1078936,16.6504292 17.1752508,16.8587259 C17.4675332,17.7594702 17.8554242,18.6176985 18.3457886,19.432954 C18.7524551,20.1104109 19.2889369,20.657636 20.0002952,21.0351114 C20.5030984,21.3021996 21.0410763,21.4724061 21.6013209,21.5784819 C22.4439614,21.7375812 23.2949629,21.7765851 24.1505115,21.7399797 C24.6676897,21.7182505 25.1789125,21.6541197 25.676259,21.5095255 C26.1865431,21.3605341 26.6352785,21.1185158 26.9706567,20.7038639 C27.1876315,20.4362904 27.3486318,20.1378222 27.4809407,19.8239636 C27.7598455,19.162468 27.9391226,18.4725332 28.1011497,17.7772589 C28.1804177,17.4372455 28.2621499,17.0975748 28.3473733,16.7586178 C28.3919946,16.5814157 28.4479691,16.4073544 28.4984284,16.231894 C28.5454846,16.0674838 28.5856467,15.9006465 28.6926086,15.7584223 C28.8000986,15.6154556 28.9100822,15.4754014 29.0893886,15.4134406 C29.1676591,15.3862007 29.2073225,15.3331771 29.2241618,15.2608514 C29.2370113,15.2049154 29.2508876,15.1480371 29.2508876,15.0918441 C29.2513863,14.8408886 29.2513863,14.5899332 29.2439641,14.3394346 C29.2381261,14.1591772 29.2188225,13.9798336 29.2074105,13.7997761 C29.2019538,13.7185132 29.1618211,13.6674027 29.081057,13.6471584 Z M3.52185245,14.4735782 C3.52185245,14.4065064 3.7477457,14.3525691 4.02662117,14.3525691 C4.30502726,14.3525691 4.53068581,14.4065635 4.53068581,14.4735782 C4.53068581,14.540079 4.30502726,14.594102 4.02662117,14.594102 C3.7477457,14.594102 3.52185245,14.5401076 3.52185245,14.4735782 Z M12.4925467,18.8561496 C12.2992899,19.1776119 12.0800331,19.4785084 11.8018838,19.7365641 C11.4347437,20.0777115 10.9927972,20.2788876 10.5077124,20.4026963 C9.52562076,20.6528262 8.53232542,20.7153781 7.52756028,20.5688797 C7.33073744,20.5400256 7.13660243,20.4896991 6.94291981,20.4420665 C6.5441114,20.3423461 6.24147899,20.1162527 6.01139107,19.7829794 C5.75684667,19.4138326 5.60066046,19.0084498 5.49596859,18.5802219 C5.35936886,18.0212697 5.28251321,17.4531225 5.22455214,16.8820484 C5.19062175,16.5507435 5.19714171,16.2207856 5.23916216,15.8912161 C5.26026553,15.725499 5.27399735,15.557114 5.31263807,15.3948158 C5.4492378,14.8174995 5.81592545,14.4496737 6.40546254,14.2992124 C6.94425042,14.1618832 7.49315088,14.0809672 8.04721408,14.0372456 C8.45815759,14.0044286 8.87021882,13.9878258 9.13623302,13.9727252 C10.0819194,13.9843291 10.8759436,14.042918 11.6571674,14.2182964 C11.9762194,14.2893699 12.2993165,14.3534499 12.5911976,14.5047918 C12.7347697,14.5791289 12.8740839,14.6674785 12.9994533,14.7680796 C13.2063621,14.9340558 13.3119854,15.1603822 13.3562413,15.4162362 C13.4481594,15.9441068 13.3957602,16.4643624 13.2715085,16.980655 C13.1111176,17.6451036 12.8466469,18.2679028 12.4925467,18.8561496 Z M26.1360132,19.3014862 C26.018662,19.6104559 25.8589991,19.895907 25.6189256,20.1277064 C25.3513112,20.3865417 25.018294,20.5235057 24.6643974,20.6192335 C24.2197689,20.7393461 23.7650035,20.7681931 23.3070259,20.7721566 C22.6156888,20.7783512 21.9345675,20.6923878 21.2592652,20.5492029 C20.5901766,20.4074354 20.0566066,20.058122 19.6320413,19.5293484 C19.0878604,18.8512216 18.7393351,18.0818029 18.5441535,17.2395712 C18.4538692,16.8504128 18.3778819,16.4588395 18.3876502,16.0570555 C18.3920999,15.88421 18.4098987,15.7095795 18.441468,15.5391488 C18.5192457,15.1145551 18.780699,14.8372934 19.1745902,14.6777821 C19.5702719,14.5182182 19.9842001,14.4207317 20.4016564,14.3382593 C20.8662691,14.246285 21.3348312,14.177593 21.8074744,14.1472499 C22.1765369,14.1233113 22.5463892,14.113337 22.7966787,14.1024701 C23.7867781,14.1507934 24.6523648,14.2234489 25.4940178,14.4628078 C25.648757,14.5066689 25.7967822,14.5769358 25.9430697,14.6454178 C26.0818005,14.7101463 26.1884618,14.8160585 26.2573928,14.9532588 C26.3334591,15.1050794 26.4116318,15.2568475 26.471716,15.414889 C26.5419635,15.6001763 26.5575243,15.798719 26.5650809,15.9952669 C26.5770345,16.3072026 26.5925953,16.6196895 26.5846175,16.9312578 C26.5641857,17.7444587 26.4267713,18.5383147 26.1360132,19.3014862 Z M27.6306756,14.4735782 C27.6306756,14.4065064 27.8565689,14.3525691 28.1349456,14.3525691 C28.4132931,14.3525691 28.6391863,14.4065635 28.6391863,14.4735782 C28.6392156,14.540079 28.4133224,14.594102 28.1349456,14.594102 C27.8565689,14.594102 27.6306756,14.5401076 27.6306756,14.4735782 Z" id="Shape" fill="#333333" fill-rule="nonzero"></path>
                <polygon id="Star" fill="#1B6CCA" transform="translate(25.797639, 12.692263) rotate(9.000000) translate(-25.797639, -12.692263) " points="25.7976389 14.9493731 22.4360557 18.8970178 24.5273648 13.842379 20.358483 11.2275187 25.0125663 12.0512248 25.7976389 6.48750756 26.5827115 12.0512248 31.2367948 11.2275187 27.0679131 13.842379 29.1592221 18.8970178"></polygon>
            </g>
        </g>
    </g>
</svg>