<?xml version="1.0" encoding="UTF-8"?>
<svg width="29px" height="29px" viewBox="0 0 29 29" version="1.1" xmlns="http://www.w3.org/2000/svg" xmlns:xlink="http://www.w3.org/1999/xlink">
    <!-- Generator: Sketch 47.1 (45422) - http://www.bohemiancoding.com/sketch -->
    <title>+</title>
    <desc>Created with Sketch.</desc>
    <defs></defs>
    <g id="Page-1" stroke="none" stroke-width="1" fill="none" fill-rule="evenodd">
        <g id="Popup_Home_Page_var.2-Womens" transform="translate(-764.000000, -489.000000)" fill-rule="nonzero" fill="#BF3602">
            <g id="Popup" transform="translate(426.000000, 267.000000)">
                <g id="Group" transform="translate(299.000000, 204.000000)">
                    <g id="Group-3" transform="translate(22.000000, 2.000000)">
                        <path d="M32.0109896,40.2980768 L32.0109896,41.3293171 L31.9995818,41.4400074 C31.5838966,43.4352962 30.5709843,44.5237991 29.0006576,44.5237991 C27.7048085,44.5237991 27.1688859,43.1763366 27.1688859,40.7400369 C27.1688859,38.6532472 27.6221976,35.5734265 28.5269259,31.4860898 C28.4212436,31.5038441 28.3076531,31.524835 28.1863438,31.5490968 C27.6937584,31.6476139 27.1582826,31.7522471 26.5798729,31.8630064 C26.0184717,31.9705088 25.3224595,32.1072622 24.4919812,32.2732417 C22.5888203,33.1448548 21.1055155,33.5852866 20.0141356,33.5852866 C18.7354903,33.5852866 17.9613838,32.9999866 17.9613838,31.9008349 C17.9613838,31.4593349 18.0602033,31.0994003 18.2883196,30.8372763 C18.6464478,30.2479266 19.1129042,29.7672643 19.6838248,29.4002439 C20.2791989,29.0175034 20.7771341,28.8168429 21.2111108,28.8168429 C21.4544751,28.8168429 21.662956,28.8411143 21.8391855,28.9015494 C24.113889,27.8866359 26.5420326,27.3061607 29.1479776,27.1594925 L29.2606438,27.1594925 C29.3418661,26.6121041 29.4600426,26.0383972 29.6134191,25.4446708 L30.1269281,23.2076367 C30.2161083,22.7840303 30.2626066,22.1679283 30.2626066,21.3674525 L30.2626066,19.7101021 C30.2626066,18.2278444 30.8441423,17.0938498 31.9774807,16.38579 C32.3638629,16.1282018 32.8125693,16 33.3097686,16 C34.5785408,16 35.2520303,16.8773087 35.2520303,18.3658068 C35.2520303,19.6048603 35.1954301,20.6236635 35.0808406,21.4257899 C34.968286,22.2136727 34.8305612,22.9648987 34.6675779,23.6795177 C34.5066333,24.3851981 34.3394343,25.0663791 34.1659622,25.7230947 C34.0531418,26.1502005 33.9511197,26.5800033 33.8598932,27.0125174 C35.0197727,27.01988 36.3442898,27.1451343 37.834888,27.387508 C39.3186107,27.6287637 40.4646965,27.7487727 41.2650504,27.7487727 C42.0786396,27.7487727 42.8922716,27.700912 43.7060787,27.60517 L43.9138163,27.6209946 C44.8490485,27.8789897 45.3802826,28.4926567 45.3802826,29.3779793 C45.3802826,30.2370396 44.7615296,30.9991621 43.6009925,31.7066861 C43.2671992,31.9013988 42.9415769,32.0429737 42.6232401,32.1297928 L42.4360383,32.1470968 L33.0556029,31.3770611 C32.3587234,35.2370374 32.0109896,38.2137287 32.0109896,40.2980768 Z" id="+" transform="translate(31.670833, 30.261900) scale(-1, -1) translate(-31.670833, -30.261900) "></path>
                    </g>
                </g>
            </g>
        </g>
    </g>
</svg>