<?xml version="1.0" encoding="UTF-8"?>
<svg width="32px" height="32px" viewBox="0 0 32 32" version="1.1" xmlns="http://www.w3.org/2000/svg" xmlns:xlink="http://www.w3.org/1999/xlink">
    <!-- Generator: Sketch 48.1 (47250) - http://www.bohemiancoding.com/sketch -->
    <title>ic_4</title>
    <desc>Created with Sketch.</desc>
    <defs></defs>
    <g id="Page-1" stroke="none" stroke-width="1" fill="none" fill-rule="evenodd" opacity="0.800000012">
        <g id="Stacked-Group" transform="translate(-112.000000, 0.000000)">
            <g id="ic_4" transform="translate(112.000000, 0.000000)">
                <path d="M16,31.372549 C24.4900244,31.372549 31.372549,24.4900244 31.372549,16 C31.372549,7.50997561 24.4900244,0.62745098 16,0.62745098 C7.50997561,0.62745098 0.62745098,7.50997561 0.62745098,16 C0.62745098,24.4900244 7.50997561,31.372549 16,31.372549 Z M16,32 C7.163444,32 0,24.836556 0,16 C0,7.163444 7.163444,0 16,0 C24.836556,0 32,7.163444 32,16 C32,24.836556 24.836556,32 16,32 Z" id="Oval-2" fill="#333333" fill-rule="nonzero"></path>
                <path d="M23.7575758,22 L26.4242424,22 L26.4242424,23.4545455 L23.7575758,23.4545455 L23.7575758,26.1212121 L22.3030303,26.1212121 L22.3030303,23.4545455 L19.6363636,23.4545455 L19.6363636,22 L22.3030303,22 L22.3030303,19.3333333 L23.7575758,19.3333333 L23.7575758,22 Z" id="Combined-Shape" fill="#558CCD"></path>
                <g id="light-bulb" transform="translate(7.000000, 6.000000)" fill="#333333" fill-rule="nonzero">
                    <path d="M8.2551382,17.7023864 L8.2551382,17.9815978 C8.2551382,18.0085406 8.28460912,18.0410374 8.34471122,18.0500041 L8.88319014,18.1303404 L9.02781017,18.6552199 L9.131793,19.0326797 L10.3429451,19.0326797 L10.6002524,18.1254982 L11.1391899,18.0491225 C11.1891669,18.04204 11.2185211,18.0095537 11.2185211,17.9855972 L11.2185211,17.7023864 L8.2551382,17.7023864 Z M12.0551225,17.4176925 L12.0551225,17.9855972 C12.0551225,18.4375213 11.7081102,18.8134582 11.2565762,18.8774475 L11.1102457,19.3933609 C11.0308091,19.6733139 10.7674143,19.869281 10.4622107,19.869281 L9.01144861,19.869281 C8.70624505,19.869281 8.4428502,19.6733139 8.36341366,19.3933609 L8.22126406,18.8774475 C7.76554916,18.8094589 7.41853689,18.4375213 7.41853689,17.9815978 L7.41853689,17.4136931 C7.41853689,17.1097441 7.67357,16.8657851 7.99131617,16.8657851 L11.4823432,16.8657851 C11.8000893,16.8697844 12.0551225,17.1137435 12.0551225,17.4176925 Z" id="Path"></path>
                    <path d="M11.0829463,14.8628971 C11.2483119,13.8451404 11.72918,12.8994468 12.4624083,12.15807 C13.1634285,11.4522076 13.5604467,10.5153508 13.5604467,9.51653218 C13.5604467,7.40190401 11.7862939,5.68356243 9.59522273,5.69961037 C7.39595493,5.71569415 5.65872871,7.43750214 5.68161746,9.55889606 C5.69113407,10.5384652 6.08563996,11.4596128 6.77123887,12.1536695 C7.49951123,12.8855476 7.98526463,13.837637 8.15830426,14.8628971 L11.0829463,14.8628971 Z M14.6052445,9.47612105 C14.6052445,10.7862592 14.0722655,11.9747127 13.2061745,12.846786 C12.5482785,13.5119955 12.1235609,14.3597319 11.9819883,15.2642545 C11.9195298,15.6536454 11.5739262,15.9416325 11.1658642,15.9416325 L8.07208742,15.9416325 C7.66818925,15.9416325 7.31842175,15.6577016 7.26012717,15.2683107 C7.11439072,14.3637881 6.68550915,13.5038832 6.02761315,12.8427299 C5.17817781,11.982825 4.64936268,10.8146523 4.63687098,9.52885107 C4.60772369,6.8274517 6.81459001,4.64118404 9.58774655,4.62090326 C12.3567392,4.60062248 14.6052445,6.78283399 14.6052445,9.47612105 Z" id="XMLID_49_-path"></path>
                    <path d="M9.62091503,3.03107576 C9.92620994,3.03107576 10.1778719,2.78630517 10.1778719,2.48034194 L10.1778719,0.550733818 C10.1778719,0.248850096 9.93033554,0 9.62091503,0 C9.31149452,0 9.06395812,0.244770586 9.06395812,0.550733818 L9.06395812,2.48034194 C9.06395812,2.78630517 9.31562013,3.03107576 9.62091503,3.03107576 Z M3.06532584,9.51341678 C3.06532584,9.21153305 2.81778944,8.96268296 2.50836893,8.96268296 L0.556956917,8.96268296 C0.251662014,8.96268296 0,9.20745354 0,9.51341678 C0,9.8153005 0.247536407,10.0641506 0.556956917,10.0641506 L2.50836893,10.0641506 C2.81778944,10.0641506 3.06532584,9.81938001 3.06532584,9.51341678 Z M18.6848731,8.96268296 L16.7334611,8.96268296 C16.4281662,8.96268296 16.1765042,9.20745354 16.1765042,9.51341678 C16.1765042,9.8153005 16.4240406,10.0641506 16.7334611,10.0641506 L18.6848731,10.0641506 C18.9901681,10.0641506 19.2418301,9.81938001 19.2418301,9.51341678 C19.2418301,9.21153305 18.9942937,8.96268296 18.6848731,8.96268296 Z M3.23017074,13.1290888 L1.84809247,14.4957246 C1.62943531,14.7119386 1.62943531,15.0586969 1.84809247,15.2749109 C1.95535824,15.3809782 2.09975448,15.4340118 2.24002511,15.4340118 C2.38029574,15.4340118 2.52469198,15.3809782 2.63195776,15.2749109 L4.01403603,13.9082751 C4.23269319,13.6920611 4.23269319,13.3453028 4.01403603,13.1290888 C3.79950448,12.9128748 3.44470229,12.9128748 3.23017074,13.1290888 Z M14.6500297,5.09122819 C14.7903003,5.09122819 14.9346966,5.03819456 15.0419624,4.93212731 L16.4240406,3.56549154 C16.6426978,3.34927752 16.6426978,3.00251919 16.4240406,2.78630517 C16.2053835,2.57009115 15.8547069,2.57009115 15.6360497,2.78630517 L14.2539715,4.15294094 C14.0353143,4.36915496 14.0353143,4.71591329 14.2539715,4.93212731 C14.3653628,5.03819456 14.5056335,5.09122819 14.6500297,5.09122819 Z M4.19986771,4.9280478 C4.30713349,5.03411505 4.45152973,5.08714868 4.59180036,5.08714868 C4.73207099,5.08714868 4.87646722,5.03411505 4.983733,4.9280478 C5.20239016,4.71183378 5.20239016,4.36507545 4.983733,4.14886143 L3.60165473,2.78222566 C3.38299757,2.56601164 3.03232099,2.56601164 2.81366383,2.78222566 C2.59500667,2.99843968 2.59500667,3.34519801 2.81366383,3.56141203 L4.19986771,4.9280478 Z" id="XMLID_49_"></path>
                </g>
            </g>
        </g>
    </g>
</svg>