<?xml version="1.0" encoding="UTF-8"?>
<svg width="15px" height="21px" viewBox="0 0 15 21" version="1.1" xmlns="http://www.w3.org/2000/svg" xmlns:xlink="http://www.w3.org/1999/xlink">
    <!-- Generator: Sketch 47.1 (45422) - http://www.bohemiancoding.com/sketch -->
    <title>scissors</title>
    <desc>Created with Sketch.</desc>
    <defs></defs>
    <g id="Page-1" stroke="none" stroke-width="1" fill="none" fill-rule="evenodd">
        <g id="Popup_Home_Page_var.2-For-sunglasses" transform="translate(-974.000000, -494.000000)" fill-rule="nonzero" fill="#333333">
            <g id="Popup" transform="translate(426.000000, 267.000000)">
                <g id="Coupon" transform="translate(297.000000, 146.000000)">
                    <path d="M259.575646,95.1605078 L268.549561,97.9180164 C268.671194,97.955414 268.804255,97.9250414 268.895676,97.8391576 C268.987097,97.753205 269.02188,97.6256535 268.98624,97.5074687 C268.562703,96.1041958 267.44258,94.9963851 265.998483,94.552641 L258.626152,92.2872248 L257.990561,90.3639662 C258.049984,90.3506739 258.108837,90.3353154 258.167118,90.3174086 C259.627642,89.8685679 260.3208,88.1524771 259.745204,86.4105592 C259.187892,84.7240147 257.590307,83.6505024 256.113927,84.1043707 C254.711969,84.535098 253.946603,86.2281854 254.535769,88.0113578 C254.536983,88.0149392 254.538269,88.0183828 254.539483,88.0218953 L255.646465,91.3716367 L252.176532,90.3054248 C252.171604,90.3039096 252.166747,90.3021189 252.161819,90.3006037 C250.403676,89.7603695 248.581681,90.395372 248.110076,91.8224747 C247.644685,93.230844 248.695243,94.7688999 250.501668,95.3240106 C252.260811,95.8645203 254.081806,95.2286913 254.553268,93.8022774 C254.571981,93.7457333 254.587337,93.6889136 254.601193,93.6320251 L256.595959,94.2449196 L258.167332,99 L260.844472,99 L259.575646,95.1605078 Z M252.75002,93.233697 C252.613344,93.6255951 251.861851,93.8424094 251.06632,93.6107781 C250.235939,93.3690758 249.801898,92.7857144 249.931794,92.4133794 C250.068279,92.0219444 250.819138,91.8044934 251.61562,92.0362405 C252.446001,92.2779428 252.879915,92.8613042 252.75002,93.233697 Z M256.146527,85.7932136 C256.558195,85.6291825 257.183928,86.1832655 257.441432,87.1911081 C257.702816,88.2141748 257.436299,89.1055326 257.033644,89.265582 C256.62085,89.4300034 255.995555,88.8733439 255.73874,87.8678436 C255.489749,86.8934163 255.721652,85.9620851 256.146527,85.7932136 Z M258.220336,94.3298371 C257.847639,94.674368 257.243199,94.674368 256.870503,94.3298371 C256.497711,93.9852188 256.497711,93.4265459 256.870503,93.0819276 C257.243199,92.7373967 257.847639,92.7373967 258.220336,93.0819276 C258.593221,93.4265459 258.593221,93.9851315 258.220336,94.3298371 Z" id="scissors" transform="translate(258.500000, 91.500000) scale(-1, -1) rotate(90.000000) translate(-258.500000, -91.500000) "></path>
                </g>
            </g>
        </g>
    </g>
</svg>