<?xml version="1.0" encoding="UTF-8"?>
<svg width="232px" height="80px" viewBox="0 0 232 80" version="1.1" xmlns="http://www.w3.org/2000/svg" xmlns:xlink="http://www.w3.org/1999/xlink">
    <!-- Generator: Sketch 47.1 (45422) - http://www.bohemiancoding.com/sketch -->
    <title>Path 6</title>
    <desc>Created with Sketch.</desc>
    <defs></defs>
    <g id="Page-1" stroke="none" stroke-width="1" fill="none" fill-rule="evenodd">
        <g id="Popup_Home_Page_var.2-Womens" transform="translate(-740.000000, -369.000000)" fill="#BF3602">
            <g id="Popup" transform="translate(426.000000, 267.000000)">
                <g id="Right-content" transform="translate(260.000000, 0.000000)">
                    <g id="Smear" transform="translate(49.000000, 80.000000)">
                        <g id="Group-2">
                            <path d="M16.2647764,47.3976533 C8.85380784,48.3044457 5.13011167,52.8859667 5.09368786,61.1422163 C5.09368786,66.7374641 7.4621825,72.3327119 7.4621825,74.570811 C7.4621825,76.8089101 6.87468749,79.8594671 7.4621825,85.7613065 C7.85384584,89.6958661 11.7910171,93.2410982 19.2736962,96.3970028 C23.3037752,98.9499425 25.6224406,100.518066 26.2296924,101.101373 C27.1405701,101.976334 26.7380864,104.561641 32.4313943,108.205593 C38.1247023,111.849546 57.9090845,109.691143 62.8613707,108.479663 C67.8136568,107.268182 164.079527,99.9636411 183.837994,90.4439128 C203.596461,80.9241845 188.150339,86.5734263 189.448313,84.4887921 C190.746287,82.4041578 214.496126,71.9892185 220.761977,68.9755632 C227.027828,65.9619079 231.856627,62.5895949 233.058885,61.909577 C234.261144,61.2295592 238.661054,57.0653557 236.714414,56.5767918 C234.767774,56.0882278 233.507556,54.8212993 233.058885,51.8631927 C232.610215,48.9050861 236.339521,47.3271581 235.136856,46.1758753 C233.934191,45.0245925 230.917988,47.7191091 226.320438,45.1488954 C221.722888,42.5786818 222.665852,43.0217928 221.873669,38.7612253 C221.081486,34.5006577 226.091499,31.8200598 226.320438,30.8957599 C226.549377,29.9714601 218.666668,30.4171251 210.794423,30.8957599 C205.546259,31.2148498 201.35143,28.2597866 198.209936,22.0305704 C196.236733,13.1580108 189.677262,11.5387062 178.531525,17.1726566 C167.441523,22.7784344 114.05577,32.7576928 18.3742676,47.1104318 C17.6724184,47.2157134 16.9691908,47.3114624 16.2647764,47.3976533 Z" id="Path-6" transform="translate(121.149100, 62.058668) rotate(7.000000) translate(-121.149100, -62.058668) "></path>
                        </g>
                    </g>
                </g>
            </g>
        </g>
    </g>
</svg>