<?xml version="1.0" encoding="UTF-8"?>
<svg width="209px" height="87px" viewBox="0 0 209 87" version="1.1" xmlns="http://www.w3.org/2000/svg" xmlns:xlink="http://www.w3.org/1999/xlink">
    <!-- Generator: Sketch 46.2 (44496) - http://www.bohemiancoding.com/sketch -->
    <title>Path 6</title>
    <desc>Created with Sketch.</desc>
    <defs></defs>
    <g id="Page-1" stroke="none" stroke-width="1" fill="none" fill-rule="evenodd">
        <g id="Popup_Home_Page_var.2" transform="translate(-737.000000, -341.000000)" fill="#BF3602">
            <g id="Popup" transform="translate(426.000000, 267.000000)">
                <g id="Group" transform="translate(240.000000, 0.000000)">
                    <g id="Smear" transform="translate(70.000000, 74.000000)">
                        <path d="M11.0362635,30.0095248 C4.3698783,30.8198486 1.02030355,34.9139667 0.987539252,42.2918791 C0.987539252,47.2918791 3.11807018,52.2918791 3.11807018,54.2918791 C3.11807018,56.2918791 2.58960106,59.0179041 3.11807018,64.2918791 C3.47038293,67.8078625 7.01198481,70.9759367 13.7428758,73.7961019 C17.368051,76.0774484 19.453759,77.4787477 20,78 C20.8193614,78.7818784 20.4573154,81.0921487 25.5786142,84.3484412 C30.6999129,87.6047337 48.4965495,85.6759517 52.9512772,84.5933538 C57.4060049,83.5107559 144,76.9833051 161.773325,68.4763286 C179.54665,59.9693521 165.652407,65.0176019 166.819973,63.1547405 C167.987539,61.2918791 189.351221,51.9849281 194.987539,49.2918791 C200.623858,46.5988301 204.967505,43.585279 206.048972,42.9776045 C207.130439,42.36993 211.088288,38.6487333 209.337228,38.2121451 C207.586168,37.7755568 206.452564,36.6434098 206.048972,34 C205.645379,31.3565902 209,29.9465293 207.918167,28.9177251 C206.836335,27.888921 204.123171,30.2967827 199.987539,28 C195.851907,25.7032173 196.700131,26.0991882 195.987539,22.2918791 C195.274947,18.48457 199.781602,16.0891462 199.987539,15.2631775 C200.193476,14.4372089 193.102747,14.8354621 186.02143,15.2631775 C181.300551,15.5483212 177.527178,12.907631 174.701312,7.34110695 C172.926357,-0.587549661 167.02592,-2.03458531 157,3 C147.024215,8.00940984 99.0021527,16.9270296 12.9338132,29.7528593 C12.3024792,29.8469405 11.6699051,29.9325034 11.0362635,30.0095248 Z" id="Path-6"></path>
                    </g>
                </g>
            </g>
        </g>
    </g>
</svg>