<?xml version="1.0" encoding="UTF-8"?>
<svg width="32px" height="32px" viewBox="0 0 32 32" version="1.1" xmlns="http://www.w3.org/2000/svg" xmlns:xlink="http://www.w3.org/1999/xlink">
    <!-- Generator: Sketch 48.1 (47250) - http://www.bohemiancoding.com/sketch -->
    <title>ic_3</title>
    <desc>Created with Sketch.</desc>
    <defs></defs>
    <g id="Page-1" stroke="none" stroke-width="1" fill="none" fill-rule="evenodd" opacity="0.800000012">
        <g id="Stacked-Group" transform="translate(-75.000000, 0.000000)" fill="#333333">
            <g id="ic_3" transform="translate(75.000000, 0.000000)">
                <path d="M16,31.372549 C24.4900244,31.372549 31.372549,24.4900244 31.372549,16 C31.372549,7.50997561 24.4900244,0.62745098 16,0.62745098 C7.50997561,0.62745098 0.62745098,7.50997561 0.62745098,16 C0.62745098,24.4900244 7.50997561,31.372549 16,31.372549 Z M16,32 C7.163444,32 0,24.836556 0,16 C0,7.163444 7.163444,0 16,0 C24.836556,0 32,7.163444 32,16 C32,24.836556 24.836556,32 16,32 Z" id="Oval-2" fill-rule="nonzero"></path>
                <path d="M16,5.4379085 L7.32026144,9.31668398 L7.32026144,15.1348699 C7.32026144,20.5215556 11.0187794,24.9551355 16,26.1818182 C20.9812206,24.9551355 24.6797386,20.5215556 24.6797386,15.1348699 L24.6797386,9.31668398 L16,5.4379085 Z M16,25.2121212 C13.4378135,23.8997396 11.6600357,22.6068103 10.6666667,21.3333333 C9.67329761,20.0598564 8.95107538,18.3169446 8.5,16.1045979 L8.59997559,9.69995117 L16,6.78787879 L23.5,9.69995117 L23.5,16.1045979 C22.9888448,20.0997825 19.5924172,24.1018022 16,25.2121212 Z" id="Shape" fill-rule="nonzero"></path>
                <path d="M14.3905117,12.1532249 L15.6609337,12.1532249 L15.6609337,16.639007 C15.6609337,17.0889107 15.6022994,17.4759544 15.4850291,17.8001497 C15.3677588,18.124345 15.2048858,18.3922983 14.9964053,18.6040177 C14.7879247,18.8157371 14.5338428,18.9712162 14.234152,19.0704596 C13.9344613,19.1697031 13.6054578,19.2193241 13.2471319,19.2193241 C11.5141373,19.2193241 10.647653,18.4154641 10.647653,16.80772 L10.647653,12.1532249 L11.9864823,12.1532249 L11.9864823,16.539764 C11.9864823,16.8110295 12.0109133,17.0409401 12.0597759,17.2295026 C12.1086386,17.4180652 12.1851889,17.5702362 12.2894291,17.6860203 C12.3936694,17.8018043 12.5239678,17.884506 12.6803282,17.9341277 C12.8366886,17.9837494 13.0191064,18.0085599 13.2275869,18.0085599 C13.638033,18.0085599 13.9344618,17.8927776 14.1168823,17.6612095 C14.2993028,17.4296415 14.3905117,17.05583 14.3905117,16.539764 L14.3905117,12.1532249 Z M19.0519832,16.2321108 L19.2278878,17.4131021 L19.2767502,17.4131021 L19.4721997,16.2221865 L20.7817116,12.1532249 L22.1889483,12.1532249 L19.6481043,19.149854 L18.6904015,19.149854 L16.1300126,12.1532249 L17.6838364,12.1532249 L19.0519832,16.2321108 Z" id="UV"></path>
            </g>
        </g>
    </g>
</svg>