<?xml version="1.0" encoding="UTF-8"?>
<svg width="15px" height="15px" viewBox="0 0 15 15" version="1.1" xmlns="http://www.w3.org/2000/svg" xmlns:xlink="http://www.w3.org/1999/xlink">
    <!-- Generator: Sketch 43.2 (39069) - http://www.bohemiancoding.com/sketch -->
    <title>info_icon_outline_gold</title>
    <desc>Created with Sketch.</desc>
    <defs></defs>
    <g id="Page-1" stroke="none" stroke-width="1" fill="none" fill-rule="evenodd" opacity="0.784193841">
        <g id="OG_info_icon" transform="translate(-277.000000, -43.000000)" fill="#92844D">
            <g id="Group-2" transform="translate(-5.000000, -1.000000)">
                <g id="info_icon_outline_gold" transform="translate(282.000000, 44.000000)">
                    <path d="M6.99198818,3.946029 L7.99043767,4.07145666 L7.99043767,2.99882134 L6.99198818,2.99882134 L6.99198818,3.946029 Z M6.0169021,10.9973779 L8.99828059,10.9973779 L8.99828059,9.99661728 L7.99043767,9.99661728 L7.99043767,5.00850139 L6.0169021,5.00850139 L6.0169021,6.0144514 L6.99198818,6.0144514 L6.99198818,9.99661728 L6.0169021,9.99661728 L6.0169021,10.9973779 Z" id="i-copy-2"></path>
                    <path d="M7.5,14.0225661 C11.004884,14.0225661 13.9932077,11.004884 13.9932077,7.5 C13.9932077,3.99511601 11.004884,1.00997336 7.5,1.00997336 C3.99511601,1.00997336 0.990396625,3.99511601 0.990396625,7.5 C0.990396625,11.004884 3.99511601,14.0225661 7.5,14.0225661 Z M7.5,15 C3.35786438,15 0,11.6421356 0,7.5 C0,3.35786438 3.35786438,0 7.5,0 C11.6421356,0 15,3.35786438 15,7.5 C15,11.6421356 11.6421356,15 7.5,15 Z" id="Oval-Copy" fill-rule="nonzero"></path>
                </g>
            </g>
        </g>
    </g>
</svg>