<?xml version="1.0" encoding="UTF-8"?>
<svg width="32px" height="16px" viewBox="0 0 32 16" version="1.1" xmlns="http://www.w3.org/2000/svg" xmlns:xlink="http://www.w3.org/1999/xlink">
    <!-- Generator: Sketch 48.1 (47250) - http://www.bohemiancoding.com/sketch -->
    <title>Group 10</title>
    <desc>Created with Sketch.</desc>
    <defs></defs>
    <g id="ONG_RX_Var.4" stroke="none" stroke-width="1" fill="none" fill-rule="evenodd" transform="translate(-644.000000, -361.000000)">
        <g id="Group-3-Copy-6" transform="translate(644.000000, 361.000000)">
            <g id="Group-10">
                <path d="M25.8320893,7.49183268 C25.7758514,7.47698626 25.720077,7.46061942 25.6633175,7.45155655 C24.8531549,7.32062184 24.0419782,7.19275778 23.2235001,7.1343857 C22.5698245,7.08761053 21.9152796,7.05791769 21.2601553,7.02765842 C19.9993357,6.96955465 18.7410658,6.99796557 17.487113,7.16109734 C16.7209904,7.26078897 15.9626328,7.40346964 15.2258316,7.64837598 C14.8535195,7.7722154 14.4876107,7.9166848 14.1147771,8.03849701 C13.5330431,8.22801247 12.93604,8.31336449 12.332315,8.19685884 C11.9693325,8.12665136 11.6111886,8.01986445 11.2591871,7.90261349 C10.6222292,7.69067933 9.98570601,7.4817562 9.32496077,7.35669447 C8.04020893,7.11259307 6.74569296,7.00052941 5.53873551,7.01388523 C4.55487555,7.01537584 3.67106178,7.04989824 2.79115947,7.15859312 C2.06954048,7.24767165 1.34890659,7.34682667 0.628243734,7.4475021 C0.475117726,7.46917549 0.325410614,7.51547367 0.175471713,7.5562268 C0.0952435354,7.57787038 0.0421637157,7.63269482 0.0394691615,7.72457568 C0.0255328115,8.16251531 0.0108431452,8.60024625 9.39022488e-05,9.03872249 C-0.00135478279,9.10466684 0.0142910156,9.17108818 0.0240841264,9.23703252 C0.0321388152,9.29263207 0.0617499374,9.3311493 0.113612862,9.35455179 C0.168633919,9.3792362 0.225161609,9.4041293 0.27409819,9.43886038 C0.510668456,9.60849118 0.624650995,9.86526273 0.715396626,10.1317828 C0.779979004,10.3223417 0.821817028,10.5206517 0.875360427,10.714967 C0.908622236,10.8360637 0.952662261,10.9543282 0.979318065,11.0766473 C1.10431061,11.6484432 1.22052412,12.2227433 1.34844301,12.793615 C1.47050921,13.3383118 1.62951688,13.8709346 1.88268908,14.3693033 C2.1654724,14.9260441 2.56861247,15.3524465 3.14075614,15.5975615 C3.48713673,15.7460555 3.84745367,15.8407089 4.21683938,15.901138 C4.87877255,16.0088491 5.54464614,16.0219664 6.21243199,15.9721206 C6.88856227,15.9217978 7.55611634,15.8165611 8.20657592,15.6141967 C8.68945162,15.4636754 9.14593227,15.2542753 9.53339757,14.9149839 C10.1248957,14.3959852 10.6011654,13.7798288 10.9668714,13.0730736 C11.3323457,12.3673021 11.588676,11.6168424 11.8186403,10.856008 C11.8849321,10.637545 11.9472835,10.4178 12.0241218,10.2033318 C12.1376117,9.88744292 12.3575511,9.69217372 12.6850698,9.64030068 C12.7892882,9.62366554 12.8973601,9.61916391 13.0030852,9.62545426 C13.2487821,9.64030068 13.4850916,9.69366433 13.6489669,9.90482337 C13.720416,9.99670424 13.7864471,10.0983933 13.8324284,10.2058659 C13.9219861,10.4150573 14.0071108,10.6274983 14.0736344,10.8449775 C14.3622994,11.7854297 14.7453897,12.6814918 15.2296851,13.5326866 C15.6313185,14.2400083 16.1611606,14.811357 16.8637149,15.2054729 C17.3602951,15.4843352 17.8916149,15.6620451 18.4449256,15.772797 C19.2771372,15.93891 20.1176063,15.9796333 20.9625664,15.9414142 C21.4733437,15.9187272 21.9782394,15.8517692 22.4694306,15.7008008 C22.9733991,15.5452413 23.4165809,15.292554 23.7478082,14.8596228 C23.9620977,14.5802537 24.1211054,14.2686279 24.2517768,13.9409334 C24.5272297,13.2502767 24.704288,12.5299271 24.8643098,11.8040027 C24.9425967,11.4490003 25.0233174,11.0943556 25.107486,10.7404563 C25.151555,10.5554425 25.2068369,10.3737079 25.2566716,10.1905126 C25.3031454,10.0188546 25.3428104,9.84466257 25.4484486,9.69616854 C25.5546082,9.5468994 25.6632306,9.40067109 25.8403179,9.33597885 C25.9176197,9.30753812 25.9567921,9.25217706 25.973423,9.17666304 C25.9861135,9.11826115 25.9998181,9.05887546 25.9998181,9.00020527 C26.0003106,8.73818679 26.0003106,8.47616832 25.9929803,8.21462684 C25.9872145,8.02642311 25.9681498,7.83917336 25.9568791,7.65117831 C25.95149,7.5663331 25.9118539,7.51296946 25.8320893,7.49183268 Z M0.589216159,8.35468405 C0.589216159,8.28465545 0.812313654,8.2283404 1.08773765,8.2283404 C1.36269807,8.2283404 1.58556378,8.28471507 1.58556378,8.35468405 C1.58556378,8.42411641 1.36269807,8.48052089 1.08773765,8.48052089 C0.812313654,8.48052089 0.589216159,8.42414622 0.589216159,8.35468405 Z M9.44888538,12.9304546 C9.25802039,13.2660881 9.04147719,13.5802493 8.76677038,13.849681 C8.4041742,14.2058673 7.96769734,14.415912 7.48861623,14.5451787 C6.51867934,14.8063351 5.53767743,14.8716445 4.54534768,14.718688 C4.35096081,14.6885619 4.15922848,14.6360169 3.96794297,14.5862844 C3.57407037,14.482168 3.27518347,14.2461076 3.04794322,13.8981424 C2.79654916,13.5127224 2.64229597,13.0894688 2.53889982,12.6423631 C2.4039907,12.0587703 2.32808625,11.4655771 2.27084252,10.8693281 C2.23733208,10.5234181 2.24377134,10.1789145 2.28527173,9.83481646 C2.30611391,9.66179389 2.31967579,9.48598588 2.35783827,9.31653302 C2.49274739,8.71376653 2.85489676,8.32972567 3.43713749,8.17263156 C3.9692571,8.02924837 4.51136414,7.94476533 5.05857003,7.89911637 C5.46442754,7.8648526 5.87138892,7.84751789 6.13411082,7.83175169 C7.06809297,7.84386705 7.85228999,7.90503883 8.62384504,8.08814852 C8.93894837,8.16235514 9.25804667,8.22926008 9.54631536,8.38727365 C9.68811055,8.46488772 9.8257005,8.55713216 9.94951832,8.66216806 C10.1538663,8.83546105 10.2581824,9.07176477 10.3018905,9.33889777 C10.392671,9.89003873 10.3409203,10.433229 10.2182064,10.9722816 C10.0598005,11.6660215 9.79860303,12.3162759 9.44888538,12.9304546 Z M22.9234946,13.3954233 C22.8075959,13.7180135 22.649909,14.0160483 22.4128067,14.2580662 C22.1485044,14.5283118 21.8196088,14.6713137 21.4700922,14.7712616 C21.0309666,14.8966691 20.5818296,14.9267878 20.1295201,14.930926 C19.4467392,14.9373937 18.7740478,14.8476407 18.1071033,14.6981437 C17.4462956,14.5501266 16.9193293,14.1854142 16.5000186,13.6333305 C15.9625728,12.9253094 15.6183609,12.121972 15.425595,11.2426118 C15.3364281,10.8362978 15.2613812,10.4274626 15.2710286,10.0079666 C15.2754233,9.82750144 15.2930018,9.64517265 15.3241803,9.46722875 C15.4009954,9.0239174 15.6592128,8.73443312 16.0482292,8.5678899 C16.4390137,8.40129187 16.8478189,8.29950785 17.2601086,8.21339977 C17.7189711,8.11737091 18.1817341,8.04565072 18.6485277,8.01396996 C19.0130224,7.98897614 19.3782973,7.97856205 19.6254891,7.96721618 C20.6033347,8.0176697 21.4582085,8.09352812 22.2894448,8.34343887 C22.442269,8.38923345 22.5884621,8.46259797 22.7329391,8.53409892 C22.8699529,8.60168088 22.9752941,8.71226207 23.043372,8.85551061 C23.1184969,9.01402402 23.1957021,9.17248261 23.2550427,9.33749112 C23.3244207,9.53094653 23.3397889,9.73824173 23.347252,9.9434541 C23.3590577,10.2691411 23.3744259,10.5954035 23.3665468,10.9207068 C23.3463679,11.7697565 23.2106542,12.5986084 22.9234946,13.3954233 Z M24.3996585,8.35468405 C24.3996585,8.28465545 24.622756,8.2283404 24.8976875,8.2283404 C25.17259,8.2283404 25.3956874,8.28471507 25.3956874,8.35468405 C25.3957164,8.42411641 25.1726189,8.48052089 24.8976875,8.48052089 C24.622756,8.48052089 24.3996585,8.42414622 24.3996585,8.35468405 Z" id="Shape" fill="#333333" fill-rule="nonzero"></path>
                <polygon id="Star" fill="#988555" transform="translate(25.449110, 7.280364) rotate(9.000000) translate(-25.449110, -7.280364) " points="25.4491099 10.1062035 22.049923 13.7803638 23.8115473 8.62776487 19.9491099 5.74592192 24.4370405 6.23560096 25.4491099 0.780363772 26.4611792 6.23560096 30.9491099 5.74592192 27.0866725 8.62776487 28.8482968 13.7803638"></polygon>
            </g>
        </g>
    </g>
</svg>