<?xml version="1.0" encoding="UTF-8"?>
<svg width="14px" height="14px" viewBox="0 0 14 14" version="1.1" xmlns="http://www.w3.org/2000/svg" xmlns:xlink="http://www.w3.org/1999/xlink">
    <!-- Generator: Sketch 46.2 (44496) - http://www.bohemiancoding.com/sketch -->
    <title>ic</title>
    <desc>Created with Sketch.</desc>
    <defs>
        <path d="M17.8709677,6.15725806 C18.6048387,6.89112903 19,7.90725806 19,9.09274194 L19,14.9072581 C19,16.1209677 18.6048387,17.1653226 17.8427419,17.8991935 C17.108871,18.6048387 16.0927419,19 14.8790323,19 L9.12096774,19 C7.96370968,19 6.94758065,18.6330645 6.18548387,17.8991935 C5.39516129,17.1370968 5,16.0927419 5,14.8790323 L5,9.09274194 C5,6.63709677 6.63709677,5 9.09274194,5 L14.9072581,5 C16.0927419,5 17.1370968,5.39516129 17.8709677,6.15725806 Z M12,8.35887097 C10.0241935,8.35887097 8.38709677,9.96774194 8.38709677,11.9717742 C8.38709677,13.9758065 9.99596774,15.5846774 12,15.5846774 C14.0040323,15.5846774 15.6129032,13.9475806 15.6129032,11.9717742 C15.6129032,9.99596774 13.9758065,8.35887097 12,8.35887097 Z M12,14.2862903 C10.7298387,14.2862903 9.68548387,13.2419355 9.68548387,11.9717742 C9.68548387,10.7016129 10.7298387,9.65725806 12,9.65725806 C13.2701613,9.65725806 14.3145161,10.7016129 14.3145161,11.9717742 C14.3145161,13.2419355 13.2701613,14.2862903 12,14.2862903 Z M15.7540323,9.09274194 C16.206104,9.09274194 16.5725806,8.72626534 16.5725806,8.27419355 C16.5725806,7.82212176 16.206104,7.45564516 15.7540323,7.45564516 C15.3019605,7.45564516 14.9354839,7.82212176 14.9354839,8.27419355 C14.9354839,8.72626534 15.3019605,9.09274194 15.7540323,9.09274194 Z" id="path-1"></path>
    </defs>
    <g id="Page-1" stroke="none" stroke-width="1" fill="none" fill-rule="evenodd">
        <g id="ONG_email_template" transform="translate(-373.000000, -1098.000000)">
            <g id="Email" transform="translate(40.000000, 40.000000)">
                <g id="Content">
                    <g id="Socials" transform="translate(0.000000, 999.000000)">
                        <g id="ic" transform="translate(328.000000, 54.000000)">
                            <rect id="bounds" x="0" y="0" width="24" height="24"></rect>
                            <mask id="mask-2" fill="white">
                                <use xlink:href="#path-1"></use>
                            </mask>
                            <use id="instagram" fill="#000000" xlink:href="#path-1"></use>
                        </g>
                    </g>
                </g>
            </g>
        </g>
    </g>
</svg>