<?xml version="1.0" encoding="UTF-8"?>
<svg width="15px" height="12px" viewBox="0 0 15 12" version="1.1" xmlns="http://www.w3.org/2000/svg" xmlns:xlink="http://www.w3.org/1999/xlink">
    <!-- Generator: Sketch 46.2 (44496) - http://www.bohemiancoding.com/sketch -->
    <title>ic</title>
    <desc>Created with Sketch.</desc>
    <defs></defs>
    <g id="Page-1" stroke="none" stroke-width="1" fill="none" fill-rule="evenodd">
        <g id="ONG_email_template" transform="translate(-293.000000, -1099.000000)">
            <g id="Email" transform="translate(40.000000, 40.000000)">
                <g id="Content">
                    <g id="Socials" transform="translate(0.000000, 999.000000)">
                        <g id="ic" transform="translate(248.000000, 54.000000)">
                            <rect id="bounds" x="0" y="0" width="24" height="24"></rect>
                            <path d="M19.7663486,7.42049258 C19.22351,7.66178748 18.6393066,7.82454913 18.0263276,7.89738722 C18.6521956,7.5227057 19.1320877,6.92921017 19.3583954,6.22121197 C18.772993,6.56861668 18.1249438,6.8207024 17.4346306,6.95678673 C16.8822001,6.36808713 16.0947694,6 15.2234101,6 C13.550532,6 12.1941849,7.3563471 12.1941849,9.0295249 C12.1941849,9.26662337 12.2208623,9.49772693 12.2727182,9.71983814 C9.75485837,9.59334566 7.522356,8.38747065 6.02812609,6.55452865 C5.76734775,7.00174851 5.61807464,7.52210621 5.61807464,8.07783384 C5.61807464,9.12874057 6.1528201,10.0561523 6.96572913,10.5992906 C6.46935105,10.5834041 6.00204826,10.44702 5.59349553,10.2201129 C5.59319578,10.2327022 5.59319578,10.2455912 5.59319578,10.2584803 C5.59319578,11.7260329 6.63750812,12.9501923 8.02353,13.2289554 C7.76934606,13.2978968 7.50167358,13.3350652 7.22530849,13.3350652 C7.02987461,13.3350652 6.84013588,13.3161812 6.65519309,13.2805116 C7.04096518,14.4839886 8.15961433,15.3601439 9.48508768,15.3844232 C8.44826897,16.1970325 7.14227906,16.6814208 5.72268572,16.6814208 C5.47839337,16.6814208 5.23709847,16.667033 5,16.638857 C6.3410601,17.498826 7.93330669,18 9.64395264,18 C15.216516,18 18.2634261,13.3839237 18.2634261,9.38052655 C18.2634261,9.24923815 18.2607284,9.11824949 18.2550332,8.98816006 C18.8467303,8.56192237 19.3604936,8.02807614 19.7663486,7.42049258 Z" id="twitter" fill="#000000"></path>
                        </g>
                    </g>
                </g>
            </g>
        </g>
    </g>
</svg>