<?xml version="1.0" encoding="UTF-8"?>
<svg width="69px" height="45px" viewBox="0 0 69 45" version="1.1" xmlns="http://www.w3.org/2000/svg" xmlns:xlink="http://www.w3.org/1999/xlink">
    <!-- Generator: Sketch 45.2 (43514) - http://www.bohemiancoding.com/sketch -->
    <title>Stacked Group</title>
    <desc>Created with Sketch.</desc>
    <defs>
        <path d="M58.5091119,11.6424047 C58.0796009,13.7534269 57.207264,17.2570572 55.4129818,18.3643439 C53.3728045,19.6236242 49.328314,20.3087065 45.9459148,19.8642808 C42.5635156,19.419855 40.3085828,18.0865778 38.9663609,15.4755767 C37.8799128,13.3625545 36.2819171,7.19814741 37.3556946,5.08712518 C38.4294722,2.97610295 44.120493,2.25391114 46.751248,2.08725149 C50.2380184,1.8663719 55.5025348,1.97614506 57.596401,3.4760819 C59.6902672,4.97601875 58.9386229,9.5313825 58.5091119,11.6424047 Z M25.0336391,15.4755767 C23.6914172,18.0865778 21.4364844,19.419855 18.0540852,19.8642808 C14.671686,20.3087065 10.6271955,19.6236242 8.58701822,18.3643439 C6.79295073,17.2570572 5.92039911,13.7534269 5.4908881,11.6424047 C5.06137709,9.5313825 4.30973282,4.97601875 6.403599,3.4760819 C8.49746517,1.97614506 13.7619816,1.8663719 17.248752,2.08725149 C19.879507,2.25391114 25.5705278,2.97610295 26.6443054,5.08712518 C27.7180829,7.19814741 26.1200872,13.3625545 25.0336391,15.4755767 Z M32.5,2.47558822 C30.5785473,2.47558822 28.3206757,2.39048769 26.40625,1.75460733 C21.245777,0.0404950544 8.2347973,-1.06538383 0,1.5887255 L0.247043919,6.17812289 C0.247043919,6.17812289 1.74314189,5.84635922 2.23701014,7.50517755 C2.73109797,9.16399588 3.87869932,16.0027509 5.97714527,18.6745543 C8.58263514,21.992191 14.1939358,22.1195882 17.9883108,21.9554758 C23.0973986,21.7343 26.4427027,19.4486695 27.8700676,15.5780934 C29.2974324,11.7075173 30.1029054,8.38988066 31.0168581,7.33929572 C31.5100676,6.7724222 32.0660811,6.73216821 32.5,6.73128351 C32.9339189,6.73216821 33.4899324,6.7724222 33.9831419,7.33929572 C34.8970946,8.38988066 35.7025676,11.7075173 37.1299324,15.5780934 C38.5572973,19.4486695 41.9026014,21.7343 47.0116892,21.9554758 C50.8060642,22.1195882 56.4173649,21.992191 59.0228547,18.6745543 C61.1213007,16.0027509 62.268902,9.16399588 62.7629899,7.50517755 C63.2570777,5.84635922 64.7529561,6.17812289 64.7529561,6.17812289 L65,1.5887255 C56.7652027,-1.06538383 43.754223,0.0404950544 38.59375,1.75460733 C36.6793243,2.39048769 34.4214527,2.47558822 32.5,2.47558822 Z" id="path-1"></path>
        <rect id="path-2" x="29" y="0" width="1" height="11"></rect>
        <mask id="mask-3" maskContentUnits="userSpaceOnUse" maskUnits="objectBoundingBox" x="0" y="0" width="1" height="11" fill="white">
            <use xlink:href="#path-2"></use>
        </mask>
        <rect id="path-4" x="36" y="0" width="1" height="11"></rect>
        <mask id="mask-5" maskContentUnits="userSpaceOnUse" maskUnits="objectBoundingBox" x="0" y="0" width="1" height="11" fill="white">
            <use xlink:href="#path-4"></use>
        </mask>
        <path d="M30,9.4472175 C30.3868829,11.6733141 31.1368804,14 31.1368804,14 C31.1368804,14 32.9952107,11.4409823 34.9405742,13.993498 C35.5739176,11.6322063 36,9.4472175 36,9.4472175 C36,9.4472175 35.7736644,8.99749925 35.1960585,9.0010003 C34.6184526,9.00450135 30.7171561,9 30.7171561,9 C30.7171561,9 30.2649652,9.0010003 30,9.4472175 Z" id="path-6"></path>
    </defs>
    <g id="Page-1" stroke="none" stroke-width="1" fill="none" fill-rule="evenodd">
        <g id="ONG_size_info_implementing_fiter_filled_my-size_active" transform="translate(-886.000000, -661.000000)">
            <g id="Filter" transform="translate(763.000000, 533.000000)">
                <g id="inputs" transform="translate(14.000000, 17.000000)">
                    <g id="2" transform="translate(0.000000, 111.000000)">
                        <g id="Stacked-Group">
                            <g id="Group-17">
                                <g id="Stacked-Group" transform="translate(111.000000, 0.000000)">
                                    <path d="M5.08146754,2.00869565 C5.08146754,2.20797201 5.04935749,2.41123085 4.98513641,2.61847826 C4.92091533,2.82572567 4.82458515,3.01902084 4.69614299,3.19836957 C4.56770083,3.37771829 4.40313678,3.53514425 4.20244591,3.67065217 C4.00175503,3.8061601 3.76494335,3.90978225 3.49200376,3.98152174 L3.49200376,4.02934783 C3.73283281,4.0692031 3.96362386,4.13695604 4.18438382,4.2326087 C4.40514378,4.32826135 4.59981101,4.45978177 4.76839135,4.62717391 C4.93697168,4.79456605 5.07343943,4.99782489 5.17779868,5.23695652 C5.28215794,5.47608815 5.33433678,5.75905634 5.33433678,6.08586957 C5.33433678,6.5163065 5.24402724,6.8889477 5.06340546,7.20380435 C4.88278367,7.51866099 4.64597199,7.77572364 4.35296331,7.975 C4.05995463,8.17427636 3.7248059,8.32173865 3.34750706,8.4173913 C2.97020821,8.51304396 2.58488751,8.56086957 2.1915334,8.56086957 L1.7098777,8.56086957 C1.5252421,8.56086957 1.33258175,8.55489136 1.13189087,8.54293478 C0.9312,8.5309782 0.730512135,8.51503633 0.529821261,8.4951087 C0.329130386,8.47518106 0.152525065,8.44529005 0,8.40543478 L0,0.167391304 C0.297022495,0.119564978 0.642205622,0.0797103043 1.03555974,0.047826087 C1.42891385,0.0159418696 1.85838588,0 2.32398871,0 C2.63706648,0 2.95616018,0.025905538 3.2812794,0.0777173913 C3.60639862,0.129529245 3.90140978,0.229165929 4.16632173,0.376630435 C4.43123369,0.52409494 4.64998346,0.729346511 4.82257761,0.992391304 C4.99517176,1.2554361 5.08146754,1.59420083 5.08146754,2.00869565 Z M2.28786453,7.7 C2.54474885,7.7 2.79360181,7.67010899 3.03443086,7.61032609 C3.27525991,7.55054318 3.48798904,7.45489196 3.67262465,7.32336957 C3.85726025,7.19184717 4.00376239,7.03043574 4.11213547,6.83913043 C4.22050854,6.64782513 4.27469426,6.42065349 4.27469426,6.1576087 C4.27469426,5.83079547 4.20846727,5.56775462 4.07601129,5.36847826 C3.94355531,5.1692019 3.77096375,5.01376867 3.55823142,4.90217391 C3.34549909,4.79057915 3.10668053,4.71485527 2.84176858,4.675 C2.57685662,4.63514473 2.31194864,4.61521739 2.04703669,4.61521739 L0.99943556,4.61521739 L0.99943556,7.61630435 C1.055629,7.63224646 1.13590415,7.64420286 1.24026341,7.65217391 C1.34462266,7.66014497 1.45700786,7.6681159 1.57742239,7.67608696 C1.69783691,7.68405801 1.82226339,7.69003621 1.95070555,7.69402174 C2.07914771,7.69800727 2.19153291,7.7 2.28786453,7.7 Z M1.62558796,3.77826087 C1.76205775,3.77826087 1.9266218,3.7742754 2.11928504,3.76630435 C2.31194828,3.75833329 2.47249857,3.74637689 2.60094073,3.73043478 C2.79360397,3.66666635 2.97422305,3.58894973 3.14280339,3.49728261 C3.31138372,3.40561548 3.46189962,3.29800786 3.5943556,3.17445652 C3.72681157,3.05090518 3.83116926,2.90742835 3.9074318,2.74402174 C3.98369433,2.58061512 4.02182502,2.40326183 4.02182502,2.21195652 C4.02182502,1.94891173 3.97165306,1.73170376 3.87130762,1.56032609 C3.77096218,1.38894842 3.63650131,1.25144979 3.46792098,1.14782609 C3.29934064,1.04420238 3.10668029,0.970471234 2.88993415,0.926630435 C2.673188,0.882789636 2.45243135,0.860869565 2.22765757,0.860869565 C1.96274562,0.860869565 1.7199133,0.866847766 1.49915334,0.878804348 C1.27839338,0.890760929 1.11182245,0.908695533 0.99943556,0.932608696 L0.99943556,3.77826087 L1.62558796,3.77826087 Z M9.77761054,3.4076087 C9.53678149,3.32789815 9.30799732,3.28804348 9.09125118,3.28804348 C8.74606287,3.28804348 8.47312738,3.38170196 8.2724365,3.56902174 C8.07174563,3.75634152 7.94731915,3.99347683 7.89915334,4.28043478 L7.89915334,8.46521739 L6.93584196,8.46521739 L6.93584196,2.48695652 L7.61015992,2.48695652 L7.79078081,3.21630435 L7.83894638,3.21630435 C7.99147144,2.9452885 8.1740974,2.73605146 8.38682973,2.58858696 C8.59956205,2.44112245 8.87049067,2.3673913 9.19962371,2.3673913 C9.43242512,2.3673913 9.69331935,2.40724598 9.98231421,2.48695652 L9.77761054,3.4076087 Z M11.234619,2.48695652 L12.1979304,2.48695652 L12.1979304,8.46521739 L11.234619,8.46521739 L11.234619,2.48695652 Z M11.0299153,0.669565217 C11.0299153,0.486230967 11.0921286,0.328805005 11.2165569,0.197282609 C11.3409853,0.065760212 11.4995287,0 11.6921919,0 C11.8848551,0 12.0494192,0.065760212 12.185889,0.197282609 C12.3223588,0.328805005 12.3905927,0.486230967 12.3905927,0.669565217 C12.3905927,0.852899467 12.3223588,1.00434723 12.185889,1.12391304 C12.0494192,1.24347886 11.8848551,1.30326087 11.6921919,1.30326087 C11.4995287,1.30326087 11.3409853,1.24347886 11.2165569,1.12391304 C11.0921286,1.00434723 11.0299153,0.852899467 11.0299153,0.669565217 Z M18.8809031,6.40869565 C18.8809031,6.81521942 18.8849169,7.18387516 18.8929445,7.51467391 C18.9009721,7.84547267 18.9370959,8.17028826 19.001317,8.48913043 L18.3510818,8.48913043 L18.110254,7.64021739 L18.0620884,7.64021739 C17.9015357,7.91920429 17.6687378,8.1503614 17.3636877,8.33369565 C17.0586375,8.5170299 16.7014131,8.60869565 16.2920038,8.60869565 C15.4892403,8.60869565 14.8931973,8.35761121 14.503857,7.85543478 C14.1145167,7.35325836 13.9198495,6.56812128 13.9198495,5.5 C13.9198495,4.47970504 14.1626818,3.70453164 14.6483537,3.17445652 C15.1340256,2.64438141 15.8023162,2.37934783 16.6532455,2.37934783 C16.950268,2.37934783 17.1850728,2.3952897 17.357667,2.42717391 C17.5302611,2.45905813 17.7169008,2.51086921 17.9175917,2.5826087 L17.9175917,0.0956521739 L18.8809031,0.0956521739 L18.8809031,6.40869565 Z M16.4485419,7.77173913 C16.8579512,7.77173913 17.1830656,7.66612424 17.4238946,7.4548913 C17.6647237,7.24365836 17.8292877,6.92282824 17.9175917,6.4923913 L17.9175917,3.52717391 C17.7730943,3.41557915 17.6085302,3.3358698 17.4238946,3.28804348 C17.239259,3.24021715 16.9944198,3.21630435 16.6893697,3.21630435 C16.1354629,3.21630435 15.7019771,3.39764311 15.3888993,3.76032609 C15.0758216,4.12300906 14.919285,4.70289457 14.919285,5.5 C14.919285,5.82681323 14.9453745,6.12970875 14.9975541,6.40869565 C15.0497337,6.68768255 15.1360295,6.9268106 15.256444,7.12608696 C15.3768586,7.32536332 15.535402,7.48278928 15.732079,7.59836957 C15.9287561,7.71394985 16.1675746,7.77173913 16.4485419,7.77173913 Z M25.3471308,8.74021739 C25.3471308,9.51340966 25.1404223,10.0833315 24.7269991,10.45 C24.3135759,10.8166685 23.7014779,11 22.8906867,11 C22.4090286,11 22.0217011,10.970109 21.7286924,10.9103261 C21.4356837,10.8505432 21.1848239,10.7728266 20.9761054,10.6771739 L21.2289746,9.86413043 C21.4136102,9.93586992 21.6183118,10.0036229 21.8430856,10.0673913 C22.0678594,10.1311597 22.3608637,10.1630435 22.7221072,10.1630435 C23.0592679,10.1630435 23.3342103,10.1331525 23.5469426,10.0733696 C23.7596749,10.0135867 23.9302596,9.91394997 24.0587018,9.77445652 C24.1871439,9.63496307 24.2754466,9.45561704 24.3236124,9.23641304 C24.3717782,9.01720905 24.3958608,8.75616093 24.3958608,8.45326087 L24.3958608,7.87934783 L24.3476952,7.87934783 C24.1871425,8.1105084 23.9824409,8.2878617 23.7335842,8.41141304 C23.4847275,8.53496439 23.1596132,8.59673913 22.7582314,8.59673913 C21.9474403,8.59673913 21.3513973,8.34565468 20.9700847,7.84347826 C20.588772,7.34130184 20.3981185,6.56015023 20.3981185,5.5 C20.3981185,4.47970504 20.6429577,3.70453164 21.1326435,3.17445652 C21.6223292,2.64438141 22.3448055,2.37934783 23.3000941,2.37934783 C23.7576693,2.37934783 24.1490106,2.41521703 24.4741298,2.48695652 C24.799249,2.55869601 25.0902464,2.64239083 25.3471308,2.73804348 L25.3471308,8.74021739 Z M22.9268109,7.75978261 C23.3362203,7.75978261 23.6573209,7.65815319 23.8901223,7.4548913 C24.1229237,7.25162942 24.2874878,6.93478476 24.3838194,6.50434783 L24.3838194,3.44347826 C24.062714,3.29202823 23.6533107,3.21630435 23.1555974,3.21630435 C22.6097182,3.21630435 22.1802462,3.39963585 21.8671684,3.76630435 C21.5540906,4.13297285 21.3975541,4.70688015 21.3975541,5.48804348 C21.3975541,5.82282776 21.4256504,6.12970875 21.4818438,6.40869565 C21.5380373,6.68768255 21.6263399,6.9268106 21.7467545,7.12608696 C21.867169,7.32536332 22.0237055,7.48079654 22.2163688,7.5923913 C22.409032,7.70398607 22.6458437,7.75978261 22.9268109,7.75978261 Z M31.5966134,7.98695652 C31.3557843,8.17826183 31.0527456,8.32970959 30.6874882,8.44130435 C30.3222308,8.55289911 29.9349033,8.60869565 29.5254939,8.60869565 C29.0679187,8.60869565 28.6705567,8.53496451 28.333396,8.3875 C27.9962354,8.24003549 27.7192861,8.02880572 27.50254,7.75380435 C27.2857938,7.47880297 27.1252435,7.15000191 27.0208843,6.7673913 C26.916525,6.3847807 26.8643462,5.95435022 26.8643462,5.47608696 C26.8643462,4.455792 27.0931304,3.67862586 27.5507056,3.14456522 C28.0082807,2.61050458 28.6625232,2.34347826 29.5134525,2.34347826 C29.7863921,2.34347826 30.0593276,2.37336927 30.3322672,2.43315217 C30.6052068,2.49293508 30.850046,2.6065209 31.0667921,2.77391304 C31.2835382,2.94130518 31.4601436,3.17844049 31.5966134,3.48532609 C31.7330832,3.79221168 31.801317,4.19673662 31.801317,4.69891304 C31.801317,4.96195784 31.7772345,5.25289696 31.7290687,5.57173913 L27.8637817,5.57173913 C27.8637817,5.92246552 27.8999056,6.23333198 27.9721543,6.50434783 C28.044403,6.77536367 28.1567882,7.00452805 28.3093133,7.19184783 C28.4618383,7.3791676 28.6605193,7.52264443 28.9053622,7.62228261 C29.150205,7.72192079 29.44923,7.77173913 29.8024459,7.77173913 C30.0753855,7.77173913 30.348321,7.72391352 30.6212606,7.62826087 C30.8942002,7.53260822 31.0989018,7.42101513 31.2353716,7.29347826 L31.5966134,7.98695652 Z M29.5254939,3.18043478 C29.0518634,3.18043478 28.6725634,3.30398427 28.3875823,3.55108696 C28.1026013,3.79818964 27.9320166,4.22064918 27.8758231,4.81847826 L30.8620884,4.81847826 C30.8620884,4.21267813 30.7456895,3.78822585 30.5128881,3.5451087 C30.2800866,3.30199154 29.9509585,3.18043478 29.5254939,3.18043478 Z M40.4349953,2.48695652 L41.8197554,5.97826087 L42.1207902,7.12608696 L42.144873,7.12608696 L42.3736595,5.95434783 L43.4453434,2.48695652 L44.3604892,2.48695652 L42.3375353,8.59673913 L41.867921,8.59673913 L40.2904986,4.65108696 L40.0617121,3.67065217 L40.025588,3.67065217 L39.7847601,4.66304348 L38.2675447,8.59673913 L37.7979304,8.59673913 L35.7027281,2.48695652 L36.7503293,2.48695652 L37.9424271,5.96630435 L38.1471308,7.12608696 L38.1591722,7.12608696 L38.4481656,5.9423913 L39.7365945,2.48695652 L40.4349953,2.48695652 Z M45.5887112,2.48695652 L46.5520226,2.48695652 L46.5520226,8.46521739 L45.5887112,8.46521739 L45.5887112,2.48695652 Z M45.3840075,0.669565217 C45.3840075,0.486230967 45.4462208,0.328805005 45.5706491,0.197282609 C45.6950774,0.065760212 45.8536209,0 46.0462841,0 C46.2389473,0 46.4035114,0.065760212 46.5399812,0.197282609 C46.676451,0.328805005 46.7446849,0.486230967 46.7446849,0.669565217 C46.7446849,0.852899467 46.676451,1.00434723 46.5399812,1.12391304 C46.4035114,1.24347886 46.2389473,1.30326087 46.0462841,1.30326087 C45.8536209,1.30326087 45.6950774,1.24347886 45.5706491,1.12391304 C45.4462208,1.00434723 45.3840075,0.852899467 45.3840075,0.669565217 Z M53.2349953,6.40869565 C53.2349953,6.81521942 53.2390091,7.18387516 53.2470367,7.51467391 C53.2550643,7.84547267 53.2911881,8.17028826 53.3554092,8.48913043 L52.705174,8.48913043 L52.4643462,7.64021739 L52.4161806,7.64021739 C52.2556279,7.91920429 52.02283,8.1503614 51.7177799,8.33369565 C51.4127297,8.5170299 51.0555053,8.60869565 50.646096,8.60869565 C49.8433325,8.60869565 49.2472895,8.35761121 48.8579492,7.85543478 C48.4686089,7.35325836 48.2739417,6.56812128 48.2739417,5.5 C48.2739417,4.47970504 48.516774,3.70453164 49.0024459,3.17445652 C49.4881178,2.64438141 50.1564084,2.37934783 51.0073377,2.37934783 C51.3043602,2.37934783 51.539165,2.3952897 51.7117592,2.42717391 C51.8843533,2.45905813 52.070993,2.51086921 52.2716839,2.5826087 L52.2716839,0.0956521739 L53.2349953,0.0956521739 L53.2349953,6.40869565 Z M50.8026341,7.77173913 C51.2120434,7.77173913 51.5371578,7.66612424 51.7779868,7.4548913 C52.0188159,7.24365836 52.1833799,6.92282824 52.2716839,6.4923913 L52.2716839,3.52717391 C52.1271865,3.41557915 51.9626224,3.3358698 51.7779868,3.28804348 C51.5933512,3.24021715 51.348512,3.21630435 51.0434619,3.21630435 C50.4895551,3.21630435 50.0560693,3.39764311 49.7429915,3.76032609 C49.4299138,4.12300906 49.2733772,4.70289457 49.2733772,5.5 C49.2733772,5.82681323 49.2994667,6.12970875 49.3516463,6.40869565 C49.4038259,6.68768255 49.4901217,6.9268106 49.6105362,7.12608696 C49.7309507,7.32536332 49.8894942,7.48278928 50.0861712,7.59836957 C50.2828483,7.71394985 50.5216668,7.77173913 50.8026341,7.77173913 Z M54.2946378,2.48695652 L55.2338664,2.48695652 L55.2338664,1.30326087 L56.1971778,1.02826087 L56.1971778,2.48695652 L57.8348071,2.48695652 L57.8348071,3.32391304 L56.1971778,3.32391304 L56.1971778,6.63586957 C56.1971778,7.05036439 56.2493566,7.34329624 56.3537159,7.51467391 C56.4580752,7.68605158 56.6346805,7.77173913 56.8835372,7.77173913 C57.0922557,7.77173913 57.268861,7.74981906 57.4133584,7.70597826 C57.5578558,7.66213746 57.7184061,7.60434818 57.8950141,7.5326087 L58.1117592,8.26195652 C57.895013,8.36558023 57.6582013,8.44927504 57.401317,8.51304348 C57.1444327,8.57681191 56.8674835,8.60869565 56.570461,8.60869565 C56.0807752,8.60869565 55.7355921,8.47119703 55.5349012,8.19619565 C55.3342103,7.92119428 55.2338664,7.46087279 55.2338664,6.81521739 L55.2338664,3.32391304 L54.2946378,3.32391304 L54.2946378,2.48695652 Z M63.0366886,8.46521739 L63.0366886,5.0576087 C63.0366886,4.74673758 63.0186267,4.47373306 62.9825024,4.23858696 C62.946378,4.00344085 62.880151,3.80815295 62.7838194,3.65271739 C62.6874878,3.49728183 62.5570406,3.37971054 62.3924741,3.3 C62.2279076,3.22028946 62.0131716,3.18043478 61.7482596,3.18043478 C61.3709608,3.18043478 61.0297914,3.30199154 60.7247413,3.5451087 C60.4196912,3.78822585 60.2230171,4.10108504 60.1347131,4.48369565 L60.1347131,8.46521739 L59.1714017,8.46521739 L59.1714017,0.0956521739 L60.1347131,0.0956521739 L60.1347131,3.15652174 L60.1828786,3.15652174 C60.3915972,2.90941905 60.642457,2.71213842 60.9354657,2.56467391 C61.2284743,2.41720941 61.5917194,2.34347826 62.0252117,2.34347826 C62.3623723,2.34347826 62.6553766,2.3813402 62.9042333,2.45706522 C63.15309,2.53279023 63.3597985,2.66630339 63.524365,2.8576087 C63.6889315,3.048914 63.8093442,3.30597665 63.8856068,3.62880435 C63.9618693,3.95163205 64,4.36014246 64,4.85434783 L64,8.46521739 L63.0366886,8.46521739 Z" id="Bridge-width" fill="#333333"></path>
                                    <g id="image" transform="translate(0.000000, 15.000000)">
                                        <g id="Frame-front" opacity="0.5" transform="translate(0.000000, 7.000000)">
                                            <g id="Fill-92">
                                                <use fill="#FFFFFF" fill-rule="evenodd" xlink:href="#path-1"></use>
                                                <path stroke="#333333" stroke-width="1" d="M58.0191504,11.5427166 C58.7851951,7.77765014 58.7489742,4.91677714 57.3052271,3.88255179 C55.6461793,2.69409618 51.3659155,2.29592422 46.7828599,2.58625118 C42.5070323,2.85712701 38.5550088,3.83214559 37.8013551,5.31381165 C36.9668376,6.95445401 38.0679287,12.6347673 39.4110449,15.2469806 C40.6486084,17.6543916 42.7163682,18.9356413 46.0110518,19.3685417 C49.233859,19.7919981 53.1826465,19.1534206 55.1503978,17.9388446 C56.4559255,17.1331779 57.3509158,14.8270517 58.0191504,11.5427166 Z M24.5889551,15.2469806 L24.5889739,15.2469441 C25.9320713,12.6347673 27.0331624,6.95445401 26.1986449,5.31381165 C25.4449912,3.83214559 21.4929677,2.85712701 17.2171414,2.58625126 C12.6340845,2.29592422 8.35382074,2.69409618 6.69477289,3.88255179 C5.25102577,4.91677714 5.21480485,7.77765014 5.98084961,11.5427166 C6.6489812,14.8265454 7.54421193,17.1331663 8.84963947,17.9388676 C10.8173535,19.1534206 14.766141,19.7919981 17.9889482,19.3685417 C21.2836318,18.9356413 23.3513916,17.6543916 24.5889551,15.2469806 Z M32.5,1.97558822 C35.0596885,1.97558822 36.8675977,1.80109253 38.4361365,1.28009918 C44.8371757,-0.846081874 57.7799117,-1.26366737 65.1533822,1.11283276 L65.5199806,1.23098893 L65.2205292,6.79397323 L64.6446942,6.66626155 C64.6440656,6.66612215 64.6305541,6.66373214 64.6061922,6.66066475 C64.3854759,6.63287457 64.1293931,6.6573981 63.8984754,6.76967832 C63.6064585,6.91166713 63.3809284,7.18210002 63.2421849,7.64790835 C63.205368,7.7715151 62.2424544,11.9468107 61.7691213,13.5837344 C61.0625823,16.0271524 60.30373,17.8531988 59.4160844,18.9833753 C57.1175566,21.9101493 52.9643763,22.7134059 46.9900641,22.4550079 C41.766115,22.2288597 38.1846142,19.8831695 36.6608145,15.7510916 C36.4799989,15.2607751 34.4167426,9.07418597 33.9442589,8.18682869 C33.8240161,7.96100427 33.7108033,7.78804093 33.6059301,7.66748963 C33.307096,7.32402274 33.0187098,7.23234212 32.5010194,7.23128247 C31.9812902,7.23234212 31.692904,7.32402274 31.3940896,7.66746697 C31.2891967,7.78804093 31.1759839,7.96100427 31.0557411,8.18682869 C30.5832574,9.07418597 28.5200011,15.2607751 28.3391855,15.7510916 C26.8153858,19.8831695 23.233885,22.2288597 18.0099164,22.4550088 C12.0356237,22.7134059 7.88244336,21.9101493 5.5839269,18.9833897 C4.69627003,17.8531988 3.93741775,16.0271524 3.2308787,13.5837344 C2.75754562,11.9468107 1.79463199,7.7715151 1.75779771,7.64785008 C1.61910399,7.18200176 1.39356959,6.91158212 1.10149663,6.76961866 C0.870596845,6.65738871 0.614524495,6.63287961 0.393811318,6.66066576 C0.369441617,6.66373373 0.355923749,6.66612453 0.355290698,6.66626491 L-0.220530176,6.7939547 L-0.519980572,1.23098893 L-0.153382204,1.11283276 C7.22008828,-1.26366737 20.1628243,-0.846081874 26.5638593,1.28009779 C28.1324023,1.80109253 29.9403115,1.97558822 32.5,1.97558822 Z"></path>
                                            </g>
                                        </g>
                                        <use id="Rectangle-6" stroke="#9E9E9E" mask="url(#mask-3)" stroke-width="2" fill="#FFFFFF" stroke-dasharray="1,1,1,1" xlink:href="#path-2"></use>
                                        <use id="Rectangle-6" stroke="#9E9E9E" mask="url(#mask-5)" stroke-width="2" fill="#FFFFFF" stroke-dasharray="1,1,1,1" xlink:href="#path-4"></use>
                                        <path d="M28,3 L38,3 L40,2 L40,3 L45,3 L45,4 L40,4 L40,5 L38,4 L28,4 L26,5 L26,4 L21,4 L21,3 L26,3 L26,2 L28,3 Z" id="Combined-Shape" fill="#333333"></path>
                                        <g id="Path-2">
                                            <use fill="#CACACA" fill-rule="evenodd" xlink:href="#path-6"></use>
                                            <path stroke-opacity="0.5" stroke="#333333" stroke-width="1" d="M29.5700827,9.19193118 C29.6788634,9.00873794 29.8176812,8.86116929 29.9783587,8.74883225 C30.2446377,8.56266438 30.5098867,8.50045728 30.7177331,8.50000033 C30.7809087,8.50007323 30.7809087,8.50007323 31.0547453,8.50036488 C31.4128432,8.50072945 31.4128432,8.50072945 31.8973239,8.50116694 C32.4238429,8.50160435 32.4238429,8.50160435 32.9924515,8.50196887 C34.1660681,8.50264604 34.9595641,8.50242458 35.1930279,8.50100948 C35.5746696,8.49869623 35.8958709,8.62988641 36.1450404,8.84751475 C36.2950714,8.97855414 36.3916779,9.11326001 36.4466255,9.22243838 L36.5234746,9.3751339 L36.4907561,9.5429171 C36.477108,9.61290598 36.4509823,9.74337054 36.4132285,9.92648289 C36.3504746,10.230849 36.2777977,10.5721682 36.1960425,10.9426245 C35.96243,12.0011906 35.7027172,13.0820414 35.4235045,14.1230292 L35.1598372,15.106059 L34.5429026,14.2965778 C33.6521904,13.1278723 32.849124,13.1289019 32.0083416,13.8172463 C31.7849368,14.0001466 31.6217165,14.1832773 31.5414569,14.293799 L30.9630137,15.0903453 L30.6609934,14.1534002 C30.6171363,14.0173442 30.5413616,13.7722946 30.4442867,13.4413207 C30.2828308,12.8908416 30.1214212,12.3008504 29.9706644,11.6942207 C29.8092939,11.0448828 29.6697072,10.4142581 29.5583306,9.8158022 C29.5405842,9.72044625 29.5235954,9.62610929 29.5073843,9.53283131 L29.4757477,9.35079689 L29.5700827,9.19193118 Z"></path>
                                        </g>
                                    </g>
                                </g>
                            </g>
                        </g>
                    </g>
                </g>
            </g>
        </g>
    </g>
</svg>