<?xml version="1.0" encoding="UTF-8"?>
<svg width="69px" height="41px" viewBox="0 0 69 41" version="1.1" xmlns="http://www.w3.org/2000/svg" xmlns:xlink="http://www.w3.org/1999/xlink">
    <!-- Generator: Sketch 45.2 (43514) - http://www.bohemiancoding.com/sketch -->
    <title>Stacked Group</title>
    <desc>Created with Sketch.</desc>
    <defs>
        <path d="M32.5,2.47558822 C30.5785473,2.47558822 28.3206757,2.39048769 26.40625,1.75460733 C21.245777,0.0404950544 8.2347973,-1.06538383 0,1.5887255 L0.247043919,6.17812289 C0.247043919,6.17812289 1.74314189,5.84635922 2.23701014,7.50517755 C2.73109797,9.16399588 3.87869932,16.0027509 5.97714527,18.6745543 C8.58263514,21.992191 14.1939358,22.1195882 17.9883108,21.9554758 C23.0973986,21.7343 26.4427027,19.4486695 27.8700676,15.5780934 C29.2974324,11.7075173 30.1029054,8.38988066 31.0168581,7.33929572 C31.5100676,6.7724222 32.0660811,6.73216821 32.5,6.73128351 C32.9339189,6.73216821 33.4899324,6.7724222 33.9831419,7.33929572 C34.8970946,8.38988066 35.7025676,11.7075173 37.1299324,15.5780934 C38.5572973,19.4486695 41.9026014,21.7343 47.0116892,21.9554758 C50.8060642,22.1195882 56.4173649,21.992191 59.0228547,18.6745543 C61.1213007,16.0027509 62.268902,9.16399588 62.7629899,7.50517755 C63.2570777,5.84635922 64.7529561,6.17812289 64.7529561,6.17812289 L65,1.5887255 C56.7652027,-1.06538383 43.754223,0.0404950544 38.59375,1.75460733 C36.6793243,2.39048769 34.4214527,2.47558822 32.5,2.47558822 Z" id="path-1"></path>
        <path d="M58.5537381,11.5710264 C58.1632735,13.4474906 57.37024,16.5618286 55.7390743,17.5460835 C53.8843677,18.6654438 50.2075582,19.2744058 47.1326499,18.8793607 C44.0577415,18.4843156 42.0078026,17.2991803 40.7876008,14.9782904 C39.7999207,13.1000485 38.3471974,7.62057547 39.3233588,5.74411127 C40.2995201,3.86764707 45.4731755,3.22569879 47.8647709,3.07755688 C51.0345622,2.88121947 55.8204862,2.97879561 57.7240009,4.3120728 C59.6275156,5.64535 58.9442026,9.69456222 58.5537381,11.5710264 Z" id="path-2"></path>
        <path d="M24.2123992,14.9782904 C22.9921974,17.2991803 20.9422585,18.4843156 17.8673501,18.8793607 C14.7924418,19.2744058 11.1156323,18.6654438 9.26092565,17.5460835 C7.62995521,16.5618286 6.83672646,13.4474906 6.44626191,11.5710264 C6.05579735,9.69456222 5.37248438,5.64535 7.27599909,4.3120728 C9.17951379,2.97879561 13.9654378,2.88121947 17.1352291,3.07755688 C19.5268245,3.22569879 24.7004799,3.86764707 25.6766412,5.74411127 C26.6528026,7.62057547 25.2000793,13.1000485 24.2123992,14.9782904 Z" id="path-3"></path>
        <path d="M30,2.4472175 C30.3868829,4.67331409 31.1368804,7 31.1368804,7 C31.1368804,7 32.9952107,4.44098229 34.9405742,6.99349805 C35.5739176,4.63220633 36,2.4472175 36,2.4472175 C36,2.4472175 35.7736644,1.99749925 35.1960585,2.0010003 C34.6184526,2.00450135 30.7171561,2 30.7171561,2 C30.7171561,2 30.2649652,2.0010003 30,2.4472175 Z" id="path-4"></path>
        <rect id="path-5" x="0" y="0" width="1" height="11"></rect>
        <mask id="mask-6" maskContentUnits="userSpaceOnUse" maskUnits="objectBoundingBox" x="0" y="0" width="1" height="11" fill="white">
            <use xlink:href="#path-5"></use>
        </mask>
        <rect id="path-7" x="21" y="0" width="1" height="11"></rect>
        <mask id="mask-8" maskContentUnits="userSpaceOnUse" maskUnits="objectBoundingBox" x="0" y="0" width="1" height="11" fill="white">
            <use xlink:href="#path-7"></use>
        </mask>
        <rect id="path-9" x="0" y="0" width="1" height="11"></rect>
        <mask id="mask-10" maskContentUnits="userSpaceOnUse" maskUnits="objectBoundingBox" x="0" y="0" width="1" height="11" fill="white">
            <use xlink:href="#path-9"></use>
        </mask>
        <rect id="path-11" x="21" y="0" width="1" height="11"></rect>
        <mask id="mask-12" maskContentUnits="userSpaceOnUse" maskUnits="objectBoundingBox" x="0" y="0" width="1" height="11" fill="white">
            <use xlink:href="#path-11"></use>
        </mask>
    </defs>
    <g id="Page-1" stroke="none" stroke-width="1" fill="none" fill-rule="evenodd">
        <g id="ONG_size_info_implementing_fiter_filled_my-size_active" transform="translate(-886.000000, -550.000000)">
            <g id="Filter" transform="translate(763.000000, 533.000000)">
                <g id="inputs" transform="translate(14.000000, 17.000000)">
                    <g id="3">
                        <g id="Stacked-Group">
                            <g id="1">
                                <g id="Stacked-Group" transform="translate(111.000000, 0.000000)">
                                    <path d="M6.92759373,8.85 L2,8.85 L2,0.1 L2.98789923,0.1 L2.98789923,7.925 L6.92759373,7.925 L6.92759373,8.85 Z M12.4026979,8.35 C12.1646487,8.550001 11.8651079,8.70833275 11.5040667,8.825 C11.1430254,8.94166725 10.7601687,9 10.355485,9 C9.90319155,9 9.51041627,8.92291744 9.17714739,8.76875 C8.84387852,8.61458256 8.57012605,8.39375144 8.35588177,8.10625 C8.14163749,7.81874856 7.98294041,7.475002 7.87978576,7.075 C7.7766311,6.674998 7.72505455,6.2250025 7.72505455,5.725 C7.72505455,4.658328 7.9511979,3.84583612 8.40349137,3.2875 C8.85578484,2.72916388 9.50247546,2.45 10.3435826,2.45 C10.6133717,2.45 10.8831568,2.48124969 11.1529458,2.54375 C11.4227349,2.60625031 11.664748,2.72499912 11.8789923,2.9 C12.0932365,3.07500087 12.2678033,3.32291506 12.4026979,3.64375 C12.5375924,3.96458494 12.6050387,4.38749737 12.6050387,4.9125 C12.6050387,5.18750137 12.5812341,5.491665 12.5336243,5.825 L8.71295378,5.825 C8.71295378,6.1916685 8.74866062,6.51666525 8.82007538,6.8 C8.89149014,7.08333475 9.0025781,7.32291569 9.15334259,7.51875 C9.30410708,7.71458431 9.50049472,7.86458281 9.74251141,7.96875 C9.98452809,8.07291719 10.2801014,8.125 10.6292402,8.125 C10.8990293,8.125 11.1688144,8.0750005 11.4386035,7.975 C11.7083925,7.8749995 11.9107313,7.758334 12.0456259,7.625 L12.4026979,8.35 Z M10.355485,3.325 C9.8873216,3.325 9.51239974,3.45416537 9.23070819,3.7125 C8.94901664,3.97083462 8.78040099,4.41249687 8.72485618,5.0375 L11.6766515,5.0375 C11.6766515,4.4041635 11.5615961,3.96041794 11.3314818,3.70625 C11.1013676,3.45208206 10.7760386,3.325 10.355485,3.325 Z M17.9254116,8.85 L17.9254116,5.2875 C17.9254116,4.63749675 17.8361445,4.14791831 17.6576076,3.81875 C17.4790707,3.48958169 17.151758,3.325 16.6756596,3.325 C16.255106,3.325 15.9079561,3.44374881 15.6341996,3.68125 C15.360443,3.91875119 15.1680228,4.21666487 15.0569331,4.575 L15.0569331,8.85 L14.1047411,8.85 L14.1047411,2.6 L14.7712755,2.6 L14.9498115,3.3625 L14.9974211,3.3625 C15.1878605,3.095832 15.4437596,2.87708419 15.765126,2.70625 C16.0864924,2.53541581 16.4693491,2.45 16.9137076,2.45 C17.2390415,2.45 17.5246963,2.48958294 17.7706804,2.56875 C18.0166646,2.64791706 18.2209871,2.787499 18.383654,2.9875 C18.546321,3.187501 18.6693112,3.45624831 18.7526284,3.79375 C18.8359457,4.13125169 18.8776037,4.55833075 18.8776037,5.075 L18.8776037,8.85 L17.9254116,8.85 Z M23.2338822,7.15 C23.2338822,6.89999875 23.1624685,6.70416738 23.019639,6.5625 C22.8768094,6.42083262 22.7002589,6.30208381 22.4899821,6.20625 C22.2797054,6.11041619 22.0495946,6.01875044 21.7996429,5.93125 C21.5496913,5.84374956 21.3195805,5.73125069 21.1093037,5.59375 C20.8990269,5.45624931 20.7224764,5.27916775 20.5796469,5.0625 C20.4368174,4.84583225 20.3654037,4.5541685 20.3654037,4.1875 C20.3654037,3.587497 20.5280682,3.14791806 20.8534021,2.86875 C21.178736,2.58958194 21.6310227,2.45 22.2102757,2.45 C22.6387643,2.45 22.9978164,2.48958294 23.287443,2.56875 C23.5770695,2.64791706 23.8290011,2.74166612 24.0432454,2.85 L23.8170998,3.675 C23.6345954,3.58333287 23.4144032,3.50208369 23.1565166,3.43125 C22.8986299,3.36041631 22.6228938,3.325 22.3292997,3.325 C21.9801609,3.325 21.7242619,3.38749937 21.5615949,3.5125 C21.398928,3.63750063 21.3175957,3.85416512 21.3175957,4.1625 C21.3175957,4.37916775 21.3890094,4.54791606 21.5318389,4.66875 C21.6746684,4.78958394 21.8512189,4.89791619 22.0614957,4.99375 C22.2717725,5.08958381 22.5018833,5.18333287 22.751835,5.275 C23.0017866,5.36666712 23.2318974,5.48749925 23.4421742,5.6375 C23.652451,5.78750075 23.8290015,5.97708219 23.971831,6.20625 C24.1146605,6.43541781 24.1860742,6.73749812 24.1860742,7.1125 C24.1860742,7.379168 24.1444162,7.6291655 24.061099,7.8625 C23.9777818,8.0958345 23.8488404,8.2958325 23.674271,8.4625 C23.4997016,8.6291675 23.2834768,8.76041619 23.0255902,8.85625 C22.7677035,8.95208381 22.4641954,9 22.1150565,9 C21.6627631,9 21.2779226,8.95416712 20.9605237,8.8625 C20.6431248,8.77083287 20.3773072,8.66250062 20.1630629,8.5375 L20.4487205,7.6875 C20.6312249,7.79583387 20.8692705,7.89583287 21.1628645,7.9875 C21.4564585,8.07916712 21.7540156,8.125 22.0555445,8.125 C22.3967484,8.125 22.6784357,8.05416737 22.900615,7.9125 C23.1227942,7.77083262 23.2338822,7.5166685 23.2338822,7.15 Z M29.9706407,8.35 C29.7325915,8.550001 29.4330508,8.70833275 29.0720095,8.825 C28.7109682,8.94166725 28.3281115,9 27.9234279,9 C27.4711344,9 27.0783591,8.92291744 26.7450903,8.76875 C26.4118214,8.61458256 26.1380689,8.39375144 25.9238246,8.10625 C25.7095804,7.81874856 25.5508833,7.475002 25.4477286,7.075 C25.344574,6.674998 25.2929974,6.2250025 25.2929974,5.725 C25.2929974,4.658328 25.5191408,3.84583612 25.9714342,3.2875 C26.4237277,2.72916388 27.0704183,2.45 27.9115255,2.45 C28.1813146,2.45 28.4510996,2.48124969 28.7208887,2.54375 C28.9906778,2.60625031 29.2326909,2.72499912 29.4469351,2.9 C29.6611794,3.07500087 29.8357462,3.32291506 29.9706407,3.64375 C30.1055353,3.96458494 30.1729816,4.38749737 30.1729816,4.9125 C30.1729816,5.18750137 30.149177,5.491665 30.1015671,5.825 L26.2808966,5.825 C26.2808966,6.1916685 26.3166035,6.51666525 26.3880183,6.8 C26.459433,7.08333475 26.570521,7.32291569 26.7212855,7.51875 C26.87205,7.71458431 27.0684376,7.86458281 27.3104543,7.96875 C27.552471,8.07291719 27.8480443,8.125 28.1971831,8.125 C28.4669722,8.125 28.7367572,8.0750005 29.0065463,7.975 C29.2763354,7.8749995 29.4786742,7.758334 29.6135687,7.625 L29.9706407,8.35 Z M27.9234279,3.325 C27.4552645,3.325 27.0803426,3.45416537 26.7986511,3.7125 C26.5169595,3.97083462 26.3483439,4.41249687 26.292799,5.0375 L29.2445943,5.0375 C29.2445943,4.4041635 29.1295389,3.96041794 28.8994247,3.70625 C28.6693105,3.45208206 28.3439815,3.325 27.9234279,3.325 Z M38.7070026,2.6 L40.0757786,6.25 L40.3733386,7.45 L40.3971434,7.45 L40.623289,6.225 L41.6826027,2.6 L42.5871851,2.6 L40.5875818,8.9875 L40.1233882,8.9875 L38.5641738,4.8625 L38.3380282,3.8375 L38.302321,3.8375 L38.064273,4.875 L36.5645705,8.9875 L36.1003769,8.9875 L34.0293593,2.6 L35.0648681,2.6 L36.2432057,6.2375 L36.4455465,7.45 L36.4574489,7.45 L36.7431065,6.2125 L38.0166634,2.6 L38.7070026,2.6 Z M43.8012299,2.6 L44.7534219,2.6 L44.7534219,8.85 L43.8012299,8.85 L43.8012299,2.6 Z M43.5988891,0.7 C43.5988891,0.508332375 43.6603842,0.343750688 43.7833763,0.20625 C43.9063684,0.0687493125 44.0630818,0 44.2535211,0 C44.4439605,0 44.606625,0.0687493125 44.7415195,0.20625 C44.8764141,0.343750688 44.9438603,0.508332375 44.9438603,0.7 C44.9438603,0.891667625 44.8764141,1.04999938 44.7415195,1.175 C44.606625,1.30000063 44.4439605,1.3625 44.2535211,1.3625 C44.0630818,1.3625 43.9063684,1.30000063 43.7833763,1.175 C43.6603842,1.04999938 43.5988891,0.891667625 43.5988891,0.7 Z M51.3592541,6.7 C51.3592541,7.12500212 51.3632215,7.51041494 51.3711565,7.85625 C51.3790915,8.20208506 51.4147983,8.541665 51.4782781,8.875 L50.8355485,8.875 L50.5975005,7.9875 L50.5498909,7.9875 C50.3911914,8.27916812 50.1610807,8.52083237 49.8595517,8.7125 C49.5580227,8.90416763 49.2049217,9 48.800238,9 C48.0067407,9 47.4175778,8.73750263 47.0327316,8.2125 C46.6478854,7.68749737 46.4554652,6.86667225 46.4554652,5.75 C46.4554652,4.683328 46.6954945,3.87291944 47.1755604,3.31875 C47.6556263,2.76458056 48.3162029,2.4875 49.1573101,2.4875 C49.4509041,2.4875 49.6829986,2.5041665 49.8536005,2.5375 C50.0242024,2.5708335 50.2086878,2.62499962 50.4070621,2.7 L50.4070621,0.1 L51.3592541,0.1 L51.3592541,6.7 Z M48.9549693,8.125 C49.3596529,8.125 49.6810145,8.01458444 49.9190637,7.79375 C50.1571129,7.57291556 50.3197774,7.23750225 50.4070621,6.7875 L50.4070621,3.6875 C50.2642326,3.57083275 50.1015681,3.48750025 49.9190637,3.4375 C49.7365593,3.38749975 49.4945462,3.3625 49.1930173,3.3625 C48.6455041,3.3625 48.217022,3.55208144 47.907558,3.93125 C47.5980941,4.31041856 47.4433644,4.9166625 47.4433644,5.75 C47.4433644,6.09166837 47.4691527,6.40833187 47.52073,6.7 C47.5723073,6.99166812 47.657607,7.24166562 47.7766316,7.45 C47.8956562,7.65833437 48.0523696,7.82291606 48.2467764,7.94375 C48.4411833,8.06458394 48.6772452,8.125 48.9549693,8.125 Z M52.4066653,2.6 L53.3350526,2.6 L53.3350526,1.3625 L54.2872446,1.075 L54.2872446,2.6 L55.905971,2.6 L55.905971,3.475 L54.2872446,3.475 L54.2872446,6.9375 C54.2872446,7.3708355 54.3388211,7.67708244 54.4419758,7.85625 C54.5451305,8.03541756 54.7196972,8.125 54.9656814,8.125 C55.1719907,8.125 55.3465575,8.10208356 55.489387,8.05625 C55.6322165,8.01041644 55.7909136,7.95000038 55.965483,7.875 L56.1797262,8.6375 C55.965482,8.74583387 55.7314038,8.833333 55.4774846,8.9 C55.2235655,8.966667 54.949813,9 54.656219,9 C54.1721856,9 53.8309869,8.85625144 53.6326126,8.56875 C53.4342382,8.28124856 53.3350526,7.80000337 53.3350526,7.125 L53.3350526,3.475 L52.4066653,3.475 L52.4066653,2.6 Z M61.047808,8.85 L61.047808,5.2875 C61.047808,4.96249838 61.0299546,4.67708456 60.9942472,4.43125 C60.9585398,4.18541544 60.8930772,3.98125081 60.7978576,3.81875 C60.7026379,3.65624919 60.5736965,3.53333375 60.4110296,3.45 C60.2483626,3.36666625 60.0361053,3.325 59.7742511,3.325 C59.4013074,3.325 59.0640761,3.45208206 58.7625471,3.70625 C58.4610181,3.96041794 58.2666142,4.287498 58.1793295,4.6875 L58.1793295,8.85 L57.2271375,8.85 L57.2271375,0.1 L58.1793295,0.1 L58.1793295,3.3 L58.2269391,3.3 C58.4332484,3.04166538 58.6812126,2.83541744 58.9708391,2.68125 C59.2604656,2.52708256 59.6195178,2.45 60.0480063,2.45 C60.3812752,2.45 60.6708974,2.48958294 60.9168816,2.56875 C61.1628657,2.64791706 61.3671882,2.787499 61.5298552,2.9875 C61.6925221,3.187501 61.811545,3.45624831 61.8869272,3.79375 C61.9623094,4.13125169 62,4.55833075 62,5.075 L62,8.85 L61.047808,8.85 Z" id="Lense-width" fill="#333333"></path>
                                    <g id="image" transform="translate(0.000000, 13.000000)">
                                        <g id="Frame-front" opacity="0.5" transform="translate(0.000000, 5.000000)">
                                            <g id="Fill-92">
                                                <use fill="#FFFFFF" fill-rule="evenodd" xlink:href="#path-1"></use>
                                                <path stroke="#333333" stroke-width="1" d="M32.5,1.97558822 C35.0596885,1.97558822 36.8675977,1.80109253 38.4361365,1.28009918 C44.8371757,-0.846081874 57.7799117,-1.26366737 65.1533822,1.11283276 L65.5199806,1.23098893 L65.2205292,6.79397323 L64.6446942,6.66626155 C64.6440656,6.66612215 64.6305541,6.66373214 64.6061922,6.66066475 C64.3854759,6.63287457 64.1293931,6.6573981 63.8984754,6.76967832 C63.6064585,6.91166713 63.3809284,7.18210002 63.2421849,7.64790835 C63.205368,7.7715151 62.2424544,11.9468107 61.7691213,13.5837344 C61.0625823,16.0271524 60.30373,17.8531988 59.4160844,18.9833753 C57.1175566,21.9101493 52.9643763,22.7134059 46.9900641,22.4550079 C41.766115,22.2288597 38.1846142,19.8831695 36.6608145,15.7510916 C36.4799989,15.2607751 34.4167426,9.07418597 33.9442589,8.18682869 C33.8240161,7.96100427 33.7108033,7.78804093 33.6059301,7.66748963 C33.307096,7.32402274 33.0187098,7.23234212 32.5010194,7.23128247 C31.9812902,7.23234212 31.692904,7.32402274 31.3940896,7.66746697 C31.2891967,7.78804093 31.1759839,7.96100427 31.0557411,8.18682869 C30.5832574,9.07418597 28.5200011,15.2607751 28.3391855,15.7510916 C26.8153858,19.8831695 23.233885,22.2288597 18.0099164,22.4550088 C12.0356237,22.7134059 7.88244336,21.9101493 5.5839269,18.9833897 C4.69627003,17.8531988 3.93741775,16.0271524 3.2308787,13.5837344 C2.75754562,11.9468107 1.79463199,7.7715151 1.75779771,7.64785008 C1.61910399,7.18200176 1.39356959,6.91158212 1.10149663,6.76961866 C0.870596845,6.65738871 0.614524495,6.63287961 0.393811318,6.66066576 C0.369441617,6.66373373 0.355923749,6.66612453 0.355290698,6.66626491 L-0.220530176,6.7939547 L-0.519980572,1.23098893 L-0.153382204,1.11283276 C7.22008828,-1.26366737 20.1628243,-0.846081874 26.5638593,1.28009779 C28.1324023,1.80109253 29.9403115,1.97558822 32.5,1.97558822 Z"></path>
                                            </g>
                                            <g id="Path">
                                                <use fill="#959595" fill-rule="evenodd" xlink:href="#path-2"></use>
                                                <path stroke="#333333" stroke-width="1" d="M59.0432525,11.6728872 C58.3782146,14.8688747 57.5072986,17.0630999 55.9974306,17.9741629 C54.0064913,19.175743 50.2002985,19.7775826 47.0689366,19.3752847 C43.7828382,18.9531072 41.6251783,17.6458627 40.3450574,15.2110034 C38.993933,12.6416101 37.9392115,7.32142221 38.8797891,5.51336048 C39.7990088,3.74635468 43.5367879,2.84468559 47.8338601,2.57851328 C52.2250403,2.30652282 56.2556375,2.67313737 58.01085,3.90253943 C59.7898762,5.14862121 59.8256684,7.91281371 59.0432525,11.6728872 Z"></path>
                                            </g>
                                            <g id="Path">
                                                <use fill="#959595" fill-rule="evenodd" xlink:href="#path-3"></use>
                                                <path stroke="#333333" stroke-width="1" d="M24.6549426,15.2110034 L24.6549619,15.2109666 C23.3748217,17.6458627 21.2171618,18.9531072 17.9310634,19.3752847 C14.7997015,19.7775826 10.9935087,19.175743 9.00258383,17.9741717 C7.49283035,17.0630686 6.62168161,14.868376 5.95674747,11.6728872 C5.17433158,7.91281371 5.21012383,5.14862121 6.98914997,3.90253943 C8.74436254,2.67313737 12.7749597,2.30652282 17.1661412,2.57851335 C21.4632121,2.84468559 25.2009912,3.74635468 26.1202109,5.51336048 C27.0607885,7.32142221 26.006067,12.6416101 24.6549426,15.2110034 Z"></path>
                                            </g>
                                            <g id="Path-2">
                                                <use fill="#FFFFFF" fill-rule="evenodd" xlink:href="#path-4"></use>
                                                <path stroke="#333333" stroke-width="1" d="M29.5700827,2.19193118 C29.6788634,2.00873794 29.8176812,1.86116929 29.9783587,1.74883225 C30.2446377,1.56266438 30.5098867,1.50045728 30.7177331,1.50000033 C30.7809087,1.50007323 30.7809087,1.50007323 31.0547453,1.50036488 C31.4128432,1.50072945 31.4128432,1.50072945 31.8973239,1.50116694 C32.4238429,1.50160435 32.4238429,1.50160435 32.9924515,1.50196887 C34.1660681,1.50264604 34.9595641,1.50242458 35.1930279,1.50100948 C35.5746696,1.49869623 35.8958709,1.62988641 36.1450404,1.84751475 C36.2950714,1.97855414 36.3916779,2.11326001 36.4466255,2.22243838 L36.5234746,2.3751339 L36.4907561,2.5429171 C36.477108,2.61290598 36.4509823,2.74337054 36.4132285,2.92648289 C36.3504746,3.23084903 36.2777977,3.57216817 36.1960425,3.94262451 C35.96243,5.00119057 35.7027172,6.0820414 35.4235045,7.12302916 L35.1598372,8.10605899 L34.5429026,7.29657777 C33.6521904,6.12787228 32.849124,6.12890194 32.0083416,6.81724625 C31.7849368,7.00014665 31.6217165,7.18327735 31.5414569,7.29379899 L30.9630137,8.0903453 L30.6609934,7.15340017 C30.6171363,7.01734417 30.5413616,6.77229459 30.4442867,6.44132072 C30.2828308,5.89084164 30.1214212,5.30085037 29.9706644,4.69422065 C29.8092939,4.0448828 29.6697072,3.4142581 29.5583306,2.8158022 C29.5405842,2.72044625 29.5235954,2.62610929 29.5073843,2.53283131 L29.4757477,2.35079689 L29.5700827,2.19193118 Z"></path>
                                            </g>
                                        </g>
                                        <g id="arrows" transform="translate(38.000000, 0.000000)">
                                            <use id="Rectangle-6" stroke="#9E9E9E" mask="url(#mask-6)" stroke-width="2" fill="#FFFFFF" stroke-dasharray="1,1,1,1" xlink:href="#path-5"></use>
                                            <use id="Rectangle-6" stroke="#9E9E9E" mask="url(#mask-8)" stroke-width="2" fill="#FFFFFF" stroke-dasharray="1,1,1,1" xlink:href="#path-7"></use>
                                            <path d="M18,2 L4,2 L4,1 L18,1 L18,-3.83475851e-17 L21,1.5 L18,3 L18,2 Z M1,1.5 L4,-3.83475851e-17 L4,3 L1,1.5 Z" id="Combined-Shape" fill="#333333"></path>
                                        </g>
                                        <g id="arrows" transform="translate(5.000000, 0.000000)">
                                            <use id="Rectangle-6" stroke="#9E9E9E" mask="url(#mask-10)" stroke-width="2" fill="#FFFFFF" stroke-dasharray="1,1,1,1" xlink:href="#path-9"></use>
                                            <use id="Rectangle-6" stroke="#9E9E9E" mask="url(#mask-12)" stroke-width="2" fill="#FFFFFF" stroke-dasharray="1,1,1,1" xlink:href="#path-11"></use>
                                            <path d="M18,2 L4,2 L4,1 L18,1 L18,-3.83475851e-17 L21,1.5 L18,3 L18,2 Z M1,1.5 L4,-3.83475851e-17 L4,3 L1,1.5 Z" id="Combined-Shape" fill="#333333"></path>
                                        </g>
                                    </g>
                                </g>
                            </g>
                        </g>
                    </g>
                </g>
            </g>
        </g>
    </g>
</svg>