<?xml version="1.0" encoding="UTF-8"?>
<svg width="250px" height="210px" viewBox="0 0 250 210" version="1.1" xmlns="http://www.w3.org/2000/svg" xmlns:xlink="http://www.w3.org/1999/xlink">
    <!-- Generator: Sketch 45.2 (43514) - http://www.bohemiancoding.com/sketch -->
    <title>Group 8</title>
    <desc>Created with Sketch.</desc>
    <defs>
        <rect id="path-1" x="0" y="0" width="250" height="210"></rect>
        <linearGradient x1="99.8863354%" y1="45.6968402%" x2="50%" y2="45.6968397%" id="linearGradient-3">
            <stop stop-color="#FFFFFF" stop-opacity="0" offset="0%"></stop>
            <stop stop-color="#FFFFFF" offset="100%"></stop>
        </linearGradient>
    </defs>
    <g id="Page-1" stroke="none" stroke-width="1" fill="none" fill-rule="evenodd">
        <g id="Group-8">
            <mask id="mask-2" fill="white">
                <use xlink:href="#path-1"></use>
            </mask>
            <use id="Rectangle" fill="#FFFFFF" opacity="0.900000036" xlink:href="#path-1"></use>
            <g id="Group-7" mask="url(#mask-2)">
                <g transform="translate(-310.000000, -210.000000)">
                    <g id="Group-3">
                        <g id="Group" transform="translate(0.000000, 14.000000)"></g>
                        <g id="Group-6" transform="translate(430.500000, 269.000000) scale(-1, 1) translate(-430.500000, -269.000000) translate(351.000000, 239.000000)">
                            <rect id="Rectangle-2" fill="#999999" x="0" y="0" width="1" height="60"></rect>
                            <rect id="Rectangle-2" fill="#999999" x="158" y="0" width="1" height="58"></rect>
                            <path d="M80.0002665,71.999505 L80.0002665,-68.000495 L81.999505,-68.000495 L79.6394944,-76.000495 L77.000495,-68.000495 L79.0002665,-68.000495 L79.0002665,71.999505 L77.000495,71.999505 L79.6394944,80.999505 L81.999505,71.999505 L80.0002665,71.999505 Z" id="Combined-Shape" fill="#A3A3A3" transform="translate(79.500000, 2.499505) rotate(90.000000) translate(-79.500000, -2.499505) "></path>
                        </g>
                        <text id="Lenses-size" font-family="Arial-BoldMT, Arial" font-size="12" font-weight="bold" fill="#333333">
                            <tspan x="392" y="236">Lens Width</tspan>
                        </text>
                    </g>
                    <g id="Group-5" transform="translate(86.000000, 253.000000)">
                        <g id="Frame-front" stroke="#333333">
                            <path d="M180.825153,109.322526 C171.124233,127.560256 154.826687,136.87314 130.380368,139.977434 C105.934049,143.081729 76.7024601,138.296459 61.9570613,129.50044 C48.9904233,121.76609 42.6840491,97.293385 39.5797546,82.5479862 C36.4754601,67.8025874 31.0429448,35.983569 46.1763804,25.5065751 C61.309816,15.0295813 99.3591534,14.2628205 124.559816,15.8056549 C143.57362,16.9697653 184.705521,22.0142439 192.466258,36.7596426 C200.226994,51.5050414 188.677466,94.563158 180.825153,109.322526 Z M229.717791,17.3729576 C216.136503,17.3729576 200.177325,16.7757469 186.645706,12.3133236 C150.170245,0.284182507 58.2055215,-7.47655369 0,11.1492132 L1.74616564,43.3562684 C1.74616564,43.3562684 12.3209448,41.0280475 15.8117239,52.6691518 C19.3040552,64.3102561 27.4155767,112.302649 42.2478957,131.052587 C60.6641227,154.334796 100.326141,155.228833 127.145693,154.07714 C163.257951,152.524992 186.903362,136.485103 196.992319,109.322526 C207.081276,82.1599494 212.774552,58.8777408 219.234589,51.5050414 C222.720712,47.526888 226.650748,47.2443972 229.717791,47.2381886 C232.784834,47.2443972 236.714871,47.526888 240.200994,51.5050414 C246.661031,58.8777408 252.354307,82.1599494 262.443264,109.322526 C272.532221,136.485103 296.177632,152.524992 332.28989,154.07714 C359.109442,155.228833 398.77146,154.334796 417.187687,131.052587 C432.020006,112.302649 440.131528,64.3102561 443.623859,52.6691518 C447.11619,41.0280475 457.689417,43.3562684 457.689417,43.3562684 L459.435583,11.1492132 C401.230061,-7.47655369 309.265337,0.284182507 272.789877,12.3133236 C259.258258,16.7757469 243.29908,17.3729576 229.717791,17.3729576 Z" id="Fill-92" opacity="0.300000012"></path>
                            <path d="M419.855828,82.5479862 C416.751534,97.293385 410.446712,121.76609 397.478521,129.50044 C382.733123,138.296459 353.501534,143.081729 329.055215,139.977434 C304.608896,136.87314 288.31135,127.560256 278.610429,109.322526 C270.758117,94.563158 259.208589,51.5050414 266.969325,36.7596426 C274.730061,22.0142439 315.861963,16.9697653 334.875767,15.8056549 C360.076429,14.2628205 398.125767,15.0295813 413.259202,25.5065751 C428.392638,35.983569 422.960123,67.8025874 419.855828,82.5479862 Z" id="Path"></path>
                            <path d="M206.435583,18.0378222 C209.438079,38.2894168 215.258611,59.4561083 215.258611,59.4561083 C215.258611,59.4561083 229.680623,36.1758116 244.778076,59.3969578 C249.693287,37.9154449 253,18.0378222 253,18.0378222 C253,18.0378222 251.243469,13.9465749 246.760822,13.9784252 C242.278175,14.0102755 212.001242,13.9693252 212.001242,13.9693252 C212.001242,13.9693252 208.491908,13.9784252 206.435583,18.0378222 Z" id="Path-2" stroke-opacity="0.3" fill="#FFFFFF"></path>
                        </g>
                    </g>
                </g>
            </g>
            <rect id="Rectangle-4" fill="url(#linearGradient-3)" mask="url(#mask-2)" x="-33" y="9" width="71" height="205"></rect>
        </g>
    </g>
</svg>