<?xml version="1.0" encoding="UTF-8"?>
<svg width="560px" height="152px" viewBox="0 0 560 152" version="1.1" xmlns="http://www.w3.org/2000/svg" xmlns:xlink="http://www.w3.org/1999/xlink">
    <!-- Generator: Sketch 45.2 (43514) - http://www.bohemiancoding.com/sketch -->
    <title>picture 2</title>
    <desc>Created with Sketch.</desc>
    <defs>
        <rect id="path-1" x="0" y="0" width="560" height="152"></rect>
        <rect id="path-3" x="0" y="19" width="1" height="29"></rect>
        <mask id="mask-4" maskContentUnits="userSpaceOnUse" maskUnits="objectBoundingBox" x="0" y="0" width="1" height="29" fill="white">
            <use xlink:href="#path-3"></use>
        </mask>
        <rect id="path-5" x="83" y="20" width="1" height="29"></rect>
        <mask id="mask-6" maskContentUnits="userSpaceOnUse" maskUnits="objectBoundingBox" x="0" y="0" width="1" height="29" fill="white">
            <use xlink:href="#path-5"></use>
        </mask>
        <rect id="path-7" x="11" y="20" width="1" height="15"></rect>
        <mask id="mask-8" maskContentUnits="userSpaceOnUse" maskUnits="objectBoundingBox" x="0" y="0" width="1" height="15" fill="white">
            <use xlink:href="#path-7"></use>
        </mask>
        <rect id="path-9" x="35" y="20" width="1" height="15"></rect>
        <mask id="mask-10" maskContentUnits="userSpaceOnUse" maskUnits="objectBoundingBox" x="0" y="0" width="1" height="15" fill="white">
            <use xlink:href="#path-9"></use>
        </mask>
        <rect id="path-11" x="0" y="20" width="1" height="25"></rect>
        <mask id="mask-12" maskContentUnits="userSpaceOnUse" maskUnits="objectBoundingBox" x="0" y="0" width="1" height="25" fill="white">
            <use xlink:href="#path-11"></use>
        </mask>
        <rect id="path-13" x="82" y="20" width="1" height="29"></rect>
        <mask id="mask-14" maskContentUnits="userSpaceOnUse" maskUnits="objectBoundingBox" x="0" y="0" width="1" height="29" fill="white">
            <use xlink:href="#path-13"></use>
        </mask>
        <path d="M29.5802253,6.64689996 C29.5802253,6.64689996 95.524297,5.94710874 124.405343,6.46432629 C153.286389,6.98154383 181.14637,9.36122925 181.14637,9.36122925 C181.14637,9.36122925 197.284556,12.4533152 210.736889,22.4727355 C224.189222,32.4921558 238.306947,40.8792732 238.306947,40.8792732 C238.306947,40.8792732 250.315574,47.2685387 246.695987,50.364244 C243.0764,53.4599493 233.850763,51.7238932 233.850763,51.7238932 C233.850763,51.7238932 201.410472,23.8022239 187.636371,18.106657 C173.86227,12.4110901 155.590701,15.5092083 155.590701,15.5092083 L127.232615,18.3153698 L29.5802253,18.5669329 L29.5802253,6.64689996 Z" id="path-15"></path>
        <rect id="path-16" x="0" y="0" width="1" height="14"></rect>
        <mask id="mask-17" maskContentUnits="userSpaceOnUse" maskUnits="objectBoundingBox" x="0" y="0" width="1" height="14" fill="white">
            <use xlink:href="#path-16"></use>
        </mask>
        <rect id="path-18" x="154" y="0" width="1" height="16"></rect>
        <mask id="mask-19" maskContentUnits="userSpaceOnUse" maskUnits="objectBoundingBox" x="0" y="0" width="1" height="16" fill="white">
            <use xlink:href="#path-18"></use>
        </mask>
    </defs>
    <g id="Page-1" stroke="none" stroke-width="1" fill="none" fill-rule="evenodd">
        <g id="ONG_size_info_implementing_fiter_filled_my-size_active" transform="translate(-686.000000, -588.000000)">
            <g id="Popup" transform="translate(663.000000, 138.000000)">
                <g id="i-have" transform="translate(17.000000, 62.000000)">
                    <g id="picture-2" transform="translate(6.000000, 388.000000)">
                        <mask id="mask-2" fill="white">
                            <use xlink:href="#path-1"></use>
                        </mask>
                        <use id="Rectangle-9" fill="#F7F7F7" xlink:href="#path-1"></use>
                        <g id="frame-image" mask="url(#mask-2)">
                            <g transform="translate(20.000000, 23.000000)">
                                <g id="Frame-front" opacity="0.699999988" transform="translate(0.493563, 25.602151)">
                                    <path d="M216.348769,42.4977567 C213.724082,54.9516342 210.258216,63.5731789 204.61067,66.9378123 C196.798545,71.5929472 181.588737,73.967502 169.113485,72.3850437 C156.150824,70.7407587 147.780506,65.7336817 142.800031,56.3804405 C137.490069,46.4104435 133.266944,25.3779103 136.813972,18.6457926 C140.191293,12.2357719 155.23819,8.65192911 172.13839,7.61833378 C189.725155,6.54279322 205.976382,8.00226237 212.752406,12.6883199 C216.43361,15.2341094 218.091502,20.1768689 218.179915,26.9184895 C218.242831,31.71595 217.554209,36.7780592 216.348769,42.4977567 Z M93.4085341,56.3804405 L93.4085538,56.3804035 C88.428059,65.7336817 80.0577406,70.7407587 67.0950799,72.3850437 C54.6198279,73.967502 39.4100191,71.5929472 31.5979092,66.9378209 C25.9508689,63.5730863 22.4840749,54.9496993 19.8597961,42.4977567 C18.6543551,36.7780592 17.9657334,31.71595 18.0286498,26.9184895 C18.1170629,20.1768689 19.7749549,15.2341094 23.4561584,12.6883199 C30.2321825,8.00226237 46.48341,6.54279322 64.0701754,7.61833386 C80.9703744,8.65192911 96.0172716,12.2357719 99.3945925,18.6457926 C102.94162,25.3779103 98.7184953,46.4104435 93.4085341,56.3804405 Z M235.002091,6.09054595 C235.119784,6.12758502 235.237154,6.16481143 235.354198,6.20222528 L235.006472,5.72005273 L235.002091,6.09054069 Z M1.0064374,21.6976501 C0.92926975,21.7045211 0.852627653,21.7124176 0.776560004,21.7212936 C0.604897568,21.7413239 0.479030611,21.7619372 0.405948408,21.776931 L1.0064374,22.2667289 L1.0064374,21.6976501 Z M1.0064374,6.09191682 L1.0064374,5.72596574 L0.658676839,6.20222528 C0.774276796,6.16527301 0.890197631,6.12850355 1.0064374,6.09191682 Z M235.002091,6.09054069 L234.817604,21.6894907 C234.727038,21.6825005 234.631988,21.6771044 234.533578,21.6736256 C233.821418,21.6484503 233.062627,21.7239674 232.307428,21.9345708 C230.12469,22.5432741 228.434978,24.1270055 227.600449,26.9057846 C227.439684,27.4410922 223.93768,42.5014078 222.242128,48.3169528 C219.75216,56.8572462 217.087014,63.2177745 214.095774,66.9950234 C209.837077,72.3731847 203.070524,75.729021 194.189547,77.4325592 C187.347188,78.7450521 179.897225,79.0183702 170.860869,78.6307449 C152.767149,77.8538904 140.594632,69.9470389 135.398006,55.9711428 C134.404748,53.2998566 133.446437,50.5771256 132.372062,47.4068522 C131.786848,45.6799987 129.973912,40.2392419 129.802419,39.7292535 C127.834174,33.8760318 126.638085,30.7345575 125.39702,28.4228996 C124.883817,27.466986 124.380027,26.7036316 123.869874,26.122031 C122.263462,24.2908581 120.597006,23.7654286 118.105293,23.7603901 C115.611558,23.7654286 113.945102,24.2908581 112.33871,26.1220084 C111.828538,26.7036316 111.324747,27.466986 110.811544,28.4228996 C109.57048,30.7345575 108.374391,33.8760318 106.406145,39.7292535 C106.234653,40.2392419 104.421717,45.6799987 103.836503,47.4068522 C102.762128,50.5771256 101.803817,53.2998566 100.810559,55.9711428 C95.6139325,69.9470389 83.4414159,77.8538904 65.3476765,78.6307457 C56.3113399,79.0183702 48.8613768,78.7450521 42.0190179,77.4325592 C33.1380401,75.729021 26.371488,72.3731847 22.1128018,66.9950377 C19.1215502,63.2177745 16.4564041,56.8572462 13.966437,48.3169528 C12.2708845,42.5014078 8.76888092,27.4410922 8.60811606,26.9057846 C7.90675387,24.569382 6.56448904,23.0667046 4.77843425,22.2836453 C3.51585084,21.7300913 2.19844359,21.5915144 1.0064374,21.6976501 L1.0064374,6.09191682 C14.7523861,1.76534799 32.958366,-0.00597399782 52.4064883,0.62077902 C69.4798587,1.17100111 86.0681425,3.59164049 95.8032834,6.79871901 C101.799655,8.77406425 108.571818,9.42233008 118.104282,9.42233008 C127.636746,9.42233008 134.40891,8.77406425 140.405277,6.79872039 C150.144815,3.59019341 166.683916,1.17080485 183.704276,0.620777587 C203.094159,-0.00582282329 221.256291,1.76463322 235.002091,6.09054595 Z M235.1085,22.7300373 C235.111991,22.7284086 235.115632,22.7266285 235.11945,22.7247621 C235.171112,22.743149 235.171112,22.743149 235.166773,22.7414047 C235.154251,22.738451 235.134088,22.7344691 235.1085,22.7300373 Z M235.049281,22.7205256 C235.067448,22.7453115 235.084375,22.7412926 235.1085,22.7300373 C235.092592,22.7272822 235.074588,22.7243532 235.055019,22.7213893 C235.053113,22.7211006 235.0512,22.7208127 235.049281,22.7205256 Z" id="Fill-92" stroke="#333333"></path>
                                    <path d="M215.859516,42.3946455 C214.263512,49.967525 211.022028,62.5361136 204.354722,66.5082882 C196.773704,71.0257101 181.744934,73.4833088 169.176404,71.8890184 C156.607874,70.2947279 148.228854,65.5118567 143.241342,56.1454004 C139.204251,48.5653466 133.266319,26.4517413 137.256328,18.8788617 C141.246338,11.3059822 162.393388,8.71526028 172.168912,8.11740137 C185.12527,7.32503903 204.687489,7.71882877 212.468008,13.099559 C220.248526,18.4802891 217.45552,34.821766 215.859516,42.3946455 Z" id="Path" fill="#CACACA"></path>
                                    <path d="M92.9672222,56.1454004 C87.9797103,65.5118567 79.6006903,70.2947279 67.0321602,71.8890184 C54.4636302,73.4833088 39.4348603,71.0257101 31.8538421,66.5082882 C25.1873342,62.5361136 21.9450525,49.967525 20.3490486,42.3946455 C18.7530448,34.821766 15.9600381,18.4802891 23.7405567,13.099559 C31.5210753,7.71882877 51.0832941,7.32503903 64.0396531,8.11740137 C73.8151764,8.71526028 94.962227,11.3059822 98.9522365,18.8788617 C102.942246,26.4517413 97.0043139,48.5653466 92.9672222,56.1454004 Z" id="Path" fill="#CACACA"></path>
                                    <path d="M106.134254,9.26378843 C107.67792,19.6645167 110.670417,30.5352166 110.670417,30.5352166 C110.670417,30.5352166 118.085173,18.5790203 125.847192,30.5048383 C128.374238,19.4724538 130.074311,9.26378843 130.074311,9.26378843 C130.074311,9.26378843 129.17123,7.16262295 126.866576,7.1789805 C124.561923,7.19533804 108.995714,7.17430691 108.995714,7.17430691 C108.995714,7.17430691 107.191468,7.1789805 106.134254,9.26378843 Z" id="Path-2" stroke="#333333" fill="#CACACA"></path>
                                </g>
                                <g id="lense-width" transform="translate(18.000000, 0.000000)">
                                    <path d="M16.8973521,11 L11.9293521,11 L11.9293521,2.6 L12.9253521,2.6 L12.9253521,10.112 L16.8973521,10.112 L16.8973521,11 Z M21.7093521,10.52 C21.4693509,10.712001 21.1673539,10.8639994 20.8033521,10.976 C20.4393503,11.0880006 20.0533542,11.144 19.6453521,11.144 C19.1893498,11.144 18.7933538,11.0700007 18.4573521,10.922 C18.1213504,10.7739993 17.8453532,10.5620014 17.6293521,10.286 C17.413351,10.0099986 17.2533526,9.68000192 17.1493521,9.296 C17.0453516,8.91199808 16.9933521,8.4800024 16.9933521,8 C16.9933521,6.97599488 17.2213498,6.19600268 17.6773521,5.66 C18.1333544,5.12399732 18.7853479,4.856 19.6333521,4.856 C19.9053535,4.856 20.1773508,4.8859997 20.4493521,4.946 C20.7213535,5.0060003 20.965351,5.11999916 21.1813521,5.288 C21.3973532,5.45600084 21.5733514,5.69399846 21.7093521,6.002 C21.8453528,6.31000154 21.9133521,6.71599748 21.9133521,7.22 C21.9133521,7.48400132 21.8893524,7.7759984 21.8413521,8.096 L17.9893521,8.096 C17.9893521,8.44800176 18.0253518,8.75999864 18.0973521,9.032 C18.1693525,9.30400136 18.2813514,9.53399906 18.4333521,9.722 C18.5853529,9.91000094 18.7833509,10.0539995 19.0273521,10.154 C19.2713533,10.2540005 19.5693504,10.304 19.9213521,10.304 C20.1933535,10.304 20.4653508,10.2560005 20.7373521,10.16 C21.0093535,10.0639995 21.2133514,9.95200064 21.3493521,9.824 L21.7093521,10.52 Z M19.6453521,5.696 C19.1733498,5.696 18.7953535,5.81999876 18.5113521,6.068 C18.2273507,6.31600124 18.0573524,6.739997 18.0013521,7.34 L20.9773521,7.34 C20.9773521,6.73199696 20.8613533,6.30600122 20.6293521,6.062 C20.397351,5.81799878 20.0693542,5.696 19.6453521,5.696 Z M27.2773521,11 L27.2773521,7.58 C27.2773521,6.95599688 27.187353,6.48600158 27.0073521,6.17 C26.8273512,5.85399842 26.4973545,5.696 26.0173521,5.696 C25.59335,5.696 25.2433535,5.80999886 24.9673521,6.038 C24.6913507,6.26600114 24.4973527,6.55199828 24.3853521,6.896 L24.3853521,11 L23.4253521,11 L23.4253521,5 L24.0973521,5 L24.2773521,5.732 L24.3253521,5.732 C24.5173531,5.47599872 24.7753505,5.26600082 25.0993521,5.102 C25.4233537,4.93799918 25.8093499,4.856 26.2573521,4.856 C26.5853538,4.856 26.8733509,4.89399962 27.1213521,4.97 C27.3693534,5.04600038 27.5753513,5.17999904 27.7393521,5.372 C27.9033529,5.56400096 28.0273517,5.82199838 28.1113521,6.146 C28.1953525,6.47000162 28.2373521,6.87999752 28.2373521,7.376 L28.2373521,11 L27.2773521,11 Z M32.6293521,9.368 C32.6293521,9.1279988 32.5573528,8.94000068 32.4133521,8.804 C32.2693514,8.66799932 32.0913532,8.55400046 31.8793521,8.462 C31.6673511,8.36999954 31.4353534,8.28200042 31.1833521,8.198 C30.9313509,8.11399958 30.6993532,8.00600066 30.4873521,7.874 C30.2753511,7.74199934 30.0973528,7.57200104 29.9533521,7.364 C29.8093514,7.15599896 29.7373521,6.87600176 29.7373521,6.524 C29.7373521,5.94799712 29.9013505,5.52600134 30.2293521,5.258 C30.5573538,4.98999866 31.0133492,4.856 31.5973521,4.856 C32.0293543,4.856 32.3913507,4.89399962 32.6833521,4.97 C32.9753536,5.04600038 33.229351,5.13599948 33.4453521,5.24 L33.2173521,6.032 C33.0333512,5.94399956 32.8113534,5.86600034 32.5513521,5.798 C32.2913508,5.72999966 32.0133536,5.696 31.7173521,5.696 C31.3653504,5.696 31.1073529,5.7559994 30.9433521,5.876 C30.7793513,5.9960006 30.6973521,6.20399852 30.6973521,6.5 C30.6973521,6.70800104 30.7693514,6.86999942 30.9133521,6.986 C31.0573528,7.10200058 31.2353511,7.20599954 31.4473521,7.298 C31.6593532,7.39000046 31.8913509,7.47999956 32.1433521,7.568 C32.3953534,7.65600044 32.6273511,7.77199928 32.8393521,7.916 C33.0513532,8.06000072 33.2293514,8.2419989 33.3733521,8.462 C33.5173528,8.6820011 33.5893521,8.9719982 33.5893521,9.332 C33.5893521,9.58800128 33.5473525,9.82799888 33.4633521,10.052 C33.3793517,10.2760011 33.249353,10.4679992 33.0733521,10.628 C32.8973512,10.7880008 32.6793534,10.9139995 32.4193521,11.006 C32.1593508,11.0980005 31.8533539,11.144 31.5013521,11.144 C31.0453498,11.144 30.6573537,11.1000004 30.3373521,11.012 C30.0173505,10.9239996 29.7493532,10.8200006 29.5333521,10.7 L29.8213521,9.884 C30.005353,9.98800052 30.2453506,10.0839996 30.5413521,10.172 C30.8373536,10.2600004 31.1373506,10.304 31.4413521,10.304 C31.7853538,10.304 32.069351,10.2360007 32.2933521,10.1 C32.5173532,9.96399932 32.6293521,9.72000176 32.6293521,9.368 Z M39.4213521,10.52 C39.1813509,10.712001 38.8793539,10.8639994 38.5153521,10.976 C38.1513503,11.0880006 37.7653542,11.144 37.3573521,11.144 C36.9013498,11.144 36.5053538,11.0700007 36.1693521,10.922 C35.8333504,10.7739993 35.5573532,10.5620014 35.3413521,10.286 C35.125351,10.0099986 34.9653526,9.68000192 34.8613521,9.296 C34.7573516,8.91199808 34.7053521,8.4800024 34.7053521,8 C34.7053521,6.97599488 34.9333498,6.19600268 35.3893521,5.66 C35.8453544,5.12399732 36.4973479,4.856 37.3453521,4.856 C37.6173535,4.856 37.8893508,4.8859997 38.1613521,4.946 C38.4333535,5.0060003 38.677351,5.11999916 38.8933521,5.288 C39.1093532,5.45600084 39.2853514,5.69399846 39.4213521,6.002 C39.5573528,6.31000154 39.6253521,6.71599748 39.6253521,7.22 C39.6253521,7.48400132 39.6013524,7.7759984 39.5533521,8.096 L35.7013521,8.096 C35.7013521,8.44800176 35.7373518,8.75999864 35.8093521,9.032 C35.8813525,9.30400136 35.9933514,9.53399906 36.1453521,9.722 C36.2973529,9.91000094 36.4953509,10.0539995 36.7393521,10.154 C36.9833533,10.2540005 37.2813504,10.304 37.6333521,10.304 C37.9053535,10.304 38.1773508,10.2560005 38.4493521,10.16 C38.7213535,10.0639995 38.9253514,9.95200064 39.0613521,9.824 L39.4213521,10.52 Z M37.3573521,5.696 C36.8853498,5.696 36.5073535,5.81999876 36.2233521,6.068 C35.9393507,6.31600124 35.7693524,6.739997 35.7133521,7.34 L38.6893521,7.34 C38.6893521,6.73199696 38.5733533,6.30600122 38.3413521,6.062 C38.109351,5.81799878 37.7813542,5.696 37.3573521,5.696 Z M48.2293521,5 L49.6093521,8.504 L49.9093521,9.656 L49.9333521,9.656 L50.1613521,8.48 L51.2293521,5 L52.1413521,5 L50.1253521,11.132 L49.6573521,11.132 L48.0853521,7.172 L47.8573521,6.188 L47.8213521,6.188 L47.5813521,7.184 L46.0693521,11.132 L45.6013521,11.132 L43.5133521,5 L44.5573521,5 L45.7453521,8.492 L45.9493521,9.656 L45.9613521,9.656 L46.2493521,8.468 L47.5333521,5 L48.2293521,5 Z M53.3653521,5 L54.3253521,5 L54.3253521,11 L53.3653521,11 L53.3653521,5 Z M53.1613521,3.176 C53.1613521,2.99199908 53.2233515,2.83400066 53.3473521,2.702 C53.4713527,2.56999934 53.6293512,2.504 53.8213521,2.504 C54.0133531,2.504 54.1773514,2.56999934 54.3133521,2.702 C54.4493528,2.83400066 54.5173521,2.99199908 54.5173521,3.176 C54.5173521,3.36000092 54.4493528,3.5119994 54.3133521,3.632 C54.1773514,3.7520006 54.0133531,3.812 53.8213521,3.812 C53.6293512,3.812 53.4713527,3.7520006 53.3473521,3.632 C53.2233515,3.5119994 53.1613521,3.36000092 53.1613521,3.176 Z M60.9853521,8.936 C60.9853521,9.34400204 60.9893521,9.71399834 60.9973521,10.046 C61.0053522,10.3780017 61.0413518,10.7039984 61.1053521,11.024 L60.4573521,11.024 L60.2173521,10.172 L60.1693521,10.172 C60.0093513,10.4520014 59.7773536,10.6839991 59.4733521,10.868 C59.1693506,11.0520009 58.8133542,11.144 58.4053521,11.144 C57.6053481,11.144 57.0113541,10.8920025 56.6233521,10.388 C56.2353502,9.88399748 56.0413521,9.09600536 56.0413521,8.024 C56.0413521,6.99999488 56.2833497,6.22200266 56.7673521,5.69 C57.2513545,5.15799734 57.9173479,4.892 58.7653521,4.892 C59.0613536,4.892 59.2953513,4.90799984 59.4673521,4.94 C59.639353,4.97200016 59.8253511,5.02399964 60.0253521,5.096 L60.0253521,2.6 L60.9853521,2.6 L60.9853521,8.936 Z M58.5613521,10.304 C58.9693542,10.304 59.2933509,10.1980011 59.5333521,9.986 C59.7733533,9.77399894 59.9373517,9.45200216 60.0253521,9.02 L60.0253521,6.044 C59.8813514,5.93199944 59.717353,5.85200024 59.5333521,5.804 C59.3493512,5.75599976 59.1053536,5.732 58.8013521,5.732 C58.2493494,5.732 57.8173537,5.91399818 57.5053521,6.278 C57.1933506,6.64200182 57.0373521,7.223996 57.0373521,8.024 C57.0373521,8.35200164 57.0633519,8.6559986 57.1153521,8.936 C57.1673524,9.2160014 57.2533515,9.455999 57.3733521,9.656 C57.4933527,9.856001 57.6513511,10.0139994 57.8473521,10.13 C58.0433531,10.2460006 58.2813507,10.304 58.5613521,10.304 Z M62.0413521,5 L62.9773521,5 L62.9773521,3.812 L63.9373521,3.536 L63.9373521,5 L65.5693521,5 L65.5693521,5.84 L63.9373521,5.84 L63.9373521,9.164 C63.9373521,9.58000208 63.9893516,9.87399914 64.0933521,10.046 C64.1973526,10.2180009 64.3733509,10.304 64.6213521,10.304 C64.8293532,10.304 65.0053514,10.2820002 65.1493521,10.238 C65.2933528,10.1939998 65.4533512,10.1360004 65.6293521,10.064 L65.8453521,10.796 C65.629351,10.9000005 65.3933534,10.9839997 65.1373521,11.048 C64.8813508,11.1120003 64.6053536,11.144 64.3093521,11.144 C63.8213497,11.144 63.4773531,11.0060014 63.2773521,10.73 C63.0773511,10.4539986 62.9773521,9.99200324 62.9773521,9.344 L62.9773521,5.84 L62.0413521,5.84 L62.0413521,5 Z M70.7533521,11 L70.7533521,7.58 C70.7533521,7.26799844 70.7353523,6.99400118 70.6993521,6.758 C70.6633519,6.52199882 70.5973526,6.32600078 70.5013521,6.17 C70.4053516,6.01399922 70.2753529,5.8960004 70.1113521,5.816 C69.9473513,5.7359996 69.7333534,5.696 69.4693521,5.696 C69.0933502,5.696 68.7533536,5.81799878 68.4493521,6.062 C68.1453506,6.30600122 67.9493526,6.61999808 67.8613521,7.004 L67.8613521,11 L66.9013521,11 L66.9013521,2.6 L67.8613521,2.6 L67.8613521,5.672 L67.9093521,5.672 C68.1173532,5.42399876 68.3673507,5.22600074 68.6593521,5.078 C68.9513536,4.92999926 69.31335,4.856 69.7453521,4.856 C70.0813538,4.856 70.3733509,4.89399962 70.6213521,4.97 C70.8693534,5.04600038 71.0753513,5.17999904 71.2393521,5.372 C71.4033529,5.56400096 71.5233517,5.82199838 71.5993521,6.146 C71.6753525,6.47000162 71.7133521,6.87999752 71.7133521,7.376 L71.7133521,11 L70.7533521,11 Z" id="Lense-width" fill="#333333"></path>
                                    <use id="Rectangle-6" stroke="#9E9E9E" mask="url(#mask-4)" stroke-width="2" fill="#F7F7F7" stroke-dasharray="1,1,1,1" xlink:href="#path-3"></use>
                                    <use id="Rectangle-6" stroke="#9E9E9E" mask="url(#mask-6)" stroke-width="2" fill="#F7F7F7" stroke-dasharray="1,1,1,1" xlink:href="#path-5"></use>
                                    <path d="M80,22 L4,22 L4,21 L80,21 L80,20 L83,21.5 L80,23 L80,22 Z M1,21.5 L4,20 L4,23 L1,21.5 Z" id="Combined-Shape" fill="#333333"></path>
                                </g>
                                <g id="bridge" transform="translate(95.000000, 0.000000)">
                                    <use id="Rectangle-6" stroke="#9E9E9E" mask="url(#mask-8)" stroke-width="2" fill="#F7F7F7" stroke-dasharray="1,1,1,1" xlink:href="#path-7"></use>
                                    <use id="Rectangle-6" stroke="#9E9E9E" mask="url(#mask-10)" stroke-width="2" fill="#F7F7F7" stroke-dasharray="1,1,1,1" xlink:href="#path-9"></use>
                                    <path d="M14.036,4.52 C14.036,4.720001 14.0040003,4.92399896 13.94,5.132 C13.8759997,5.34000104 13.7800006,5.5339991 13.652,5.714 C13.5239994,5.8940009 13.360001,6.05199932 13.16,6.188 C12.959999,6.32400068 12.7240014,6.42799964 12.452,6.5 L12.452,6.548 C12.6920012,6.5880002 12.9219989,6.65599952 13.142,6.752 C13.3620011,6.84800048 13.5559992,6.97999916 13.724,7.148 C13.8920008,7.31600084 14.0279995,7.5199988 14.132,7.76 C14.2360005,8.0000012 14.288,8.28399836 14.288,8.612 C14.288,9.04400216 14.1980009,9.41799842 14.018,9.734 C13.8379991,10.0500016 13.6020015,10.307999 13.31,10.508 C13.0179985,10.708001 12.6840019,10.8559995 12.308,10.952 C11.9319981,11.0480005 11.548002,11.096 11.156,11.096 L10.676,11.096 C10.4919991,11.096 10.300001,11.0900001 10.1,11.078 C9.899999,11.0659999 9.700001,11.0500001 9.5,11.03 C9.299999,11.0099999 9.12400076,10.9800002 8.972,10.94 L8.972,2.672 C9.26800148,2.62399976 9.61199804,2.58400016 10.004,2.552 C10.396002,2.51999984 10.8239977,2.504 11.288,2.504 C11.6000016,2.504 11.9179984,2.52999974 12.242,2.582 C12.5660016,2.63400026 12.8599987,2.73399926 13.124,2.882 C13.3880013,3.03000074 13.6059991,3.23599868 13.778,3.5 C13.9500009,3.76400132 14.036,4.10399792 14.036,4.52 Z M11.252,10.232 C11.5080013,10.232 11.7559988,10.2020003 11.996,10.142 C12.2360012,10.0819997 12.4479991,9.98600066 12.632,9.854 C12.8160009,9.72199934 12.9619995,9.56000096 13.07,9.368 C13.1780005,9.17599904 13.232,8.94800132 13.232,8.684 C13.232,8.35599836 13.1660007,8.092001 13.034,7.892 C12.9019993,7.691999 12.7300011,7.53600056 12.518,7.424 C12.3059989,7.31199944 12.0680013,7.2360002 11.804,7.196 C11.5399987,7.1559998 11.2760013,7.136 11.012,7.136 L9.968,7.136 L9.968,10.148 C10.0240003,10.1640001 10.1039995,10.176 10.208,10.184 C10.3120005,10.192 10.4239994,10.2 10.544,10.208 C10.6640006,10.216 10.7879994,10.222 10.916,10.226 C11.0440006,10.23 11.1559995,10.232 11.252,10.232 Z M10.592,6.296 C10.7280007,6.296 10.891999,6.29200004 11.084,6.284 C11.276001,6.27599996 11.4359994,6.26400008 11.564,6.248 C11.756001,6.18399968 11.9359992,6.10600046 12.104,6.014 C12.2720008,5.92199954 12.4219993,5.81400062 12.554,5.69 C12.6860007,5.56599938 12.7899996,5.42200082 12.866,5.258 C12.9420004,5.09399918 12.98,4.91600096 12.98,4.724 C12.98,4.45999868 12.9300005,4.24200086 12.83,4.07 C12.7299995,3.89799914 12.5960008,3.76000052 12.428,3.656 C12.2599992,3.55199948 12.0680011,3.47800022 11.852,3.434 C11.6359989,3.38999978 11.4160011,3.368 11.192,3.368 C10.9279987,3.368 10.6860011,3.37399994 10.466,3.386 C10.2459989,3.39800006 10.0800006,3.41599988 9.968,3.44 L9.968,6.296 L10.592,6.296 Z M18.716,5.924 C18.4759988,5.8439996 18.2480011,5.804 18.032,5.804 C17.6879983,5.804 17.416001,5.89799906 17.216,6.086 C17.015999,6.27400094 16.8920002,6.51199856 16.844,6.8 L16.844,11 L15.884,11 L15.884,5 L16.556,5 L16.736,5.732 L16.784,5.732 C16.9360008,5.45999864 17.1179989,5.25000074 17.33,5.102 C17.5420011,4.95399926 17.8119984,4.88 18.14,4.88 C18.3720012,4.88 18.6319986,4.9199996 18.92,5 L18.716,5.924 Z M20.168,5 L21.128,5 L21.128,11 L20.168,11 L20.168,5 Z M19.964,3.176 C19.964,2.99199908 20.0259994,2.83400066 20.15,2.702 C20.2740006,2.56999934 20.431999,2.504 20.624,2.504 C20.816001,2.504 20.9799993,2.56999934 21.116,2.702 C21.2520007,2.83400066 21.32,2.99199908 21.32,3.176 C21.32,3.36000092 21.2520007,3.5119994 21.116,3.632 C20.9799993,3.7520006 20.816001,3.812 20.624,3.812 C20.431999,3.812 20.2740006,3.7520006 20.15,3.632 C20.0259994,3.5119994 19.964,3.36000092 19.964,3.176 Z M27.788,8.936 C27.788,9.34400204 27.792,9.71399834 27.8,10.046 C27.808,10.3780017 27.8439997,10.7039984 27.908,11.024 L27.26,11.024 L27.02,10.172 L26.972,10.172 C26.8119992,10.4520014 26.5800015,10.6839991 26.276,10.868 C25.9719985,11.0520009 25.616002,11.144 25.208,11.144 C24.407996,11.144 23.8140019,10.8920025 23.426,10.388 C23.0379981,9.88399748 22.844,9.09600536 22.844,8.024 C22.844,6.99999488 23.0859976,6.22200266 23.57,5.69 C24.0540024,5.15799734 24.7199958,4.892 25.568,4.892 C25.8640015,4.892 26.0979991,4.90799984 26.27,4.94 C26.4420009,4.97200016 26.627999,5.02399964 26.828,5.096 L26.828,2.6 L27.788,2.6 L27.788,8.936 Z M25.364,10.304 C25.772002,10.304 26.0959988,10.1980011 26.336,9.986 C26.5760012,9.77399894 26.7399996,9.45200216 26.828,9.02 L26.828,6.044 C26.6839993,5.93199944 26.5200009,5.85200024 26.336,5.804 C26.1519991,5.75599976 25.9080015,5.732 25.604,5.732 C25.0519972,5.732 24.6200016,5.91399818 24.308,6.278 C23.9959984,6.64200182 23.84,7.223996 23.84,8.024 C23.84,8.35200164 23.8659997,8.6559986 23.918,8.936 C23.9700003,9.2160014 24.0559994,9.455999 24.176,9.656 C24.2960006,9.856001 24.453999,10.0139994 24.65,10.13 C24.846001,10.2460006 25.0839986,10.304 25.364,10.304 Z M34.232,11.276 C34.232,12.0520039 34.0260021,12.6239982 33.614,12.992 C33.2019979,13.3600018 32.592004,13.544 31.784,13.544 C31.3039976,13.544 30.9180015,13.5140003 30.626,13.454 C30.3339985,13.3939997 30.084001,13.3160005 29.876,13.22 L30.128,12.404 C30.3120009,12.4760004 30.5159989,12.5439997 30.74,12.608 C30.9640011,12.6720003 31.2559982,12.704 31.616,12.704 C31.9520017,12.704 32.2259989,12.6740003 32.438,12.614 C32.6500011,12.5539997 32.8199994,12.4540007 32.948,12.314 C33.0760006,12.1739993 33.1639998,11.9940011 33.212,11.774 C33.2600002,11.5539989 33.284,11.2920015 33.284,10.988 L33.284,10.412 L33.236,10.412 C33.0759992,10.6440012 32.8720012,10.8219994 32.624,10.946 C32.3759988,11.0700006 32.052002,11.132 31.652,11.132 C30.843996,11.132 30.2500019,10.8800025 29.87,10.376 C29.4899981,9.87199748 29.3,9.08800532 29.3,8.024 C29.3,6.99999488 29.5439976,6.22200266 30.032,5.69 C30.5200024,5.15799734 31.2399952,4.892 32.192,4.892 C32.6480023,4.892 33.0379984,4.92799964 33.362,5 C33.6860016,5.07200036 33.9759987,5.15599952 34.232,5.252 L34.232,11.276 Z M31.82,10.292 C32.228002,10.292 32.5479988,10.190001 32.78,9.986 C33.0120012,9.78199898 33.1759995,9.46400216 33.272,9.032 L33.272,5.96 C32.9519984,5.80799924 32.5440025,5.732 32.048,5.732 C31.5039973,5.732 31.0760016,5.91599816 30.764,6.284 C30.4519984,6.65200184 30.296,7.22799608 30.296,8.012 C30.296,8.34800168 30.3239997,8.6559986 30.38,8.936 C30.4360003,9.2160014 30.5239994,9.455999 30.644,9.656 C30.7640006,9.856001 30.919999,10.0119994 31.112,10.124 C31.304001,10.2360006 31.5399986,10.292 31.82,10.292 Z M40.46,10.52 C40.2199988,10.712001 39.9180018,10.8639994 39.554,10.976 C39.1899982,11.0880006 38.804002,11.144 38.396,11.144 C37.9399977,11.144 37.5440017,11.0700007 37.208,10.922 C36.8719983,10.7739993 36.5960011,10.5620014 36.38,10.286 C36.1639989,10.0099986 36.0040005,9.68000192 35.9,9.296 C35.7959995,8.91199808 35.744,8.4800024 35.744,8 C35.744,6.97599488 35.9719977,6.19600268 36.428,5.66 C36.8840023,5.12399732 37.5359958,4.856 38.384,4.856 C38.6560014,4.856 38.9279986,4.8859997 39.2,4.946 C39.4720014,5.0060003 39.7159989,5.11999916 39.932,5.288 C40.1480011,5.45600084 40.3239993,5.69399846 40.46,6.002 C40.5960007,6.31000154 40.664,6.71599748 40.664,7.22 C40.664,7.48400132 40.6400002,7.7759984 40.592,8.096 L36.74,8.096 C36.74,8.44800176 36.7759996,8.75999864 36.848,9.032 C36.9200004,9.30400136 37.0319992,9.53399906 37.184,9.722 C37.3360008,9.91000094 37.5339988,10.0539995 37.778,10.154 C38.0220012,10.2540005 38.3199982,10.304 38.672,10.304 C38.9440014,10.304 39.2159986,10.2560005 39.488,10.16 C39.7600014,10.0639995 39.9639993,9.95200064 40.1,9.824 L40.46,10.52 Z M38.396,5.696 C37.9239976,5.696 37.5460014,5.81999876 37.262,6.068 C36.9779986,6.31600124 36.8080003,6.739997 36.752,7.34 L39.728,7.34 C39.728,6.73199696 39.6120012,6.30600122 39.38,6.062 C39.1479988,5.81799878 38.8200021,5.696 38.396,5.696 Z" id="Bridge" fill="#333333"></path>
                                    <path d="M32,22 L15,22 L15,21 L32,21 L32,20 L35,21.5 L32,23 L32,22 Z M12,21.5 L15,20 L15,23 L12,21.5 Z" id="Combined-Shape" fill="#333333"></path>
                                </g>
                                <g id="lense-width-2" transform="translate(136.000000, 0.000000)">
                                    <use id="Rectangle-6" stroke="#9E9E9E" mask="url(#mask-12)" stroke-width="2" fill="#F7F7F7" stroke-dasharray="1,1,1,1" xlink:href="#path-11"></use>
                                    <use id="Rectangle-6" stroke="#9E9E9E" mask="url(#mask-14)" stroke-width="2" fill="#F7F7F7" stroke-dasharray="1,1,1,1" xlink:href="#path-13"></use>
                                    <path d="M17.172,11 L12.204,11 L12.204,2.6 L13.2,2.6 L13.2,10.112 L17.172,10.112 L17.172,11 Z M21.984,10.52 C21.7439988,10.712001 21.4420018,10.8639994 21.078,10.976 C20.7139982,11.0880006 20.328002,11.144 19.92,11.144 C19.4639977,11.144 19.0680017,11.0700007 18.732,10.922 C18.3959983,10.7739993 18.1200011,10.5620014 17.904,10.286 C17.6879989,10.0099986 17.5280005,9.68000192 17.424,9.296 C17.3199995,8.91199808 17.268,8.4800024 17.268,8 C17.268,6.97599488 17.4959977,6.19600268 17.952,5.66 C18.4080023,5.12399732 19.0599958,4.856 19.908,4.856 C20.1800014,4.856 20.4519986,4.8859997 20.724,4.946 C20.9960014,5.0060003 21.2399989,5.11999916 21.456,5.288 C21.6720011,5.45600084 21.8479993,5.69399846 21.984,6.002 C22.1200007,6.31000154 22.188,6.71599748 22.188,7.22 C22.188,7.48400132 22.1640002,7.7759984 22.116,8.096 L18.264,8.096 C18.264,8.44800176 18.2999996,8.75999864 18.372,9.032 C18.4440004,9.30400136 18.5559992,9.53399906 18.708,9.722 C18.8600008,9.91000094 19.0579988,10.0539995 19.302,10.154 C19.5460012,10.2540005 19.8439982,10.304 20.196,10.304 C20.4680014,10.304 20.7399986,10.2560005 21.012,10.16 C21.2840014,10.0639995 21.4879993,9.95200064 21.624,9.824 L21.984,10.52 Z M19.92,5.696 C19.4479976,5.696 19.0700014,5.81999876 18.786,6.068 C18.5019986,6.31600124 18.3320003,6.739997 18.276,7.34 L21.252,7.34 C21.252,6.73199696 21.1360012,6.30600122 20.904,6.062 C20.6719988,5.81799878 20.3440021,5.696 19.92,5.696 Z M27.552,11 L27.552,7.58 C27.552,6.95599688 27.4620009,6.48600158 27.282,6.17 C27.1019991,5.85399842 26.7720024,5.696 26.292,5.696 C25.8679979,5.696 25.5180014,5.80999886 25.242,6.038 C24.9659986,6.26600114 24.7720006,6.55199828 24.66,6.896 L24.66,11 L23.7,11 L23.7,5 L24.372,5 L24.552,5.732 L24.6,5.732 C24.792001,5.47599872 25.0499984,5.26600082 25.374,5.102 C25.6980016,4.93799918 26.0839978,4.856 26.532,4.856 C26.8600016,4.856 27.1479988,4.89399962 27.396,4.97 C27.6440012,5.04600038 27.8499992,5.17999904 28.014,5.372 C28.1780008,5.56400096 28.3019996,5.82199838 28.386,6.146 C28.4700004,6.47000162 28.512,6.87999752 28.512,7.376 L28.512,11 L27.552,11 Z M32.904,9.368 C32.904,9.1279988 32.8320007,8.94000068 32.688,8.804 C32.5439993,8.66799932 32.3660011,8.55400046 32.154,8.462 C31.9419989,8.36999954 31.7100013,8.28200042 31.458,8.198 C31.2059987,8.11399958 30.9740011,8.00600066 30.762,7.874 C30.5499989,7.74199934 30.3720007,7.57200104 30.228,7.364 C30.0839993,7.15599896 30.012,6.87600176 30.012,6.524 C30.012,5.94799712 30.1759984,5.52600134 30.504,5.258 C30.8320016,4.98999866 31.2879971,4.856 31.872,4.856 C32.3040022,4.856 32.6659985,4.89399962 32.958,4.97 C33.2500015,5.04600038 33.5039989,5.13599948 33.72,5.24 L33.492,6.032 C33.3079991,5.94399956 33.0860013,5.86600034 32.826,5.798 C32.5659987,5.72999966 32.2880015,5.696 31.992,5.696 C31.6399982,5.696 31.3820008,5.7559994 31.218,5.876 C31.0539992,5.9960006 30.972,6.20399852 30.972,6.5 C30.972,6.70800104 31.0439993,6.86999942 31.188,6.986 C31.3320007,7.10200058 31.5099989,7.20599954 31.722,7.298 C31.9340011,7.39000046 32.1659987,7.47999956 32.418,7.568 C32.6700013,7.65600044 32.9019989,7.77199928 33.114,7.916 C33.3260011,8.06000072 33.5039993,8.2419989 33.648,8.462 C33.7920007,8.6820011 33.864,8.9719982 33.864,9.332 C33.864,9.58800128 33.8220004,9.82799888 33.738,10.052 C33.6539996,10.2760011 33.5240009,10.4679992 33.348,10.628 C33.1719991,10.7880008 32.9540013,10.9139995 32.694,11.006 C32.4339987,11.0980005 32.1280018,11.144 31.776,11.144 C31.3199977,11.144 30.9320016,11.1000004 30.612,11.012 C30.2919984,10.9239996 30.0240011,10.8200006 29.808,10.7 L30.096,9.884 C30.2800009,9.98800052 30.5199985,10.0839996 30.816,10.172 C31.1120015,10.2600004 31.4119985,10.304 31.716,10.304 C32.0600017,10.304 32.3439989,10.2360007 32.568,10.1 C32.7920011,9.96399932 32.904,9.72000176 32.904,9.368 Z M39.696,10.52 C39.4559988,10.712001 39.1540018,10.8639994 38.79,10.976 C38.4259982,11.0880006 38.040002,11.144 37.632,11.144 C37.1759977,11.144 36.7800017,11.0700007 36.444,10.922 C36.1079983,10.7739993 35.8320011,10.5620014 35.616,10.286 C35.3999989,10.0099986 35.2400005,9.68000192 35.136,9.296 C35.0319995,8.91199808 34.98,8.4800024 34.98,8 C34.98,6.97599488 35.2079977,6.19600268 35.664,5.66 C36.1200023,5.12399732 36.7719958,4.856 37.62,4.856 C37.8920014,4.856 38.1639986,4.8859997 38.436,4.946 C38.7080014,5.0060003 38.9519989,5.11999916 39.168,5.288 C39.3840011,5.45600084 39.5599993,5.69399846 39.696,6.002 C39.8320007,6.31000154 39.9,6.71599748 39.9,7.22 C39.9,7.48400132 39.8760002,7.7759984 39.828,8.096 L35.976,8.096 C35.976,8.44800176 36.0119996,8.75999864 36.084,9.032 C36.1560004,9.30400136 36.2679992,9.53399906 36.42,9.722 C36.5720008,9.91000094 36.7699988,10.0539995 37.014,10.154 C37.2580012,10.2540005 37.5559982,10.304 37.908,10.304 C38.1800014,10.304 38.4519986,10.2560005 38.724,10.16 C38.9960014,10.0639995 39.1999993,9.95200064 39.336,9.824 L39.696,10.52 Z M37.632,5.696 C37.1599976,5.696 36.7820014,5.81999876 36.498,6.068 C36.2139986,6.31600124 36.0440003,6.739997 35.988,7.34 L38.964,7.34 C38.964,6.73199696 38.8480012,6.30600122 38.616,6.062 C38.3839988,5.81799878 38.0560021,5.696 37.632,5.696 Z M48.504,5 L49.884,8.504 L50.184,9.656 L50.208,9.656 L50.436,8.48 L51.504,5 L52.416,5 L50.4,11.132 L49.932,11.132 L48.36,7.172 L48.132,6.188 L48.096,6.188 L47.856,7.184 L46.344,11.132 L45.876,11.132 L43.788,5 L44.832,5 L46.02,8.492 L46.224,9.656 L46.236,9.656 L46.524,8.468 L47.808,5 L48.504,5 Z M53.64,5 L54.6,5 L54.6,11 L53.64,11 L53.64,5 Z M53.436,3.176 C53.436,2.99199908 53.4979994,2.83400066 53.622,2.702 C53.7460006,2.56999934 53.903999,2.504 54.096,2.504 C54.288001,2.504 54.4519993,2.56999934 54.588,2.702 C54.7240007,2.83400066 54.792,2.99199908 54.792,3.176 C54.792,3.36000092 54.7240007,3.5119994 54.588,3.632 C54.4519993,3.7520006 54.288001,3.812 54.096,3.812 C53.903999,3.812 53.7460006,3.7520006 53.622,3.632 C53.4979994,3.5119994 53.436,3.36000092 53.436,3.176 Z M61.26,8.936 C61.26,9.34400204 61.264,9.71399834 61.272,10.046 C61.28,10.3780017 61.3159997,10.7039984 61.38,11.024 L60.732,11.024 L60.492,10.172 L60.444,10.172 C60.2839992,10.4520014 60.0520015,10.6839991 59.748,10.868 C59.4439985,11.0520009 59.088002,11.144 58.68,11.144 C57.879996,11.144 57.2860019,10.8920025 56.898,10.388 C56.5099981,9.88399748 56.316,9.09600536 56.316,8.024 C56.316,6.99999488 56.5579976,6.22200266 57.042,5.69 C57.5260024,5.15799734 58.1919958,4.892 59.04,4.892 C59.3360015,4.892 59.5699991,4.90799984 59.742,4.94 C59.9140009,4.97200016 60.099999,5.02399964 60.3,5.096 L60.3,2.6 L61.26,2.6 L61.26,8.936 Z M58.836,10.304 C59.244002,10.304 59.5679988,10.1980011 59.808,9.986 C60.0480012,9.77399894 60.2119996,9.45200216 60.3,9.02 L60.3,6.044 C60.1559993,5.93199944 59.9920009,5.85200024 59.808,5.804 C59.6239991,5.75599976 59.3800015,5.732 59.076,5.732 C58.5239972,5.732 58.0920016,5.91399818 57.78,6.278 C57.4679984,6.64200182 57.312,7.223996 57.312,8.024 C57.312,8.35200164 57.3379997,8.6559986 57.39,8.936 C57.4420003,9.2160014 57.5279994,9.455999 57.648,9.656 C57.7680006,9.856001 57.925999,10.0139994 58.122,10.13 C58.318001,10.2460006 58.5559986,10.304 58.836,10.304 Z M62.316,5 L63.252,5 L63.252,3.812 L64.212,3.536 L64.212,5 L65.844,5 L65.844,5.84 L64.212,5.84 L64.212,9.164 C64.212,9.58000208 64.2639995,9.87399914 64.368,10.046 C64.4720005,10.2180009 64.6479988,10.304 64.896,10.304 C65.104001,10.304 65.2799993,10.2820002 65.424,10.238 C65.5680007,10.1939998 65.7279991,10.1360004 65.904,10.064 L66.12,10.796 C65.9039989,10.9000005 65.6680013,10.9839997 65.412,11.048 C65.1559987,11.1120003 64.8800015,11.144 64.584,11.144 C64.0959976,11.144 63.752001,11.0060014 63.552,10.73 C63.351999,10.4539986 63.252,9.99200324 63.252,9.344 L63.252,5.84 L62.316,5.84 L62.316,5 Z M71.028,11 L71.028,7.58 C71.028,7.26799844 71.0100002,6.99400118 70.974,6.758 C70.9379998,6.52199882 70.8720005,6.32600078 70.776,6.17 C70.6799995,6.01399922 70.5500008,5.8960004 70.386,5.816 C70.2219992,5.7359996 70.0080013,5.696 69.744,5.696 C69.3679981,5.696 69.0280015,5.81799878 68.724,6.062 C68.4199985,6.30600122 68.2240004,6.61999808 68.136,7.004 L68.136,11 L67.176,11 L67.176,2.6 L68.136,2.6 L68.136,5.672 L68.184,5.672 C68.392001,5.42399876 68.6419985,5.22600074 68.934,5.078 C69.2260015,4.92999926 69.5879978,4.856 70.02,4.856 C70.3560017,4.856 70.6479988,4.89399962 70.896,4.97 C71.1440012,5.04600038 71.3499992,5.17999904 71.514,5.372 C71.6780008,5.56400096 71.7979996,5.82199838 71.874,6.146 C71.9500004,6.47000162 71.988,6.87999752 71.988,7.376 L71.988,11 L71.028,11 Z" id="Lense-width" fill="#333333"></path>
                                    <path d="M79,22 L4,22 L4,21 L79,21 L79,20 L82,21.5 L79,23 L79,22 Z M1,21.5 L4,20 L4,23 L1,21.5 Z" id="Combined-Shape" fill="#333333"></path>
                                </g>
                            </g>
                        </g>
                        <g id="temple-image" mask="url(#mask-2)">
                            <g transform="translate(281.000000, 26.000000)">
                                <path d="M84.546,3.488 L81.93,3.488 L81.93,11 L80.934,11 L80.934,3.488 L78.318,3.488 L78.318,2.6 L84.546,2.6 L84.546,3.488 Z M88.53,10.52 C88.2899988,10.712001 87.9880018,10.8639994 87.624,10.976 C87.2599982,11.0880006 86.874002,11.144 86.466,11.144 C86.0099977,11.144 85.6140017,11.0700007 85.278,10.922 C84.9419983,10.7739993 84.6660011,10.5620014 84.45,10.286 C84.2339989,10.0099986 84.0740005,9.68000192 83.97,9.296 C83.8659995,8.91199808 83.814,8.4800024 83.814,8 C83.814,6.97599488 84.0419977,6.19600268 84.498,5.66 C84.9540023,5.12399732 85.6059958,4.856 86.454,4.856 C86.7260014,4.856 86.9979986,4.8859997 87.27,4.946 C87.5420014,5.0060003 87.7859989,5.11999916 88.002,5.288 C88.2180011,5.45600084 88.3939993,5.69399846 88.53,6.002 C88.6660007,6.31000154 88.734,6.71599748 88.734,7.22 C88.734,7.48400132 88.7100002,7.7759984 88.662,8.096 L84.81,8.096 C84.81,8.44800176 84.8459996,8.75999864 84.918,9.032 C84.9900004,9.30400136 85.1019992,9.53399906 85.254,9.722 C85.4060008,9.91000094 85.6039988,10.0539995 85.848,10.154 C86.0920012,10.2540005 86.3899982,10.304 86.742,10.304 C87.0140014,10.304 87.2859986,10.2560005 87.558,10.16 C87.8300014,10.0639995 88.0339993,9.95200064 88.17,9.824 L88.53,10.52 Z M86.466,5.696 C85.9939976,5.696 85.6160014,5.81999876 85.332,6.068 C85.0479986,6.31600124 84.8780003,6.739997 84.822,7.34 L87.798,7.34 C87.798,6.73199696 87.6820012,6.30600122 87.45,6.062 C87.2179988,5.81799878 86.8900021,5.696 86.466,5.696 Z M93.762,11 L93.762,7.604 C93.762,7.2839984 93.7480001,7.00600118 93.72,6.77 C93.6919999,6.53399882 93.6380004,6.3360008 93.558,6.176 C93.4779996,6.0159992 93.3640007,5.8960004 93.216,5.816 C93.0679993,5.7359996 92.8740012,5.696 92.634,5.696 C92.2659982,5.696 91.9600012,5.80799888 91.716,6.032 C91.4719988,6.25600112 91.3020005,6.53599832 91.206,6.872 L91.206,11 L90.246,11 L90.246,5 L90.918,5 L91.098,5.732 L91.146,5.732 C91.3620011,5.47599872 91.6119986,5.26600082 91.896,5.102 C92.1800014,4.93799918 92.5499977,4.856 93.006,4.856 C93.3900019,4.856 93.7039988,4.92999926 93.948,5.078 C94.1920012,5.22600074 94.3819993,5.48399816 94.518,5.852 C94.7020009,5.53999844 94.9559984,5.29600088 95.28,5.12 C95.6040016,4.94399912 95.969998,4.856 96.378,4.856 C96.7140017,4.856 96.9979988,4.89399962 97.23,4.97 C97.4620012,5.04600038 97.6539992,5.17999904 97.806,5.372 C97.9580008,5.56400096 98.0679997,5.82399836 98.136,6.152 C98.2040003,6.48000164 98.238,6.89599748 98.238,7.4 L98.238,11 L97.278,11 L97.278,7.388 C97.278,7.09999856 97.2640001,6.85000106 97.236,6.638 C97.2079999,6.42599894 97.1520004,6.2500007 97.068,6.11 C96.9839996,5.9699993 96.8680007,5.86600034 96.72,5.798 C96.5719993,5.72999966 96.3780012,5.696 96.138,5.696 C95.737998,5.696 95.4260011,5.80799888 95.202,6.032 C94.9779989,6.25600112 94.8180005,6.57599792 94.722,6.992 L94.722,11 L93.762,11 Z M99.99,5 L100.65,5 L100.83,5.72 L100.878,5.72 C101.062001,5.4399986 101.299999,5.22600074 101.592,5.078 C101.884001,4.92999926 102.217998,4.856 102.594,4.856 C103.394004,4.856 103.989998,5.09199764 104.382,5.564 C104.774002,6.03600236 104.97,6.80799464 104.97,7.88 C104.97,8.38400252 104.904001,8.83799798 104.772,9.242 C104.639999,9.64600202 104.454001,9.9879986 104.214,10.268 C103.973999,10.5480014 103.684002,10.7639992 103.344,10.916 C103.003998,11.0680008 102.626002,11.144 102.21,11.144 C101.913999,11.144 101.680001,11.1260002 101.508,11.09 C101.335999,11.0539998 101.150001,10.9920004 100.95,10.904 L100.95,13.4 L99.99,13.4 L99.99,5 Z M102.414,5.696 C102.005998,5.696 101.684001,5.80199894 101.448,6.014 C101.211999,6.22600106 101.046,6.54799784 100.95,6.98 L100.95,9.956 C101.094001,10.0680006 101.257999,10.1539997 101.442,10.214 C101.626001,10.2740003 101.869998,10.304 102.174,10.304 C102.726003,10.304 103.163998,10.0980021 103.488,9.686 C103.812002,9.27399794 103.974,8.668004 103.974,7.868 C103.974,7.53999836 103.946,7.24200134 103.89,6.974 C103.834,6.70599866 103.744001,6.47800094 103.62,6.29 C103.495999,6.10199906 103.336001,5.95600052 103.14,5.852 C102.943999,5.74799948 102.702001,5.696 102.414,5.696 Z M107.55,9.524 C107.55,9.8040014 107.598,10.0039994 107.694,10.124 C107.79,10.2440006 107.925999,10.304 108.102,10.304 C108.206001,10.304 108.317999,10.2960001 108.438,10.28 C108.558001,10.2639999 108.693999,10.2280003 108.846,10.172 L108.954,10.928 C108.825999,10.9920003 108.648001,11.0439998 108.42,11.084 C108.191999,11.1240002 107.994001,11.144 107.826,11.144 C107.465998,11.144 107.170001,11.042001 106.938,10.838 C106.705999,10.633999 106.59,10.2880024 106.59,9.8 L106.59,2.6 L107.55,2.6 L107.55,9.524 Z M114.366,10.52 C114.125999,10.712001 113.824002,10.8639994 113.46,10.976 C113.095998,11.0880006 112.710002,11.144 112.302,11.144 C111.845998,11.144 111.450002,11.0700007 111.114,10.922 C110.777998,10.7739993 110.502001,10.5620014 110.286,10.286 C110.069999,10.0099986 109.910001,9.68000192 109.806,9.296 C109.701999,8.91199808 109.65,8.4800024 109.65,8 C109.65,6.97599488 109.877998,6.19600268 110.334,5.66 C110.790002,5.12399732 111.441996,4.856 112.29,4.856 C112.562001,4.856 112.833999,4.8859997 113.106,4.946 C113.378001,5.0060003 113.621999,5.11999916 113.838,5.288 C114.054001,5.45600084 114.229999,5.69399846 114.366,6.002 C114.502001,6.31000154 114.57,6.71599748 114.57,7.22 C114.57,7.48400132 114.546,7.7759984 114.498,8.096 L110.646,8.096 C110.646,8.44800176 110.682,8.75999864 110.754,9.032 C110.826,9.30400136 110.937999,9.53399906 111.09,9.722 C111.242001,9.91000094 111.439999,10.0539995 111.684,10.154 C111.928001,10.2540005 112.225998,10.304 112.578,10.304 C112.850001,10.304 113.121999,10.2560005 113.394,10.16 C113.666001,10.0639995 113.869999,9.95200064 114.006,9.824 L114.366,10.52 Z M112.302,5.696 C111.829998,5.696 111.452001,5.81999876 111.168,6.068 C110.883999,6.31600124 110.714,6.739997 110.658,7.34 L113.634,7.34 C113.634,6.73199696 113.518001,6.30600122 113.286,6.062 C113.053999,5.81799878 112.726002,5.696 112.302,5.696 Z M121.926,9.368 C121.926,9.1279988 121.854001,8.94000068 121.71,8.804 C121.565999,8.66799932 121.388001,8.55400046 121.176,8.462 C120.963999,8.36999954 120.732001,8.28200042 120.48,8.198 C120.227999,8.11399958 119.996001,8.00600066 119.784,7.874 C119.571999,7.74199934 119.394001,7.57200104 119.25,7.364 C119.105999,7.15599896 119.034,6.87600176 119.034,6.524 C119.034,5.94799712 119.197998,5.52600134 119.526,5.258 C119.854002,4.98999866 120.309997,4.856 120.894,4.856 C121.326002,4.856 121.687999,4.89399962 121.98,4.97 C122.272001,5.04600038 122.525999,5.13599948 122.742,5.24 L122.514,6.032 C122.329999,5.94399956 122.108001,5.86600034 121.848,5.798 C121.587999,5.72999966 121.310001,5.696 121.014,5.696 C120.661998,5.696 120.404001,5.7559994 120.24,5.876 C120.075999,5.9960006 119.994,6.20399852 119.994,6.5 C119.994,6.70800104 120.065999,6.86999942 120.21,6.986 C120.354001,7.10200058 120.531999,7.20599954 120.744,7.298 C120.956001,7.39000046 121.187999,7.47999956 121.44,7.568 C121.692001,7.65600044 121.923999,7.77199928 122.136,7.916 C122.348001,8.06000072 122.525999,8.2419989 122.67,8.462 C122.814001,8.6820011 122.886,8.9719982 122.886,9.332 C122.886,9.58800128 122.844,9.82799888 122.76,10.052 C122.676,10.2760011 122.546001,10.4679992 122.37,10.628 C122.193999,10.7880008 121.976001,10.9139995 121.716,11.006 C121.455999,11.0980005 121.150002,11.144 120.798,11.144 C120.341998,11.144 119.954002,11.1000004 119.634,11.012 C119.313998,10.9239996 119.046001,10.8200006 118.83,10.7 L119.118,9.884 C119.302001,9.98800052 119.541999,10.0839996 119.838,10.172 C120.134001,10.2600004 120.433998,10.304 120.738,10.304 C121.082002,10.304 121.365999,10.2360007 121.59,10.1 C121.814001,9.96399932 121.926,9.72000176 121.926,9.368 Z M124.542,5 L125.502,5 L125.502,11 L124.542,11 L124.542,5 Z M124.338,3.176 C124.338,2.99199908 124.399999,2.83400066 124.524,2.702 C124.648001,2.56999934 124.805999,2.504 124.998,2.504 C125.190001,2.504 125.353999,2.56999934 125.49,2.702 C125.626001,2.83400066 125.694,2.99199908 125.694,3.176 C125.694,3.36000092 125.626001,3.5119994 125.49,3.632 C125.353999,3.7520006 125.190001,3.812 124.998,3.812 C124.805999,3.812 124.648001,3.7520006 124.524,3.632 C124.399999,3.5119994 124.338,3.36000092 124.338,3.176 Z M127.134,10.16 L129.906,6.344 L130.41,5.84 L127.134,5.84 L127.134,5 L131.406,5 L131.406,5.84 L128.61,9.692 L128.118,10.16 L131.406,10.16 L131.406,11 L127.134,11 L127.134,10.16 Z M137.106,10.52 C136.865999,10.712001 136.564002,10.8639994 136.2,10.976 C135.835998,11.0880006 135.450002,11.144 135.042,11.144 C134.585998,11.144 134.190002,11.0700007 133.854,10.922 C133.517998,10.7739993 133.242001,10.5620014 133.026,10.286 C132.809999,10.0099986 132.650001,9.68000192 132.546,9.296 C132.441999,8.91199808 132.39,8.4800024 132.39,8 C132.39,6.97599488 132.617998,6.19600268 133.074,5.66 C133.530002,5.12399732 134.181996,4.856 135.03,4.856 C135.302001,4.856 135.573999,4.8859997 135.846,4.946 C136.118001,5.0060003 136.361999,5.11999916 136.578,5.288 C136.794001,5.45600084 136.969999,5.69399846 137.106,6.002 C137.242001,6.31000154 137.31,6.71599748 137.31,7.22 C137.31,7.48400132 137.286,7.7759984 137.238,8.096 L133.386,8.096 C133.386,8.44800176 133.422,8.75999864 133.494,9.032 C133.566,9.30400136 133.677999,9.53399906 133.83,9.722 C133.982001,9.91000094 134.179999,10.0539995 134.424,10.154 C134.668001,10.2540005 134.965998,10.304 135.318,10.304 C135.590001,10.304 135.861999,10.2560005 136.134,10.16 C136.406001,10.0639995 136.609999,9.95200064 136.746,9.824 L137.106,10.52 Z M135.042,5.696 C134.569998,5.696 134.192001,5.81999876 133.908,6.068 C133.623999,6.31600124 133.454,6.739997 133.398,7.34 L136.374,7.34 C136.374,6.73199696 136.258001,6.30600122 136.026,6.062 C135.793999,5.81799878 135.466002,5.696 135.042,5.696 Z" id="Temple-size" fill="#333333"></path>
                                <g id="Frame-side" opacity="0.699999988" stroke-width="1" fill="none" transform="translate(0.000000, 24.000000)">
                                    <g id="Group-4">
                                        <g id="Path-3">
                                            <use fill="#D7D7D7" fill-rule="evenodd" xlink:href="#path-15"></use>
                                            <path stroke="#333333" stroke-width="1" d="M30.0802253,7.14173194 L30.0802253,18.0656551 L127.183378,17.8178 L155.507115,15.0162445 C155.667029,14.9891296 155.969489,14.9423571 156.401943,14.8825042 C157.120045,14.7831168 157.942978,14.6838176 158.858202,14.591189 C165.470836,13.9219338 172.555344,13.9579504 179.21329,15.1774238 C182.320661,15.7465715 185.206554,16.5608725 187.827431,17.6446005 C192.448301,19.5553223 199.372027,24.0059765 208.006625,30.3971174 C209.565211,31.5507488 211.166944,32.7586595 212.8058,34.0149238 C217.751537,37.8060787 222.817793,41.8673334 227.729397,45.9285125 C229.448407,47.349882 231.025366,48.6697712 232.425838,49.8543836 C232.916111,50.269089 233.34934,50.6372946 233.72122,50.9547752 C233.869971,51.0817669 233.987677,51.1824991 234.073064,51.2557227 C234.151655,51.2692726 234.253868,51.2862293 234.377952,51.3058233 C234.732002,51.3617309 235.132206,51.4177217 235.569923,51.4700174 C237.380367,51.6863181 239.234038,51.7739311 240.956612,51.659434 C243.357487,51.4998511 245.231658,50.9587042 246.371003,49.9842633 C247.220401,49.2578028 246.983194,48.216831 245.681923,46.7786257 C244.923703,45.9406182 243.852506,45.0397753 242.551012,44.1108291 C241.57175,43.4118778 240.520521,42.7379616 239.46908,42.114855 C239.100973,41.8967063 238.759309,41.7005959 238.452993,41.5296678 C238.270013,41.4275626 238.140084,41.3568591 238.051572,41.3091375 C237.950032,41.2488143 237.754178,41.1315942 237.470295,40.9603479 C236.997711,40.6752719 236.449671,40.3419143 235.83246,39.9631453 C234.069568,38.8812977 232.105438,37.6522715 229.990328,36.2990175 C223.946843,32.4323771 217.903174,28.3445716 212.260932,24.218734 C211.645771,23.7689031 211.038089,23.3205184 210.438223,22.8737325 C208.602331,21.5063437 206.657113,20.2250056 204.616215,19.0271144 C199.460917,16.0012471 193.933585,13.6310928 188.405943,11.8435558 C186.471352,11.2179449 184.675447,10.7100028 183.06467,10.3104044 C182.501776,10.1707627 182.002529,10.0546886 181.572731,9.96101126 C181.316285,9.9051171 181.140868,9.86927004 181.103817,9.8594152 C181.035939,9.85361709 180.901489,9.84230073 180.703377,9.82588186 C180.372931,9.79849562 179.983251,9.76672141 179.536649,9.73092485 C178.260337,9.6286242 176.784101,9.51462143 175.126453,9.39184167 C170.38986,9.04100864 165.149692,8.69016349 159.554058,8.36270599 C147.585819,7.66232256 135.677122,7.16626763 124.39639,6.96424613 C114.943726,6.79496265 100.956096,6.74410859 83.6349278,6.78940956 C73.2694397,6.81651897 62.192302,6.87682205 50.9397715,6.96034194 C45.4422806,7.00114608 40.2602654,7.0448648 35.55037,7.08858335 C33.9019243,7.10388468 32.430247,7.11809295 31.1549182,7.13084383 C30.4993369,7.13743752 30.4522529,7.13791108 30.0802253,7.14173194 Z"></path>
                                        </g>
                                        <path d="M0.469575546,9.26009512 C0.469575546,9.26009512 0.696930226,3.06163894 1.71294475,2.29803417 C2.3205725,1.84136014 4.17087803,1.72985349 5.83919989,1.9825252 C6.96047945,2.15234592 7.99955358,2.48667284 8.52389463,2.99127768 C9.82838869,4.24667059 20.0593493,6.59229261 22.064543,6.69227966 C24.0697368,6.7922667 30.4923201,6.8996602 30.4923201,6.8996602 C30.4923201,6.8996602 13.5092982,0.932285192 11.9409237,0.790081394 C10.3725491,0.647877596 6.29708496,1.65962268 6.29708496,1.65962268" id="Path-4" stroke="#333333"></path>
                                        <path d="M21.420495,7 L21.420495,18" id="Path-5" stroke="#333333"></path>
                                        <path d="M0.370621201,10.7555966 C0.995631915,6.806585 8.82125308,2.42730741 11.7234944,23.0058796 C14.6257357,43.5844518 17.5377174,72.5937382 11.8273923,72.2739622 C6.11706711,71.9541863 4.44577223,66.8038977 0.370621201,10.7555966 Z" id="Path-6" stroke="#333333"></path>
                                        <path d="M30.5452266,18.4030083 L21.6370585,17.9916168 C21.6370585,17.9916168 16.6593673,20.5892342 16.4594197,25.8379909 C16.2594721,31.0867475 17.0693056,69.8251298 17.0693056,69.8251298 C17.0693056,69.8251298 13,85.8251298 7,69.8251298" id="Path-7" stroke="#333333"></path>
                                        <path d="M29.9896644,18.5359054 C29.9896644,18.5359054 24.6928788,21.3594026 24.2865925,26.46483 C23.8803063,31.5702573 24.1277301,68.558298 24.1277301,68.558298 C24.1277301,68.558298 26,77 13,77" id="Path-8" stroke="#333333"></path>
                                        <path d="M3,44 C3,44 8.3685588,73.6632886 13.7385449,72.6903844" id="Path-9" stroke="#333333"></path>
                                    </g>
                                </g>
                            </g>
                        </g>
                        <g id="arrow" mask="url(#mask-2)">
                            <g transform="translate(311.000000, 42.000000)">
                                <use id="Rectangle-6" stroke="#9E9E9E" mask="url(#mask-17)" stroke-width="2" fill="#F7F7F7" stroke-dasharray="1,1,1,1" xlink:href="#path-16"></use>
                                <use id="Rectangle-6" stroke="#9E9E9E" mask="url(#mask-19)" stroke-width="2" fill="#F7F7F7" stroke-dasharray="1,1,1,1" xlink:href="#path-18"></use>
                                <path d="M151,3 L4,3 L4,2 L151,2 L151,1 L154,2.5 L151,4 L151,3 Z M1,2.5 L4,1 L4,4 L1,2.5 Z" id="Combined-Shape" stroke="none" fill="#333333"></path>
                            </g>
                        </g>
                    </g>
                </g>
            </g>
        </g>
    </g>
</svg>