<?xml version="1.0" encoding="UTF-8"?>
<svg width="560px" height="128px" viewBox="0 0 560 128" version="1.1" xmlns="http://www.w3.org/2000/svg" xmlns:xlink="http://www.w3.org/1999/xlink">
    <!-- Generator: Sketch 45.2 (43514) - http://www.bohemiancoding.com/sketch -->
    <title>picture 1</title>
    <desc>Created with Sketch.</desc>
    <defs>
        <rect id="path-1" x="0" y="0" width="560" height="128"></rect>
        <path d="M345,56 L345,38 L344,38 L344,56.5 L344,57 L420,57 L420,59 L421,59 L421,56.5 L421,56 L345,56 Z" id="path-3"></path>
        <path d="M207,56 L207,38 L206,38 L206,56.5 L206,57 L287,57 L287,60 L288,60 L288,56.5 L288,56 L207,56 Z" id="path-4"></path>
        <path d="M8.94697964,8.00272523 L37.6282486,7.94771539 L54.7904171,8.82055848 C54.7904171,8.82055848 59.6716517,9.75221063 63.7405102,12.7710835 C67.8093687,15.7899563 72.0794849,18.3170128 72.0794849,18.3170128 C72.0794849,18.3170128 75.7116728,20.2421122 74.6168748,21.1748549 C73.5220768,22.1075975 70.7316457,21.5845201 70.7316457,21.5845201 C70.7316457,21.5845201 61.166182,13.7160865 57,12 C52.833818,10.2839135 48,11 48,11 L39,11 L8.94697964,12 L8.94697964,8.00272523 Z" id="path-5"></path>
        <rect id="path-6" x="8" y="0" width="1" height="11"></rect>
        <mask id="mask-7" maskContentUnits="userSpaceOnUse" maskUnits="objectBoundingBox" x="0" y="0" width="1" height="11" fill="white">
            <use xlink:href="#path-6"></use>
        </mask>
        <rect id="path-8" x="56" y="0" width="1" height="8"></rect>
        <mask id="mask-9" maskContentUnits="userSpaceOnUse" maskUnits="objectBoundingBox" x="0" y="0" width="1" height="8" fill="white">
            <use xlink:href="#path-8"></use>
        </mask>
        <rect id="path-10" x="8" y="0" width="1" height="11"></rect>
        <mask id="mask-11" maskContentUnits="userSpaceOnUse" maskUnits="objectBoundingBox" x="0" y="0" width="1" height="11" fill="white">
            <use xlink:href="#path-10"></use>
        </mask>
        <rect id="path-12" x="8" y="0" width="1" height="11"></rect>
        <mask id="mask-13" maskContentUnits="userSpaceOnUse" maskUnits="objectBoundingBox" x="0" y="0" width="1" height="11" fill="white">
            <use xlink:href="#path-12"></use>
        </mask>
        <path d="M58.5091119,11.6424047 C58.0796009,13.7534269 57.207264,17.2570572 55.4129818,18.3643439 C53.3728045,19.6236242 49.328314,20.3087065 45.9459148,19.8642808 C42.5635156,19.419855 40.3085828,18.0865778 38.9663609,15.4755767 C37.8799128,13.3625545 36.2819171,7.19814741 37.3556946,5.08712518 C38.4294722,2.97610295 44.120493,2.25391114 46.751248,2.08725149 C50.2380184,1.8663719 55.5025348,1.97614506 57.596401,3.4760819 C59.6902672,4.97601875 58.9386229,9.5313825 58.5091119,11.6424047 Z M25.0336391,15.4755767 C23.6914172,18.0865778 21.4364844,19.419855 18.0540852,19.8642808 C14.671686,20.3087065 10.6271955,19.6236242 8.58701822,18.3643439 C6.79295073,17.2570572 5.92039911,13.7534269 5.4908881,11.6424047 C5.06137709,9.5313825 4.30973282,4.97601875 6.403599,3.4760819 C8.49746517,1.97614506 13.7619816,1.8663719 17.248752,2.08725149 C19.879507,2.25391114 25.5705278,2.97610295 26.6443054,5.08712518 C27.7180829,7.19814741 26.1200872,13.3625545 25.0336391,15.4755767 Z M32.5,2.47558822 C30.5785473,2.47558822 28.3206757,2.39048769 26.40625,1.75460733 C21.245777,0.0404950544 8.2347973,-1.06538383 0,1.5887255 L0.247043919,6.17812289 C0.247043919,6.17812289 1.74314189,5.84635922 2.23701014,7.50517755 C2.73109797,9.16399588 3.87869932,16.0027509 5.97714527,18.6745543 C8.58263514,21.992191 14.1939358,22.1195882 17.9883108,21.9554758 C23.0973986,21.7343 26.4427027,19.4486695 27.8700676,15.5780934 C29.2974324,11.7075173 30.1029054,8.38988066 31.0168581,7.33929572 C31.5100676,6.7724222 32.0660811,6.73216821 32.5,6.73128351 C32.9339189,6.73216821 33.4899324,6.7724222 33.9831419,7.33929572 C34.8970946,8.38988066 35.7025676,11.7075173 37.1299324,15.5780934 C38.5572973,19.4486695 41.9026014,21.7343 47.0116892,21.9554758 C50.8060642,22.1195882 56.4173649,21.992191 59.0228547,18.6745543 C61.1213007,16.0027509 62.268902,9.16399588 62.7629899,7.50517755 C63.2570777,5.84635922 64.7529561,6.17812289 64.7529561,6.17812289 L65,1.5887255 C56.7652027,-1.06538383 43.754223,0.0404950544 38.59375,1.75460733 C36.6793243,2.39048769 34.4214527,2.47558822 32.5,2.47558822 Z" id="path-14"></path>
        <rect id="path-15" x="29" y="0" width="1" height="11"></rect>
        <mask id="mask-16" maskContentUnits="userSpaceOnUse" maskUnits="objectBoundingBox" x="0" y="0" width="1" height="11" fill="white">
            <use xlink:href="#path-15"></use>
        </mask>
        <rect id="path-17" x="36" y="0" width="1" height="11"></rect>
        <mask id="mask-18" maskContentUnits="userSpaceOnUse" maskUnits="objectBoundingBox" x="0" y="0" width="1" height="11" fill="white">
            <use xlink:href="#path-17"></use>
        </mask>
        <path d="M30,9.4472175 C30.3868829,11.6733141 31.1368804,14 31.1368804,14 C31.1368804,14 32.9952107,11.4409823 34.9405742,13.993498 C35.5739176,11.6322063 36,9.4472175 36,9.4472175 C36,9.4472175 35.7736644,8.99749925 35.1960585,9.0010003 C34.6184526,9.00450135 30.7171561,9 30.7171561,9 C30.7171561,9 30.2649652,9.0010003 30,9.4472175 Z" id="path-19"></path>
        <path d="M32.5,2.47558822 C30.5785473,2.47558822 28.3206757,2.39048769 26.40625,1.75460733 C21.245777,0.0404950544 8.2347973,-1.06538383 0,1.5887255 L0.247043919,6.17812289 C0.247043919,6.17812289 1.74314189,5.84635922 2.23701014,7.50517755 C2.73109797,9.16399588 3.87869932,16.0027509 5.97714527,18.6745543 C8.58263514,21.992191 14.1939358,22.1195882 17.9883108,21.9554758 C23.0973986,21.7343 26.4427027,19.4486695 27.8700676,15.5780934 C29.2974324,11.7075173 30.1029054,8.38988066 31.0168581,7.33929572 C31.5100676,6.7724222 32.0660811,6.73216821 32.5,6.73128351 C32.9339189,6.73216821 33.4899324,6.7724222 33.9831419,7.33929572 C34.8970946,8.38988066 35.7025676,11.7075173 37.1299324,15.5780934 C38.5572973,19.4486695 41.9026014,21.7343 47.0116892,21.9554758 C50.8060642,22.1195882 56.4173649,21.992191 59.0228547,18.6745543 C61.1213007,16.0027509 62.268902,9.16399588 62.7629899,7.50517755 C63.2570777,5.84635922 64.7529561,6.17812289 64.7529561,6.17812289 L65,1.5887255 C56.7652027,-1.06538383 43.754223,0.0404950544 38.59375,1.75460733 C36.6793243,2.39048769 34.4214527,2.47558822 32.5,2.47558822 Z" id="path-20"></path>
        <path d="M58.5537381,11.5710264 C58.1632735,13.4474906 57.37024,16.5618286 55.7390743,17.5460835 C53.8843677,18.6654438 50.2075582,19.2744058 47.1326499,18.8793607 C44.0577415,18.4843156 42.0078026,17.2991803 40.7876008,14.9782904 C39.7999207,13.1000485 38.3471974,7.62057547 39.3233588,5.74411127 C40.2995201,3.86764707 45.4731755,3.22569879 47.8647709,3.07755688 C51.0345622,2.88121947 55.8204862,2.97879561 57.7240009,4.3120728 C59.6275156,5.64535 58.9442026,9.69456222 58.5537381,11.5710264 Z" id="path-21"></path>
        <path d="M24.2123992,14.9782904 C22.9921974,17.2991803 20.9422585,18.4843156 17.8673501,18.8793607 C14.7924418,19.2744058 11.1156323,18.6654438 9.26092565,17.5460835 C7.62995521,16.5618286 6.83672646,13.4474906 6.44626191,11.5710264 C6.05579735,9.69456222 5.37248438,5.64535 7.27599909,4.3120728 C9.17951379,2.97879561 13.9654378,2.88121947 17.1352291,3.07755688 C19.5268245,3.22569879 24.7004799,3.86764707 25.6766412,5.74411127 C26.6528026,7.62057547 25.2000793,13.1000485 24.2123992,14.9782904 Z" id="path-22"></path>
        <path d="M30,2.4472175 C30.3868829,4.67331409 31.1368804,7 31.1368804,7 C31.1368804,7 32.9952107,4.44098229 34.9405742,6.99349805 C35.5739176,4.63220633 36,2.4472175 36,2.4472175 C36,2.4472175 35.7736644,1.99749925 35.1960585,2.0010003 C34.6184526,2.00450135 30.7171561,2 30.7171561,2 C30.7171561,2 30.2649652,2.0010003 30,2.4472175 Z" id="path-23"></path>
        <rect id="path-24" x="0" y="0" width="1" height="11"></rect>
        <mask id="mask-25" maskContentUnits="userSpaceOnUse" maskUnits="objectBoundingBox" x="0" y="0" width="1" height="11" fill="white">
            <use xlink:href="#path-24"></use>
        </mask>
        <rect id="path-26" x="21" y="0" width="1" height="11"></rect>
        <mask id="mask-27" maskContentUnits="userSpaceOnUse" maskUnits="objectBoundingBox" x="0" y="0" width="1" height="11" fill="white">
            <use xlink:href="#path-26"></use>
        </mask>
        <rect id="path-28" x="0" y="0" width="1" height="11"></rect>
        <mask id="mask-29" maskContentUnits="userSpaceOnUse" maskUnits="objectBoundingBox" x="0" y="0" width="1" height="11" fill="white">
            <use xlink:href="#path-28"></use>
        </mask>
        <rect id="path-30" x="21" y="0" width="1" height="11"></rect>
        <mask id="mask-31" maskContentUnits="userSpaceOnUse" maskUnits="objectBoundingBox" x="0" y="0" width="1" height="11" fill="white">
            <use xlink:href="#path-30"></use>
        </mask>
    </defs>
    <g id="Page-1" stroke="none" stroke-width="1" fill="none" fill-rule="evenodd">
        <g id="ONG_size_info_implementing_fiter_filled_my-size_active-Copy" transform="translate(-685.000000, -311.000000)">
            <g id="Popup" transform="translate(663.000000, 138.000000)">
                <g id="i-have" transform="translate(17.000000, 62.000000)">
                    <g id="picture-1" transform="translate(5.000000, 111.000000)">
                        <mask id="mask-2" fill="white">
                            <use xlink:href="#path-1"></use>
                        </mask>
                        <use id="cell" fill="#F7F7F7" xlink:href="#path-1"></use>
                        <g id="Combined-Shape" mask="url(#mask-2)">
                            <use fill="#D8D8D8" fill-rule="evenodd" xlink:href="#path-3"></use>
                            <path stroke="#979797" stroke-width="1" d="M344.5,56.5 L421,56.5 L421,56 L420.5,56 L420.5,59 L421,58.5 L420,58.5 L420.5,59 L420.5,56.5 L344,56.5 L344.5,57 L344.5,38 L344,38.5 L345,38.5 L344.5,38 L344.5,56.5 Z"></path>
                        </g>
                        <g id="Combined-Shape" mask="url(#mask-2)" transform="translate(247.000000, 49.000000) scale(-1, 1) translate(-247.000000, -49.000000) ">
                            <use fill="#D8D8D8" fill-rule="evenodd" xlink:href="#path-4"></use>
                            <path stroke="#979797" stroke-width="1" d="M287.5,56.5 L288,56.5 L288,56 L287.5,56 L287.5,56.5 Z M287.5,56.5 L287.5,60 L288,59.5 L287,59.5 L287.5,60 L287.5,56.5 L206,56.5 L206.5,57 L206.5,38 L206,38.5 L207,38.5 L206.5,38 L206.5,56.5 L287.5,56.5 Z"></path>
                        </g>
                        <rect id="Rectangle-4" stroke="#979797" mask="url(#mask-2)" transform="translate(311.500000, 48.500000) rotate(90.000000) translate(-311.500000, -48.500000) " x="301.5" y="48.5" width="20" height="1"></rect>
                        <path d="M22.5,21.5 L22.5,42.5000076 L199.947938,42.5027178 L252.011024,37.0530845 C252.084283,37.0406628 252.225587,37.0177356 252.432063,36.9858061 C252.774743,36.9328139 253.176842,36.8738273 253.635486,36.8103497 C254.944225,36.6292165 256.444619,36.4481714 258.113694,36.2792467 C270.174791,35.0585603 283.097963,35.1242599 295.233347,37.3469842 C300.89043,38.3831388 306.141849,39.8649107 310.907684,41.8355752 C319.319822,45.3139797 331.964609,53.4422 347.733785,65.1142003 C350.583016,67.2231389 353.511262,69.4314084 356.507474,71.7281544 C365.550385,78.6599973 374.814374,86.0862749 383.795649,93.5124769 C386.939043,96.1116044 389.822637,98.5251261 392.383417,100.691203 C393.279798,101.449422 394.071836,102.122582 394.751654,102.702955 C394.989656,102.906142 395.196648,103.083233 395.371646,103.23326 C395.419733,103.274519 395.454689,103.304512 395.480839,103.326951 C395.636515,103.354598 395.864322,103.393047 396.15759,103.439357 C396.810254,103.542418 397.547498,103.645562 398.353582,103.741868 C401.688875,104.140349 405.104131,104.301769 408.28429,104.090388 C412.757285,103.793075 416.264248,102.780477 418.430999,100.927331 C420.214624,99.401859 419.724416,97.2505992 417.208413,94.4698349 C415.798183,92.9112053 413.817419,91.2454455 411.414367,89.5302592 C409.61247,88.2441496 407.679846,87.0051937 405.747012,85.8597533 C405.070416,85.4587878 404.442299,85.0982571 403.87891,84.7838787 C403.541685,84.5957032 403.301582,84.4650463 403.15431,84.3860613 C403.10762,84.3583229 403.016808,84.3041753 402.882642,84.223876 C402.659324,84.0902184 402.395751,83.9318557 402.093359,83.7494446 C401.229737,83.2284834 400.228093,82.6192105 399.099925,81.9268786 C395.877157,79.9491369 392.286308,77.7022143 388.419346,75.2281202 C377.37057,68.1590797 366.321611,60.685805 356.007764,53.1438997 C354.883403,52.3217211 353.772731,51.5021994 352.676363,50.6856147 C349.305436,48.1749178 345.734392,45.822629 341.988214,43.623835 C332.529211,38.0719372 322.390766,33.7245095 312.252012,30.4458241 C308.703532,29.2983113 305.409015,28.3665117 302.453331,27.6332711 C301.419719,27.3768546 300.50259,27.1636237 299.712549,26.9914289 C299.239957,26.8884243 298.91564,26.8221489 298.818795,26.7987329 L195.046388,21.5 L22.5,21.5 Z" id="Path-3" stroke="#333333" opacity="0.699999988" mask="url(#mask-2)" transform="translate(221.000000, 62.841060) scale(-1, 1) translate(-221.000000, -62.841060) "></path>
                        <rect id="Rectangle-19" fill="#333333" opacity="0.699999988" mask="url(#mask-2)" transform="translate(389.500000, 32.000000) scale(-1, 1) translate(-389.500000, -32.000000) " x="389" y="22" width="1" height="20"></rect>
                        <rect id="Rectangle-10" stroke="#333333" opacity="0.400000006" mask="url(#mask-2)" x="297.5" y="29.5" width="5" height="5"></rect>
                        <g id="images" mask="url(#mask-2)">
                            <g transform="translate(173.000000, 64.000000)">
                                <g id="Group-24" transform="translate(211.000000, 0.000000)">
                                    <path d="M7.426,3.488 L4.81,3.488 L4.81,11 L3.814,11 L3.814,3.488 L1.198,3.488 L1.198,2.6 L7.426,2.6 L7.426,3.488 Z M12.946,10.52 C12.7059988,10.712001 12.4040018,10.8639994 12.04,10.976 C11.6759982,11.0880006 11.290002,11.144 10.882,11.144 C10.4259977,11.144 10.0300017,11.0700007 9.694,10.922 C9.35799832,10.7739993 9.08200108,10.5620014 8.866,10.286 C8.64999892,10.0099986 8.49000052,9.68000192 8.386,9.296 C8.28199948,8.91199808 8.23,8.4800024 8.23,8 C8.23,6.97599488 8.45799772,6.19600268 8.914,5.66 C9.37000228,5.12399732 10.0219958,4.856 10.87,4.856 C11.1420014,4.856 11.4139986,4.8859997 11.686,4.946 C11.9580014,5.0060003 12.2019989,5.11999916 12.418,5.288 C12.6340011,5.45600084 12.8099993,5.69399846 12.946,6.002 C13.0820007,6.31000154 13.15,6.71599748 13.15,7.22 C13.15,7.48400132 13.1260002,7.7759984 13.078,8.096 L9.226,8.096 C9.226,8.44800176 9.26199964,8.75999864 9.334,9.032 C9.40600036,9.30400136 9.51799924,9.53399906 9.67,9.722 C9.82200076,9.91000094 10.0199988,10.0539995 10.264,10.154 C10.5080012,10.2540005 10.8059982,10.304 11.158,10.304 C11.4300014,10.304 11.7019986,10.2560005 11.974,10.16 C12.2460014,10.0639995 12.4499993,9.95200064 12.586,9.824 L12.946,10.52 Z M10.882,5.696 C10.4099976,5.696 10.0320014,5.81999876 9.748,6.068 C9.46399858,6.31600124 9.29400028,6.739997 9.238,7.34 L12.214,7.34 C12.214,6.73199696 12.0980012,6.30600122 11.866,6.062 C11.6339988,5.81799878 11.3060021,5.696 10.882,5.696 Z M18.178,11 L18.178,7.604 C18.178,7.2839984 18.1640001,7.00600118 18.136,6.77 C18.1079999,6.53399882 18.0540004,6.3360008 17.974,6.176 C17.8939996,6.0159992 17.7800007,5.8960004 17.632,5.816 C17.4839993,5.7359996 17.2900012,5.696 17.05,5.696 C16.6819982,5.696 16.3760012,5.80799888 16.132,6.032 C15.8879988,6.25600112 15.7180005,6.53599832 15.622,6.872 L15.622,11 L14.662,11 L14.662,5 L15.334,5 L15.514,5.732 L15.562,5.732 C15.7780011,5.47599872 16.0279986,5.26600082 16.312,5.102 C16.5960014,4.93799918 16.9659977,4.856 17.422,4.856 C17.8060019,4.856 18.1199988,4.92999926 18.364,5.078 C18.6080012,5.22600074 18.7979993,5.48399816 18.934,5.852 C19.1180009,5.53999844 19.3719984,5.29600088 19.696,5.12 C20.0200016,4.94399912 20.385998,4.856 20.794,4.856 C21.1300017,4.856 21.4139988,4.89399962 21.646,4.97 C21.8780012,5.04600038 22.0699992,5.17999904 22.222,5.372 C22.3740008,5.56400096 22.4839997,5.82399836 22.552,6.152 C22.6200003,6.48000164 22.654,6.89599748 22.654,7.4 L22.654,11 L21.694,11 L21.694,7.388 C21.694,7.09999856 21.6800001,6.85000106 21.652,6.638 C21.6239999,6.42599894 21.5680004,6.2500007 21.484,6.11 C21.3999996,5.9699993 21.2840007,5.86600034 21.136,5.798 C20.9879993,5.72999966 20.7940012,5.696 20.554,5.696 C20.153998,5.696 19.8420011,5.80799888 19.618,6.032 C19.3939989,6.25600112 19.2340005,6.57599792 19.138,6.992 L19.138,11 L18.178,11 Z M24.406,5 L25.066,5 L25.246,5.72 L25.294,5.72 C25.4780009,5.4399986 25.7159985,5.22600074 26.008,5.078 C26.3000015,4.92999926 26.6339981,4.856 27.01,4.856 C27.810004,4.856 28.405998,5.09199764 28.798,5.564 C29.190002,6.03600236 29.386,6.80799464 29.386,7.88 C29.386,8.38400252 29.3200007,8.83799798 29.188,9.242 C29.0559993,9.64600202 28.8700012,9.9879986 28.63,10.268 C28.3899988,10.5480014 28.1000017,10.7639992 27.76,10.916 C27.4199983,11.0680008 27.0420021,11.144 26.626,11.144 C26.3299985,11.144 26.0960009,11.1260002 25.924,11.09 C25.7519991,11.0539998 25.566001,10.9920004 25.366,10.904 L25.366,13.4 L24.406,13.4 L24.406,5 Z M26.83,5.696 C26.421998,5.696 26.1000012,5.80199894 25.864,6.014 C25.6279988,6.22600106 25.4620005,6.54799784 25.366,6.98 L25.366,9.956 C25.5100007,10.0680006 25.6739991,10.1539997 25.858,10.214 C26.0420009,10.2740003 26.2859985,10.304 26.59,10.304 C27.1420028,10.304 27.5799984,10.0980021 27.904,9.686 C28.2280016,9.27399794 28.39,8.668004 28.39,7.868 C28.39,7.53999836 28.3620003,7.24200134 28.306,6.974 C28.2499997,6.70599866 28.1600006,6.47800094 28.036,6.29 C27.9119994,6.10199906 27.752001,5.95600052 27.556,5.852 C27.359999,5.74799948 27.1180014,5.696 26.83,5.696 Z M31.966,9.524 C31.966,9.8040014 32.0139995,10.0039994 32.11,10.124 C32.2060005,10.2440006 32.3419991,10.304 32.518,10.304 C32.6220005,10.304 32.7339994,10.2960001 32.854,10.28 C32.9740006,10.2639999 33.1099992,10.2280003 33.262,10.172 L33.37,10.928 C33.2419994,10.9920003 33.0640011,11.0439998 32.836,11.084 C32.6079989,11.1240002 32.4100008,11.144 32.242,11.144 C31.8819982,11.144 31.5860012,11.042001 31.354,10.838 C31.1219988,10.633999 31.006,10.2880024 31.006,9.8 L31.006,2.6 L31.966,2.6 L31.966,9.524 Z M38.782,10.52 C38.5419988,10.712001 38.2400018,10.8639994 37.876,10.976 C37.5119982,11.0880006 37.126002,11.144 36.718,11.144 C36.2619977,11.144 35.8660017,11.0700007 35.53,10.922 C35.1939983,10.7739993 34.9180011,10.5620014 34.702,10.286 C34.4859989,10.0099986 34.3260005,9.68000192 34.222,9.296 C34.1179995,8.91199808 34.066,8.4800024 34.066,8 C34.066,6.97599488 34.2939977,6.19600268 34.75,5.66 C35.2060023,5.12399732 35.8579958,4.856 36.706,4.856 C36.9780014,4.856 37.2499986,4.8859997 37.522,4.946 C37.7940014,5.0060003 38.0379989,5.11999916 38.254,5.288 C38.4700011,5.45600084 38.6459993,5.69399846 38.782,6.002 C38.9180007,6.31000154 38.986,6.71599748 38.986,7.22 C38.986,7.48400132 38.9620002,7.7759984 38.914,8.096 L35.062,8.096 C35.062,8.44800176 35.0979996,8.75999864 35.17,9.032 C35.2420004,9.30400136 35.3539992,9.53399906 35.506,9.722 C35.6580008,9.91000094 35.8559988,10.0539995 36.1,10.154 C36.3440012,10.2540005 36.6419982,10.304 36.994,10.304 C37.2660014,10.304 37.5379986,10.2560005 37.81,10.16 C38.0820014,10.0639995 38.2859993,9.95200064 38.422,9.824 L38.782,10.52 Z M36.718,5.696 C36.2459976,5.696 35.8680014,5.81999876 35.584,6.068 C35.2999986,6.31600124 35.1300003,6.739997 35.074,7.34 L38.05,7.34 C38.05,6.73199696 37.9340012,6.30600122 37.702,6.062 C37.4699988,5.81799878 37.1420021,5.696 36.718,5.696 Z M44.77,9.524 C44.77,9.8040014 44.8179995,10.0039994 44.914,10.124 C45.0100005,10.2440006 45.1459991,10.304 45.322,10.304 C45.4260005,10.304 45.5379994,10.2960001 45.658,10.28 C45.7780006,10.2639999 45.9139992,10.2280003 46.066,10.172 L46.174,10.928 C46.0459994,10.9920003 45.8680011,11.0439998 45.64,11.084 C45.4119989,11.1240002 45.2140008,11.144 45.046,11.144 C44.6859982,11.144 44.3900012,11.042001 44.158,10.838 C43.9259988,10.633999 43.81,10.2880024 43.81,9.8 L43.81,2.6 L44.77,2.6 L44.77,9.524 Z M51.586,10.52 C51.3459988,10.712001 51.0440018,10.8639994 50.68,10.976 C50.3159982,11.0880006 49.930002,11.144 49.522,11.144 C49.0659977,11.144 48.6700017,11.0700007 48.334,10.922 C47.9979983,10.7739993 47.7220011,10.5620014 47.506,10.286 C47.2899989,10.0099986 47.1300005,9.68000192 47.026,9.296 C46.9219995,8.91199808 46.87,8.4800024 46.87,8 C46.87,6.97599488 47.0979977,6.19600268 47.554,5.66 C48.0100023,5.12399732 48.6619958,4.856 49.51,4.856 C49.7820014,4.856 50.0539986,4.8859997 50.326,4.946 C50.5980014,5.0060003 50.8419989,5.11999916 51.058,5.288 C51.2740011,5.45600084 51.4499993,5.69399846 51.586,6.002 C51.7220007,6.31000154 51.79,6.71599748 51.79,7.22 C51.79,7.48400132 51.7660002,7.7759984 51.718,8.096 L47.866,8.096 C47.866,8.44800176 47.9019996,8.75999864 47.974,9.032 C48.0460004,9.30400136 48.1579992,9.53399906 48.31,9.722 C48.4620008,9.91000094 48.6599988,10.0539995 48.904,10.154 C49.1480012,10.2540005 49.4459982,10.304 49.798,10.304 C50.0700014,10.304 50.3419986,10.2560005 50.614,10.16 C50.8860014,10.0639995 51.0899993,9.95200064 51.226,9.824 L51.586,10.52 Z M49.522,5.696 C49.0499976,5.696 48.6720014,5.81999876 48.388,6.068 C48.1039986,6.31600124 47.9340003,6.739997 47.878,7.34 L50.854,7.34 C50.854,6.73199696 50.7380012,6.30600122 50.506,6.062 C50.2739988,5.81799878 49.9460021,5.696 49.522,5.696 Z M57.154,11 L57.154,7.58 C57.154,6.95599688 57.0640009,6.48600158 56.884,6.17 C56.7039991,5.85399842 56.3740024,5.696 55.894,5.696 C55.4699979,5.696 55.1200014,5.80999886 54.844,6.038 C54.5679986,6.26600114 54.3740006,6.55199828 54.262,6.896 L54.262,11 L53.302,11 L53.302,5 L53.974,5 L54.154,5.732 L54.202,5.732 C54.394001,5.47599872 54.6519984,5.26600082 54.976,5.102 C55.3000016,4.93799918 55.6859978,4.856 56.134,4.856 C56.4620016,4.856 56.7499988,4.89399962 56.998,4.97 C57.2460012,5.04600038 57.4519992,5.17999904 57.616,5.372 C57.7800008,5.56400096 57.9039996,5.82199838 57.988,6.146 C58.0720004,6.47000162 58.114,6.87999752 58.114,7.376 L58.114,11 L57.154,11 Z M64.462,11.276 C64.462,12.0520039 64.2560021,12.6239982 63.844,12.992 C63.4319979,13.3600018 62.822004,13.544 62.014,13.544 C61.5339976,13.544 61.1480015,13.5140003 60.856,13.454 C60.5639985,13.3939997 60.314001,13.3160005 60.106,13.22 L60.358,12.404 C60.5420009,12.4760004 60.7459989,12.5439997 60.97,12.608 C61.1940011,12.6720003 61.4859982,12.704 61.846,12.704 C62.1820017,12.704 62.4559989,12.6740003 62.668,12.614 C62.8800011,12.5539997 63.0499994,12.4540007 63.178,12.314 C63.3060006,12.1739993 63.3939998,11.9940011 63.442,11.774 C63.4900002,11.5539989 63.514,11.2920015 63.514,10.988 L63.514,10.412 L63.466,10.412 C63.3059992,10.6440012 63.1020012,10.8219994 62.854,10.946 C62.6059988,11.0700006 62.282002,11.132 61.882,11.132 C61.073996,11.132 60.4800019,10.8800025 60.1,10.376 C59.7199981,9.87199748 59.53,9.08800532 59.53,8.024 C59.53,6.99999488 59.7739976,6.22200266 60.262,5.69 C60.7500024,5.15799734 61.4699952,4.892 62.422,4.892 C62.8780023,4.892 63.2679984,4.92799964 63.592,5 C63.9160016,5.07200036 64.2059987,5.15599952 64.462,5.252 L64.462,11.276 Z M62.05,10.292 C62.458002,10.292 62.7779988,10.190001 63.01,9.986 C63.2420012,9.78199898 63.4059995,9.46400216 63.502,9.032 L63.502,5.96 C63.1819984,5.80799924 62.7740025,5.732 62.278,5.732 C61.7339973,5.732 61.3060016,5.91599816 60.994,6.284 C60.6819984,6.65200184 60.526,7.22799608 60.526,8.012 C60.526,8.34800168 60.5539997,8.6559986 60.61,8.936 C60.6660003,9.2160014 60.7539994,9.455999 60.874,9.656 C60.9940006,9.856001 61.149999,10.0119994 61.342,10.124 C61.534001,10.2360006 61.7699986,10.292 62.05,10.292 Z M65.518,5 L66.454,5 L66.454,3.812 L67.414,3.536 L67.414,5 L69.046,5 L69.046,5.84 L67.414,5.84 L67.414,9.164 C67.414,9.58000208 67.4659995,9.87399914 67.57,10.046 C67.6740005,10.2180009 67.8499988,10.304 68.098,10.304 C68.306001,10.304 68.4819993,10.2820002 68.626,10.238 C68.7700007,10.1939998 68.9299991,10.1360004 69.106,10.064 L69.322,10.796 C69.1059989,10.9000005 68.8700013,10.9839997 68.614,11.048 C68.3579987,11.1120003 68.0820015,11.144 67.786,11.144 C67.2979976,11.144 66.954001,11.0060014 66.754,10.73 C66.553999,10.4539986 66.454,9.99200324 66.454,9.344 L66.454,5.84 L65.518,5.84 L65.518,5 Z M74.23,11 L74.23,7.58 C74.23,7.26799844 74.2120002,6.99400118 74.176,6.758 C74.1399998,6.52199882 74.0740005,6.32600078 73.978,6.17 C73.8819995,6.01399922 73.7520008,5.8960004 73.588,5.816 C73.4239992,5.7359996 73.2100013,5.696 72.946,5.696 C72.5699981,5.696 72.2300015,5.81799878 71.926,6.062 C71.6219985,6.30600122 71.4260004,6.61999808 71.338,7.004 L71.338,11 L70.378,11 L70.378,2.6 L71.338,2.6 L71.338,5.672 L71.386,5.672 C71.594001,5.42399876 71.8439985,5.22600074 72.136,5.078 C72.4280015,4.92999926 72.7899978,4.856 73.222,4.856 C73.5580017,4.856 73.8499988,4.89399962 74.098,4.97 C74.3460012,5.04600038 74.5519992,5.17999904 74.716,5.372 C74.8800008,5.56400096 74.9999996,5.82199838 75.076,6.146 C75.1520004,6.47000162 75.19,6.87999752 75.19,7.376 L75.19,11 L74.23,11 Z" id="Temple-length" fill="#333333"></path>
                                    <g id="temple-leight" transform="translate(0.000000, 18.000000)">
                                        <g id="Group-18" stroke-width="1">
                                            <g id="Path-3">
                                                <use fill="#D8D8D8" fill-rule="evenodd" xlink:href="#path-5"></use>
                                                <path stroke-opacity="0.5" stroke="#333333" stroke-width="1" d="M8.94602066,7.50272615 L37.6536451,7.44836079 L54.884157,8.32942424 C55.0048096,8.35245248 55.2237369,8.39998573 55.527003,8.47493022 C56.0283814,8.59883306 56.5860244,8.7559469 57.1860268,8.94923066 C58.9000994,9.50139913 60.614488,10.2337135 62.2181452,11.1713509 C62.8553946,11.5439423 63.4635434,11.942997 64.0384363,12.3695365 C64.218329,12.5030071 64.4005975,12.6369789 64.5851385,12.7714041 C66.2796883,14.0057645 68.0968701,15.2301416 69.914236,16.388428 C70.5504242,16.7938984 71.1410718,17.1620669 71.6709297,17.4859791 C71.9882843,17.6799839 72.2144305,17.8158772 72.3136355,17.8752284 C72.4057449,17.9240474 72.5623323,18.0110893 72.7622751,18.1291243 C73.0950653,18.3255849 73.4280676,18.5382435 73.7407584,18.7605696 C74.1692899,19.0652595 74.526597,19.3645884 74.7924182,19.6572529 C75.3996247,20.3257763 75.5602535,21.0279789 74.9411356,21.555453 C74.4669898,21.9594143 73.7771418,22.1578348 72.9239797,22.2143253 C72.3575355,22.2518314 71.7588388,22.223643 71.1746002,22.1541101 C70.9324647,22.1252924 70.747374,22.0961774 70.6395232,22.0759603 L70.5132368,22.0522874 L70.4140087,21.9706636 C70.3209239,21.8940931 70.1440586,21.7497799 69.8937577,21.5474134 C69.4760833,21.2097264 69.0056383,20.8333433 68.492777,20.4279596 C67.0276026,19.2698339 65.5167049,18.1117789 64.0432375,17.0315442 C63.5592266,16.6767041 63.0862828,16.3355203 62.6262108,16.0096721 C60.1382154,14.2475374 58.1321424,13.0070954 56.8095682,12.4623156 C56.3385648,12.2683052 55.8447382,12.1009467 55.3305417,11.95904 C53.1432562,11.3553982 50.8128064,11.2467143 48.7278922,11.4241056 C48.4120557,11.450978 48.1884011,11.4775467 48,11.5 L39.0166281,11.4997234 L8.44697964,12.516914 L8.44697964,7.5036833 L8.94602066,7.50272615 Z"></path>
                                            </g>
                                            <use id="Rectangle-6" stroke="#9E9E9E" mask="url(#mask-7)" stroke-width="2" fill="#FFFFFF" stroke-dasharray="1,1,1,1" xlink:href="#path-6"></use>
                                            <use id="Rectangle-6" stroke="#9E9E9E" mask="url(#mask-9)" stroke-width="2" fill="#FFFFFF" stroke-dasharray="1,1,1,1" xlink:href="#path-8"></use>
                                            <g id="Frame-side" opacity="0.5" transform="translate(0.000000, 6.000000)" stroke="#333333">
                                                <g id="Group-4">
                                                    <path d="M0.142030117,2.79008654 C0.142030117,2.79008654 0.210796925,0.922478387 0.518105647,0.69240263 C0.701891709,0.554805763 1.26154417,0.521208571 1.76615296,0.597339099 C2.10530066,0.648506447 2.4195841,0.749239866 2.57817886,0.90127839 C2.97274252,1.27953097 6.06724891,1.98627192 6.67374961,2.01639823 C7.28025032,2.04652454 9.2228563,2.07888243 9.2228563,2.07888243 C9.2228563,2.07888243 4.08608842,0.28089953 3.61171018,0.238053221 C3.13733193,0.195206911 1.90464712,0.500047877 1.90464712,0.500047877" id="Path-4"></path>
                                                    <path d="M-0.381706329,3.16222794 C-0.22691102,2.18794299 0.772144778,1.44821528 1.75994237,1.85205676 C2.84101167,2.29403053 3.62764134,3.94188594 4.04100858,6.86163165 C4.56936107,10.5935552 4.93597795,14.0540279 5.03815925,16.6959555 C5.18237614,20.4247254 4.86987227,22.3491787 3.54952205,22.2755239 C1.26923744,22.1483197 0.827822971,19.9152887 -0.386573569,3.27708173 L-0.381706329,3.16222794 Z" id="Path-6"></path>
                                                    <path d="M9.23885865,5.54486591 L6.54445054,5.42091277 C6.54445054,5.42091277 5.03887372,6.20358049 4.97839659,7.78504214 C4.91791946,9.36650379 5.16286565,21.0384615 5.16286565,21.0384615 C5.16286565,21.0384615 3.74551917,26.4194217 2.77167165,21.1544882" id="Path-7"></path>
                                                    <path d="M9.07082059,5.5849081 C9.07082059,5.5849081 7.4687289,6.43563389 7.34584157,7.9739101 C7.22295425,9.51218631 7.29779125,20.6567624 7.29779125,20.6567624 C7.29779125,20.6567624 7.715332,23.5183443 4.21111024,23.5183443" id="Path-8"></path>
                                                    <path d="M0.93518559,12.47342 C0.93518559,12.47342 2.25652125,21.7123347 3.88075353,21.4191965" id="Path-9"></path>
                                                </g>
                                            </g>
                                        </g>
                                        <use id="Rectangle-6" stroke="#9E9E9E" mask="url(#mask-11)" stroke-width="2" fill="#FFFFFF" stroke-dasharray="1,1,1,1" xlink:href="#path-10"></use>
                                        <use id="Rectangle-6" stroke="#9E9E9E" mask="url(#mask-13)" stroke-width="2" fill="#FFFFFF" stroke-dasharray="1,1,1,1" xlink:href="#path-12"></use>
                                        <path d="M53,3 L12,3 L12,2 L53,2 L53,1 L56,2.5 L53,4 L53,3 Z M9,2.5 L12,1 L12,4 L9,2.5 Z" id="Combined-Shape" fill="#333333"></path>
                                    </g>
                                </g>
                                <g id="Group-22" transform="translate(105.000000, 0.000000)">
                                    <path d="M6.27,4.52 C6.27,4.720001 6.23800032,4.92399896 6.174,5.132 C6.10999968,5.34000104 6.01400064,5.5339991 5.886,5.714 C5.75799936,5.8940009 5.594001,6.05199932 5.394,6.188 C5.193999,6.32400068 4.95800136,6.42799964 4.686,6.5 L4.686,6.548 C4.9260012,6.5880002 5.1559989,6.65599952 5.376,6.752 C5.5960011,6.84800048 5.78999916,6.97999916 5.958,7.148 C6.12600084,7.31600084 6.26199948,7.5199988 6.366,7.76 C6.47000052,8.0000012 6.522,8.28399836 6.522,8.612 C6.522,9.04400216 6.4320009,9.41799842 6.252,9.734 C6.0719991,10.0500016 5.83600146,10.307999 5.544,10.508 C5.25199854,10.708001 4.91800188,10.8559995 4.542,10.952 C4.16599812,11.0480005 3.78200196,11.096 3.39,11.096 L2.91,11.096 C2.72599908,11.096 2.534001,11.0900001 2.334,11.078 C2.133999,11.0659999 1.934001,11.0500001 1.734,11.03 C1.533999,11.0099999 1.35800076,10.9800002 1.206,10.94 L1.206,2.672 C1.50200148,2.62399976 1.84599804,2.58400016 2.238,2.552 C2.63000196,2.51999984 3.05799768,2.504 3.522,2.504 C3.83400156,2.504 4.15199838,2.52999974 4.476,2.582 C4.80000162,2.63400026 5.09399868,2.73399926 5.358,2.882 C5.62200132,3.03000074 5.83999914,3.23599868 6.012,3.5 C6.18400086,3.76400132 6.27,4.10399792 6.27,4.52 Z M3.486,10.232 C3.74200128,10.232 3.9899988,10.2020003 4.23,10.142 C4.4700012,10.0819997 4.68199908,9.98600066 4.866,9.854 C5.05000092,9.72199934 5.19599946,9.56000096 5.304,9.368 C5.41200054,9.17599904 5.466,8.94800132 5.466,8.684 C5.466,8.35599836 5.40000066,8.092001 5.268,7.892 C5.13599934,7.691999 4.96400106,7.53600056 4.752,7.424 C4.53999894,7.31199944 4.30200132,7.2360002 4.038,7.196 C3.77399868,7.1559998 3.51000132,7.136 3.246,7.136 L2.202,7.136 L2.202,10.148 C2.25800028,10.1640001 2.33799948,10.176 2.442,10.184 C2.54600052,10.192 2.6579994,10.2 2.778,10.208 C2.8980006,10.216 3.02199936,10.222 3.15,10.226 C3.27800064,10.23 3.38999952,10.232 3.486,10.232 Z M2.826,6.296 C2.96200068,6.296 3.12599904,6.29200004 3.318,6.284 C3.51000096,6.27599996 3.66999936,6.26400008 3.798,6.248 C3.99000096,6.18399968 4.16999916,6.10600046 4.338,6.014 C4.50600084,5.92199954 4.65599934,5.81400062 4.788,5.69 C4.92000066,5.56599938 5.02399962,5.42200082 5.1,5.258 C5.17600038,5.09399918 5.214,4.91600096 5.214,4.724 C5.214,4.45999868 5.1640005,4.24200086 5.064,4.07 C4.9639995,3.89799914 4.83000084,3.76000052 4.662,3.656 C4.49399916,3.55199948 4.30200108,3.47800022 4.086,3.434 C3.86999892,3.38999978 3.65000112,3.368 3.426,3.368 C3.16199868,3.368 2.9200011,3.37399994 2.7,3.386 C2.4799989,3.39800006 2.31400056,3.41599988 2.202,3.44 L2.202,6.296 L2.826,6.296 Z M10.95,5.924 C10.7099988,5.8439996 10.4820011,5.804 10.266,5.804 C9.92199828,5.804 9.650001,5.89799906 9.45,6.086 C9.249999,6.27400094 9.12600024,6.51199856 9.078,6.8 L9.078,11 L8.118,11 L8.118,5 L8.79,5 L8.97,5.732 L9.018,5.732 C9.17000076,5.45999864 9.35199894,5.25000074 9.564,5.102 C9.77600106,4.95399926 10.0459984,4.88 10.374,4.88 C10.6060012,4.88 10.8659986,4.9199996 11.154,5 L10.95,5.924 Z M12.402,5 L13.362,5 L13.362,11 L12.402,11 L12.402,5 Z M12.198,3.176 C12.198,2.99199908 12.2599994,2.83400066 12.384,2.702 C12.5080006,2.56999934 12.665999,2.504 12.858,2.504 C13.050001,2.504 13.2139993,2.56999934 13.35,2.702 C13.4860007,2.83400066 13.554,2.99199908 13.554,3.176 C13.554,3.36000092 13.4860007,3.5119994 13.35,3.632 C13.2139993,3.7520006 13.050001,3.812 12.858,3.812 C12.665999,3.812 12.5080006,3.7520006 12.384,3.632 C12.2599994,3.5119994 12.198,3.36000092 12.198,3.176 Z M20.022,8.936 C20.022,9.34400204 20.026,9.71399834 20.034,10.046 C20.042,10.3780017 20.0779997,10.7039984 20.142,11.024 L19.494,11.024 L19.254,10.172 L19.206,10.172 C19.0459992,10.4520014 18.8140015,10.6839991 18.51,10.868 C18.2059985,11.0520009 17.850002,11.144 17.442,11.144 C16.641996,11.144 16.0480019,10.8920025 15.66,10.388 C15.2719981,9.88399748 15.078,9.09600536 15.078,8.024 C15.078,6.99999488 15.3199976,6.22200266 15.804,5.69 C16.2880024,5.15799734 16.9539958,4.892 17.802,4.892 C18.0980015,4.892 18.3319991,4.90799984 18.504,4.94 C18.6760009,4.97200016 18.861999,5.02399964 19.062,5.096 L19.062,2.6 L20.022,2.6 L20.022,8.936 Z M17.598,10.304 C18.006002,10.304 18.3299988,10.1980011 18.57,9.986 C18.8100012,9.77399894 18.9739996,9.45200216 19.062,9.02 L19.062,6.044 C18.9179993,5.93199944 18.7540009,5.85200024 18.57,5.804 C18.3859991,5.75599976 18.1420015,5.732 17.838,5.732 C17.2859972,5.732 16.8540016,5.91399818 16.542,6.278 C16.2299984,6.64200182 16.074,7.223996 16.074,8.024 C16.074,8.35200164 16.0999997,8.6559986 16.152,8.936 C16.2040003,9.2160014 16.2899994,9.455999 16.41,9.656 C16.5300006,9.856001 16.687999,10.0139994 16.884,10.13 C17.080001,10.2460006 17.3179986,10.304 17.598,10.304 Z M26.466,11.276 C26.466,12.0520039 26.2600021,12.6239982 25.848,12.992 C25.4359979,13.3600018 24.826004,13.544 24.018,13.544 C23.5379976,13.544 23.1520015,13.5140003 22.86,13.454 C22.5679985,13.3939997 22.318001,13.3160005 22.11,13.22 L22.362,12.404 C22.5460009,12.4760004 22.7499989,12.5439997 22.974,12.608 C23.1980011,12.6720003 23.4899982,12.704 23.85,12.704 C24.1860017,12.704 24.4599989,12.6740003 24.672,12.614 C24.8840011,12.5539997 25.0539994,12.4540007 25.182,12.314 C25.3100006,12.1739993 25.3979998,11.9940011 25.446,11.774 C25.4940002,11.5539989 25.518,11.2920015 25.518,10.988 L25.518,10.412 L25.47,10.412 C25.3099992,10.6440012 25.1060012,10.8219994 24.858,10.946 C24.6099988,11.0700006 24.286002,11.132 23.886,11.132 C23.077996,11.132 22.4840019,10.8800025 22.104,10.376 C21.7239981,9.87199748 21.534,9.08800532 21.534,8.024 C21.534,6.99999488 21.7779976,6.22200266 22.266,5.69 C22.7540024,5.15799734 23.4739952,4.892 24.426,4.892 C24.8820023,4.892 25.2719984,4.92799964 25.596,5 C25.9200016,5.07200036 26.2099987,5.15599952 26.466,5.252 L26.466,11.276 Z M24.054,10.292 C24.462002,10.292 24.7819988,10.190001 25.014,9.986 C25.2460012,9.78199898 25.4099995,9.46400216 25.506,9.032 L25.506,5.96 C25.1859984,5.80799924 24.7780025,5.732 24.282,5.732 C23.7379973,5.732 23.3100016,5.91599816 22.998,6.284 C22.6859984,6.65200184 22.53,7.22799608 22.53,8.012 C22.53,8.34800168 22.5579997,8.6559986 22.614,8.936 C22.6700003,9.2160014 22.7579994,9.455999 22.878,9.656 C22.9980006,9.856001 23.153999,10.0119994 23.346,10.124 C23.538001,10.2360006 23.7739986,10.292 24.054,10.292 Z M32.694,10.52 C32.4539988,10.712001 32.1520018,10.8639994 31.788,10.976 C31.4239982,11.0880006 31.038002,11.144 30.63,11.144 C30.1739977,11.144 29.7780017,11.0700007 29.442,10.922 C29.1059983,10.7739993 28.8300011,10.5620014 28.614,10.286 C28.3979989,10.0099986 28.2380005,9.68000192 28.134,9.296 C28.0299995,8.91199808 27.978,8.4800024 27.978,8 C27.978,6.97599488 28.2059977,6.19600268 28.662,5.66 C29.1180023,5.12399732 29.7699958,4.856 30.618,4.856 C30.8900014,4.856 31.1619986,4.8859997 31.434,4.946 C31.7060014,5.0060003 31.9499989,5.11999916 32.166,5.288 C32.3820011,5.45600084 32.5579993,5.69399846 32.694,6.002 C32.8300007,6.31000154 32.898,6.71599748 32.898,7.22 C32.898,7.48400132 32.8740002,7.7759984 32.826,8.096 L28.974,8.096 C28.974,8.44800176 29.0099996,8.75999864 29.082,9.032 C29.1540004,9.30400136 29.2659992,9.53399906 29.418,9.722 C29.5700008,9.91000094 29.7679988,10.0539995 30.012,10.154 C30.2560012,10.2540005 30.5539982,10.304 30.906,10.304 C31.1780014,10.304 31.4499986,10.2560005 31.722,10.16 C31.9940014,10.0639995 32.1979993,9.95200064 32.334,9.824 L32.694,10.52 Z M30.63,5.696 C30.1579976,5.696 29.7800014,5.81999876 29.496,6.068 C29.2119986,6.31600124 29.0420003,6.739997 28.986,7.34 L31.962,7.34 C31.962,6.73199696 31.8460012,6.30600122 31.614,6.062 C31.3819988,5.81799878 31.0540021,5.696 30.63,5.696 Z M41.502,5 L42.882,8.504 L43.182,9.656 L43.206,9.656 L43.434,8.48 L44.502,5 L45.414,5 L43.398,11.132 L42.93,11.132 L41.358,7.172 L41.13,6.188 L41.094,6.188 L40.854,7.184 L39.342,11.132 L38.874,11.132 L36.786,5 L37.83,5 L39.018,8.492 L39.222,9.656 L39.234,9.656 L39.522,8.468 L40.806,5 L41.502,5 Z M46.638,5 L47.598,5 L47.598,11 L46.638,11 L46.638,5 Z M46.434,3.176 C46.434,2.99199908 46.4959994,2.83400066 46.62,2.702 C46.7440006,2.56999934 46.901999,2.504 47.094,2.504 C47.286001,2.504 47.4499993,2.56999934 47.586,2.702 C47.7220007,2.83400066 47.79,2.99199908 47.79,3.176 C47.79,3.36000092 47.7220007,3.5119994 47.586,3.632 C47.4499993,3.7520006 47.286001,3.812 47.094,3.812 C46.901999,3.812 46.7440006,3.7520006 46.62,3.632 C46.4959994,3.5119994 46.434,3.36000092 46.434,3.176 Z M54.258,8.936 C54.258,9.34400204 54.262,9.71399834 54.27,10.046 C54.278,10.3780017 54.3139997,10.7039984 54.378,11.024 L53.73,11.024 L53.49,10.172 L53.442,10.172 C53.2819992,10.4520014 53.0500015,10.6839991 52.746,10.868 C52.4419985,11.0520009 52.086002,11.144 51.678,11.144 C50.877996,11.144 50.2840019,10.8920025 49.896,10.388 C49.5079981,9.88399748 49.314,9.09600536 49.314,8.024 C49.314,6.99999488 49.5559976,6.22200266 50.04,5.69 C50.5240024,5.15799734 51.1899958,4.892 52.038,4.892 C52.3340015,4.892 52.5679991,4.90799984 52.74,4.94 C52.9120009,4.97200016 53.097999,5.02399964 53.298,5.096 L53.298,2.6 L54.258,2.6 L54.258,8.936 Z M51.834,10.304 C52.242002,10.304 52.5659988,10.1980011 52.806,9.986 C53.0460012,9.77399894 53.2099996,9.45200216 53.298,9.02 L53.298,6.044 C53.1539993,5.93199944 52.9900009,5.85200024 52.806,5.804 C52.6219991,5.75599976 52.3780015,5.732 52.074,5.732 C51.5219972,5.732 51.0900016,5.91399818 50.778,6.278 C50.4659984,6.64200182 50.31,7.223996 50.31,8.024 C50.31,8.35200164 50.3359997,8.6559986 50.388,8.936 C50.4400003,9.2160014 50.5259994,9.455999 50.646,9.656 C50.7660006,9.856001 50.923999,10.0139994 51.12,10.13 C51.316001,10.2460006 51.5539986,10.304 51.834,10.304 Z M55.314,5 L56.25,5 L56.25,3.812 L57.21,3.536 L57.21,5 L58.842,5 L58.842,5.84 L57.21,5.84 L57.21,9.164 C57.21,9.58000208 57.2619995,9.87399914 57.366,10.046 C57.4700005,10.2180009 57.6459988,10.304 57.894,10.304 C58.102001,10.304 58.2779993,10.2820002 58.422,10.238 C58.5660007,10.1939998 58.7259991,10.1360004 58.902,10.064 L59.118,10.796 C58.9019989,10.9000005 58.6660013,10.9839997 58.41,11.048 C58.1539987,11.1120003 57.8780015,11.144 57.582,11.144 C57.0939976,11.144 56.750001,11.0060014 56.55,10.73 C56.349999,10.4539986 56.25,9.99200324 56.25,9.344 L56.25,5.84 L55.314,5.84 L55.314,5 Z M64.026,11 L64.026,7.58 C64.026,7.26799844 64.0080002,6.99400118 63.972,6.758 C63.9359998,6.52199882 63.8700005,6.32600078 63.774,6.17 C63.6779995,6.01399922 63.5480008,5.8960004 63.384,5.816 C63.2199992,5.7359996 63.0060013,5.696 62.742,5.696 C62.3659981,5.696 62.0260015,5.81799878 61.722,6.062 C61.4179985,6.30600122 61.2220004,6.61999808 61.134,7.004 L61.134,11 L60.174,11 L60.174,2.6 L61.134,2.6 L61.134,5.672 L61.182,5.672 C61.390001,5.42399876 61.6399985,5.22600074 61.932,5.078 C62.2240015,4.92999926 62.5859978,4.856 63.018,4.856 C63.3540017,4.856 63.6459988,4.89399962 63.894,4.97 C64.1420012,5.04600038 64.3479992,5.17999904 64.512,5.372 C64.6760008,5.56400096 64.7959996,5.82199838 64.872,6.146 C64.9480004,6.47000162 64.986,6.87999752 64.986,7.376 L64.986,11 L64.026,11 Z" id="Bridge-width" fill="#333333"></path>
                                    <g id="image" transform="translate(1.000000, 18.000000)">
                                        <g id="Frame-front" opacity="0.5" transform="translate(0.000000, 7.000000)">
                                            <g id="Fill-92">
                                                <use fill="#FFFFFF" fill-rule="evenodd" xlink:href="#path-14"></use>
                                                <path stroke="#333333" stroke-width="1" d="M58.0191504,11.5427166 C58.7851951,7.77765014 58.7489742,4.91677714 57.3052271,3.88255179 C55.6461793,2.69409618 51.3659155,2.29592422 46.7828599,2.58625118 C42.5070323,2.85712701 38.5550088,3.83214559 37.8013551,5.31381165 C36.9668376,6.95445401 38.0679287,12.6347673 39.4110449,15.2469806 C40.6486084,17.6543916 42.7163682,18.9356413 46.0110518,19.3685417 C49.233859,19.7919981 53.1826465,19.1534206 55.1503978,17.9388446 C56.4559255,17.1331779 57.3509158,14.8270517 58.0191504,11.5427166 Z M24.5889551,15.2469806 L24.5889739,15.2469441 C25.9320713,12.6347673 27.0331624,6.95445401 26.1986449,5.31381165 C25.4449912,3.83214559 21.4929677,2.85712701 17.2171414,2.58625126 C12.6340845,2.29592422 8.35382074,2.69409618 6.69477289,3.88255179 C5.25102577,4.91677714 5.21480485,7.77765014 5.98084961,11.5427166 C6.6489812,14.8265454 7.54421193,17.1331663 8.84963947,17.9388676 C10.8173535,19.1534206 14.766141,19.7919981 17.9889482,19.3685417 C21.2836318,18.9356413 23.3513916,17.6543916 24.5889551,15.2469806 Z M32.5,1.97558822 C35.0596885,1.97558822 36.8675977,1.80109253 38.4361365,1.28009918 C44.8371757,-0.846081874 57.7799117,-1.26366737 65.1533822,1.11283276 L65.5199806,1.23098893 L65.2205292,6.79397323 L64.6446942,6.66626155 C64.6440656,6.66612215 64.6305541,6.66373214 64.6061922,6.66066475 C64.3854759,6.63287457 64.1293931,6.6573981 63.8984754,6.76967832 C63.6064585,6.91166713 63.3809284,7.18210002 63.2421849,7.64790835 C63.205368,7.7715151 62.2424544,11.9468107 61.7691213,13.5837344 C61.0625823,16.0271524 60.30373,17.8531988 59.4160844,18.9833753 C57.1175566,21.9101493 52.9643763,22.7134059 46.9900641,22.4550079 C41.766115,22.2288597 38.1846142,19.8831695 36.6608145,15.7510916 C36.4799989,15.2607751 34.4167426,9.07418597 33.9442589,8.18682869 C33.8240161,7.96100427 33.7108033,7.78804093 33.6059301,7.66748963 C33.307096,7.32402274 33.0187098,7.23234212 32.5010194,7.23128247 C31.9812902,7.23234212 31.692904,7.32402274 31.3940896,7.66746697 C31.2891967,7.78804093 31.1759839,7.96100427 31.0557411,8.18682869 C30.5832574,9.07418597 28.5200011,15.2607751 28.3391855,15.7510916 C26.8153858,19.8831695 23.233885,22.2288597 18.0099164,22.4550088 C12.0356237,22.7134059 7.88244336,21.9101493 5.5839269,18.9833897 C4.69627003,17.8531988 3.93741775,16.0271524 3.2308787,13.5837344 C2.75754562,11.9468107 1.79463199,7.7715151 1.75779771,7.64785008 C1.61910399,7.18200176 1.39356959,6.91158212 1.10149663,6.76961866 C0.870596845,6.65738871 0.614524495,6.63287961 0.393811318,6.66066576 C0.369441617,6.66373373 0.355923749,6.66612453 0.355290698,6.66626491 L-0.220530176,6.7939547 L-0.519980572,1.23098893 L-0.153382204,1.11283276 C7.22008828,-1.26366737 20.1628243,-0.846081874 26.5638593,1.28009779 C28.1324023,1.80109253 29.9403115,1.97558822 32.5,1.97558822 Z"></path>
                                            </g>
                                        </g>
                                        <use id="Rectangle-6" stroke="#9E9E9E" mask="url(#mask-16)" stroke-width="2" fill="#FFFFFF" stroke-dasharray="1,1,1,1" xlink:href="#path-15"></use>
                                        <use id="Rectangle-6" stroke="#9E9E9E" mask="url(#mask-18)" stroke-width="2" fill="#FFFFFF" stroke-dasharray="1,1,1,1" xlink:href="#path-17"></use>
                                        <path d="M28,3 L38,3 L40,2 L40,3 L45,3 L45,4 L40,4 L40,5 L38,4 L28,4 L26,5 L26,4 L21,4 L21,3 L26,3 L26,2 L28,3 Z" id="Combined-Shape" fill="#333333"></path>
                                        <g id="Path-2">
                                            <use fill="#CACACA" fill-rule="evenodd" xlink:href="#path-19"></use>
                                            <path stroke-opacity="0.5" stroke="#333333" stroke-width="1" d="M29.5700827,9.19193118 C29.6788634,9.00873794 29.8176812,8.86116929 29.9783587,8.74883225 C30.2446377,8.56266438 30.5098867,8.50045728 30.7177331,8.50000033 C30.7809087,8.50007323 30.7809087,8.50007323 31.0547453,8.50036488 C31.4128432,8.50072945 31.4128432,8.50072945 31.8973239,8.50116694 C32.4238429,8.50160435 32.4238429,8.50160435 32.9924515,8.50196887 C34.1660681,8.50264604 34.9595641,8.50242458 35.1930279,8.50100948 C35.5746696,8.49869623 35.8958709,8.62988641 36.1450404,8.84751475 C36.2950714,8.97855414 36.3916779,9.11326001 36.4466255,9.22243838 L36.5234746,9.3751339 L36.4907561,9.5429171 C36.477108,9.61290598 36.4509823,9.74337054 36.4132285,9.92648289 C36.3504746,10.230849 36.2777977,10.5721682 36.1960425,10.9426245 C35.96243,12.0011906 35.7027172,13.0820414 35.4235045,14.1230292 L35.1598372,15.106059 L34.5429026,14.2965778 C33.6521904,13.1278723 32.849124,13.1289019 32.0083416,13.8172463 C31.7849368,14.0001466 31.6217165,14.1832773 31.5414569,14.293799 L30.9630137,15.0903453 L30.6609934,14.1534002 C30.6171363,14.0173442 30.5413616,13.7722946 30.4442867,13.4413207 C30.2828308,12.8908416 30.1214212,12.3008504 29.9706644,11.6942207 C29.8092939,11.0448828 29.6697072,10.4142581 29.5583306,9.8158022 C29.5405842,9.72044625 29.5235954,9.62610929 29.5073843,9.53283131 L29.4757477,9.35079689 L29.5700827,9.19193118 Z"></path>
                                        </g>
                                    </g>
                                </g>
                                <g id="Group-23" transform="translate(0.000000, 2.000000)">
                                    <path d="M7.318,11 L2.35,11 L2.35,2.6 L3.346,2.6 L3.346,10.112 L7.318,10.112 L7.318,11 Z M12.838,10.52 C12.5979988,10.712001 12.2960018,10.8639994 11.932,10.976 C11.5679982,11.0880006 11.182002,11.144 10.774,11.144 C10.3179977,11.144 9.92200168,11.0700007 9.586,10.922 C9.24999832,10.7739993 8.97400108,10.5620014 8.758,10.286 C8.54199892,10.0099986 8.38200052,9.68000192 8.278,9.296 C8.17399948,8.91199808 8.122,8.4800024 8.122,8 C8.122,6.97599488 8.34999772,6.19600268 8.806,5.66 C9.26200228,5.12399732 9.91399576,4.856 10.762,4.856 C11.0340014,4.856 11.3059986,4.8859997 11.578,4.946 C11.8500014,5.0060003 12.0939989,5.11999916 12.31,5.288 C12.5260011,5.45600084 12.7019993,5.69399846 12.838,6.002 C12.9740007,6.31000154 13.042,6.71599748 13.042,7.22 C13.042,7.48400132 13.0180002,7.7759984 12.97,8.096 L9.118,8.096 C9.118,8.44800176 9.15399964,8.75999864 9.226,9.032 C9.29800036,9.30400136 9.40999924,9.53399906 9.562,9.722 C9.71400076,9.91000094 9.91199878,10.0539995 10.156,10.154 C10.4000012,10.2540005 10.6979982,10.304 11.05,10.304 C11.3220014,10.304 11.5939986,10.2560005 11.866,10.16 C12.1380014,10.0639995 12.3419993,9.95200064 12.478,9.824 L12.838,10.52 Z M10.774,5.696 C10.3019976,5.696 9.92400142,5.81999876 9.64,6.068 C9.35599858,6.31600124 9.18600028,6.739997 9.13,7.34 L12.106,7.34 C12.106,6.73199696 11.9900012,6.30600122 11.758,6.062 C11.5259988,5.81799878 11.1980021,5.696 10.774,5.696 Z M18.406,11 L18.406,7.58 C18.406,6.95599688 18.3160009,6.48600158 18.136,6.17 C17.9559991,5.85399842 17.6260024,5.696 17.146,5.696 C16.7219979,5.696 16.3720014,5.80999886 16.096,6.038 C15.8199986,6.26600114 15.6260006,6.55199828 15.514,6.896 L15.514,11 L14.554,11 L14.554,5 L15.226,5 L15.406,5.732 L15.454,5.732 C15.646001,5.47599872 15.9039984,5.26600082 16.228,5.102 C16.5520016,4.93799918 16.9379978,4.856 17.386,4.856 C17.7140016,4.856 18.0019988,4.89399962 18.25,4.97 C18.4980012,5.04600038 18.7039992,5.17999904 18.868,5.372 C19.0320008,5.56400096 19.1559996,5.82199838 19.24,6.146 C19.3240004,6.47000162 19.366,6.87999752 19.366,7.376 L19.366,11 L18.406,11 Z M23.758,9.368 C23.758,9.1279988 23.6860007,8.94000068 23.542,8.804 C23.3979993,8.66799932 23.2200011,8.55400046 23.008,8.462 C22.7959989,8.36999954 22.5640013,8.28200042 22.312,8.198 C22.0599987,8.11399958 21.8280011,8.00600066 21.616,7.874 C21.4039989,7.74199934 21.2260007,7.57200104 21.082,7.364 C20.9379993,7.15599896 20.866,6.87600176 20.866,6.524 C20.866,5.94799712 21.0299984,5.52600134 21.358,5.258 C21.6860016,4.98999866 22.1419971,4.856 22.726,4.856 C23.1580022,4.856 23.5199985,4.89399962 23.812,4.97 C24.1040015,5.04600038 24.3579989,5.13599948 24.574,5.24 L24.346,6.032 C24.1619991,5.94399956 23.9400013,5.86600034 23.68,5.798 C23.4199987,5.72999966 23.1420015,5.696 22.846,5.696 C22.4939982,5.696 22.2360008,5.7559994 22.072,5.876 C21.9079992,5.9960006 21.826,6.20399852 21.826,6.5 C21.826,6.70800104 21.8979993,6.86999942 22.042,6.986 C22.1860007,7.10200058 22.3639989,7.20599954 22.576,7.298 C22.7880011,7.39000046 23.0199987,7.47999956 23.272,7.568 C23.5240013,7.65600044 23.7559989,7.77199928 23.968,7.916 C24.1800011,8.06000072 24.3579993,8.2419989 24.502,8.462 C24.6460007,8.6820011 24.718,8.9719982 24.718,9.332 C24.718,9.58800128 24.6760004,9.82799888 24.592,10.052 C24.5079996,10.2760011 24.3780009,10.4679992 24.202,10.628 C24.0259991,10.7880008 23.8080013,10.9139995 23.548,11.006 C23.2879987,11.0980005 22.9820018,11.144 22.63,11.144 C22.1739977,11.144 21.7860016,11.1000004 21.466,11.012 C21.1459984,10.9239996 20.8780011,10.8200006 20.662,10.7 L20.95,9.884 C21.1340009,9.98800052 21.3739985,10.0839996 21.67,10.172 C21.9660015,10.2600004 22.2659985,10.304 22.57,10.304 C22.9140017,10.304 23.1979989,10.2360007 23.422,10.1 C23.6460011,9.96399932 23.758,9.72000176 23.758,9.368 Z M30.55,10.52 C30.3099988,10.712001 30.0080018,10.8639994 29.644,10.976 C29.2799982,11.0880006 28.894002,11.144 28.486,11.144 C28.0299977,11.144 27.6340017,11.0700007 27.298,10.922 C26.9619983,10.7739993 26.6860011,10.5620014 26.47,10.286 C26.2539989,10.0099986 26.0940005,9.68000192 25.99,9.296 C25.8859995,8.91199808 25.834,8.4800024 25.834,8 C25.834,6.97599488 26.0619977,6.19600268 26.518,5.66 C26.9740023,5.12399732 27.6259958,4.856 28.474,4.856 C28.7460014,4.856 29.0179986,4.8859997 29.29,4.946 C29.5620014,5.0060003 29.8059989,5.11999916 30.022,5.288 C30.2380011,5.45600084 30.4139993,5.69399846 30.55,6.002 C30.6860007,6.31000154 30.754,6.71599748 30.754,7.22 C30.754,7.48400132 30.7300002,7.7759984 30.682,8.096 L26.83,8.096 C26.83,8.44800176 26.8659996,8.75999864 26.938,9.032 C27.0100004,9.30400136 27.1219992,9.53399906 27.274,9.722 C27.4260008,9.91000094 27.6239988,10.0539995 27.868,10.154 C28.1120012,10.2540005 28.4099982,10.304 28.762,10.304 C29.0340014,10.304 29.3059986,10.2560005 29.578,10.16 C29.8500014,10.0639995 30.0539993,9.95200064 30.19,9.824 L30.55,10.52 Z M28.486,5.696 C28.0139976,5.696 27.6360014,5.81999876 27.352,6.068 C27.0679986,6.31600124 26.8980003,6.739997 26.842,7.34 L29.818,7.34 C29.818,6.73199696 29.7020012,6.30600122 29.47,6.062 C29.2379988,5.81799878 28.9100021,5.696 28.486,5.696 Z M39.358,5 L40.738,8.504 L41.038,9.656 L41.062,9.656 L41.29,8.48 L42.358,5 L43.27,5 L41.254,11.132 L40.786,11.132 L39.214,7.172 L38.986,6.188 L38.95,6.188 L38.71,7.184 L37.198,11.132 L36.73,11.132 L34.642,5 L35.686,5 L36.874,8.492 L37.078,9.656 L37.09,9.656 L37.378,8.468 L38.662,5 L39.358,5 Z M44.494,5 L45.454,5 L45.454,11 L44.494,11 L44.494,5 Z M44.29,3.176 C44.29,2.99199908 44.3519994,2.83400066 44.476,2.702 C44.6000006,2.56999934 44.757999,2.504 44.95,2.504 C45.142001,2.504 45.3059993,2.56999934 45.442,2.702 C45.5780007,2.83400066 45.646,2.99199908 45.646,3.176 C45.646,3.36000092 45.5780007,3.5119994 45.442,3.632 C45.3059993,3.7520006 45.142001,3.812 44.95,3.812 C44.757999,3.812 44.6000006,3.7520006 44.476,3.632 C44.3519994,3.5119994 44.29,3.36000092 44.29,3.176 Z M52.114,8.936 C52.114,9.34400204 52.118,9.71399834 52.126,10.046 C52.134,10.3780017 52.1699997,10.7039984 52.234,11.024 L51.586,11.024 L51.346,10.172 L51.298,10.172 C51.1379992,10.4520014 50.9060015,10.6839991 50.602,10.868 C50.2979985,11.0520009 49.942002,11.144 49.534,11.144 C48.733996,11.144 48.1400019,10.8920025 47.752,10.388 C47.3639981,9.88399748 47.17,9.09600536 47.17,8.024 C47.17,6.99999488 47.4119976,6.22200266 47.896,5.69 C48.3800024,5.15799734 49.0459958,4.892 49.894,4.892 C50.1900015,4.892 50.4239991,4.90799984 50.596,4.94 C50.7680009,4.97200016 50.953999,5.02399964 51.154,5.096 L51.154,2.6 L52.114,2.6 L52.114,8.936 Z M49.69,10.304 C50.098002,10.304 50.4219988,10.1980011 50.662,9.986 C50.9020012,9.77399894 51.0659996,9.45200216 51.154,9.02 L51.154,6.044 C51.0099993,5.93199944 50.8460009,5.85200024 50.662,5.804 C50.4779991,5.75599976 50.2340015,5.732 49.93,5.732 C49.3779972,5.732 48.9460016,5.91399818 48.634,6.278 C48.3219984,6.64200182 48.166,7.223996 48.166,8.024 C48.166,8.35200164 48.1919997,8.6559986 48.244,8.936 C48.2960003,9.2160014 48.3819994,9.455999 48.502,9.656 C48.6220006,9.856001 48.779999,10.0139994 48.976,10.13 C49.172001,10.2460006 49.4099986,10.304 49.69,10.304 Z M53.17,5 L54.106,5 L54.106,3.812 L55.066,3.536 L55.066,5 L56.698,5 L56.698,5.84 L55.066,5.84 L55.066,9.164 C55.066,9.58000208 55.1179995,9.87399914 55.222,10.046 C55.3260005,10.2180009 55.5019988,10.304 55.75,10.304 C55.958001,10.304 56.1339993,10.2820002 56.278,10.238 C56.4220007,10.1939998 56.5819991,10.1360004 56.758,10.064 L56.974,10.796 C56.7579989,10.9000005 56.5220013,10.9839997 56.266,11.048 C56.0099987,11.1120003 55.7340015,11.144 55.438,11.144 C54.9499976,11.144 54.606001,11.0060014 54.406,10.73 C54.205999,10.4539986 54.106,9.99200324 54.106,9.344 L54.106,5.84 L53.17,5.84 L53.17,5 Z M61.882,11 L61.882,7.58 C61.882,7.26799844 61.8640002,6.99400118 61.828,6.758 C61.7919998,6.52199882 61.7260005,6.32600078 61.63,6.17 C61.5339995,6.01399922 61.4040008,5.8960004 61.24,5.816 C61.0759992,5.7359996 60.8620013,5.696 60.598,5.696 C60.2219981,5.696 59.8820015,5.81799878 59.578,6.062 C59.2739985,6.30600122 59.0780004,6.61999808 58.99,7.004 L58.99,11 L58.03,11 L58.03,2.6 L58.99,2.6 L58.99,5.672 L59.038,5.672 C59.246001,5.42399876 59.4959985,5.22600074 59.788,5.078 C60.0800015,4.92999926 60.4419978,4.856 60.874,4.856 C61.2100017,4.856 61.5019988,4.89399962 61.75,4.97 C61.9980012,5.04600038 62.2039992,5.17999904 62.368,5.372 C62.5320008,5.56400096 62.6519996,5.82199838 62.728,6.146 C62.8040004,6.47000162 62.842,6.87999752 62.842,7.376 L62.842,11 L61.882,11 Z" id="Lense-width" fill="#333333"></path>
                                    <g id="image" transform="translate(0.000000, 18.000000)">
                                        <g id="Frame-front" opacity="0.5" transform="translate(0.000000, 5.000000)">
                                            <g id="Fill-92">
                                                <use fill="#FFFFFF" fill-rule="evenodd" xlink:href="#path-20"></use>
                                                <path stroke="#333333" stroke-width="1" d="M32.5,1.97558822 C35.0596885,1.97558822 36.8675977,1.80109253 38.4361365,1.28009918 C44.8371757,-0.846081874 57.7799117,-1.26366737 65.1533822,1.11283276 L65.5199806,1.23098893 L65.2205292,6.79397323 L64.6446942,6.66626155 C64.6440656,6.66612215 64.6305541,6.66373214 64.6061922,6.66066475 C64.3854759,6.63287457 64.1293931,6.6573981 63.8984754,6.76967832 C63.6064585,6.91166713 63.3809284,7.18210002 63.2421849,7.64790835 C63.205368,7.7715151 62.2424544,11.9468107 61.7691213,13.5837344 C61.0625823,16.0271524 60.30373,17.8531988 59.4160844,18.9833753 C57.1175566,21.9101493 52.9643763,22.7134059 46.9900641,22.4550079 C41.766115,22.2288597 38.1846142,19.8831695 36.6608145,15.7510916 C36.4799989,15.2607751 34.4167426,9.07418597 33.9442589,8.18682869 C33.8240161,7.96100427 33.7108033,7.78804093 33.6059301,7.66748963 C33.307096,7.32402274 33.0187098,7.23234212 32.5010194,7.23128247 C31.9812902,7.23234212 31.692904,7.32402274 31.3940896,7.66746697 C31.2891967,7.78804093 31.1759839,7.96100427 31.0557411,8.18682869 C30.5832574,9.07418597 28.5200011,15.2607751 28.3391855,15.7510916 C26.8153858,19.8831695 23.233885,22.2288597 18.0099164,22.4550088 C12.0356237,22.7134059 7.88244336,21.9101493 5.5839269,18.9833897 C4.69627003,17.8531988 3.93741775,16.0271524 3.2308787,13.5837344 C2.75754562,11.9468107 1.79463199,7.7715151 1.75779771,7.64785008 C1.61910399,7.18200176 1.39356959,6.91158212 1.10149663,6.76961866 C0.870596845,6.65738871 0.614524495,6.63287961 0.393811318,6.66066576 C0.369441617,6.66373373 0.355923749,6.66612453 0.355290698,6.66626491 L-0.220530176,6.7939547 L-0.519980572,1.23098893 L-0.153382204,1.11283276 C7.22008828,-1.26366737 20.1628243,-0.846081874 26.5638593,1.28009779 C28.1324023,1.80109253 29.9403115,1.97558822 32.5,1.97558822 Z"></path>
                                            </g>
                                            <g id="Path">
                                                <use fill="#959595" fill-rule="evenodd" xlink:href="#path-21"></use>
                                                <path stroke="#333333" stroke-width="1" d="M59.0432525,11.6728872 C58.3782146,14.8688747 57.5072986,17.0630999 55.9974306,17.9741629 C54.0064913,19.175743 50.2002985,19.7775826 47.0689366,19.3752847 C43.7828382,18.9531072 41.6251783,17.6458627 40.3450574,15.2110034 C38.993933,12.6416101 37.9392115,7.32142221 38.8797891,5.51336048 C39.7990088,3.74635468 43.5367879,2.84468559 47.8338601,2.57851328 C52.2250403,2.30652282 56.2556375,2.67313737 58.01085,3.90253943 C59.7898762,5.14862121 59.8256684,7.91281371 59.0432525,11.6728872 Z"></path>
                                            </g>
                                            <g id="Path">
                                                <use fill="#959595" fill-rule="evenodd" xlink:href="#path-22"></use>
                                                <path stroke="#333333" stroke-width="1" d="M24.6549426,15.2110034 L24.6549619,15.2109666 C23.3748217,17.6458627 21.2171618,18.9531072 17.9310634,19.3752847 C14.7997015,19.7775826 10.9935087,19.175743 9.00258383,17.9741717 C7.49283035,17.0630686 6.62168161,14.868376 5.95674747,11.6728872 C5.17433158,7.91281371 5.21012383,5.14862121 6.98914997,3.90253943 C8.74436254,2.67313737 12.7749597,2.30652282 17.1661412,2.57851335 C21.4632121,2.84468559 25.2009912,3.74635468 26.1202109,5.51336048 C27.0607885,7.32142221 26.006067,12.6416101 24.6549426,15.2110034 Z"></path>
                                            </g>
                                            <g id="Path-2">
                                                <use fill="#FFFFFF" fill-rule="evenodd" xlink:href="#path-23"></use>
                                                <path stroke="#333333" stroke-width="1" d="M29.5700827,2.19193118 C29.6788634,2.00873794 29.8176812,1.86116929 29.9783587,1.74883225 C30.2446377,1.56266438 30.5098867,1.50045728 30.7177331,1.50000033 C30.7809087,1.50007323 30.7809087,1.50007323 31.0547453,1.50036488 C31.4128432,1.50072945 31.4128432,1.50072945 31.8973239,1.50116694 C32.4238429,1.50160435 32.4238429,1.50160435 32.9924515,1.50196887 C34.1660681,1.50264604 34.9595641,1.50242458 35.1930279,1.50100948 C35.5746696,1.49869623 35.8958709,1.62988641 36.1450404,1.84751475 C36.2950714,1.97855414 36.3916779,2.11326001 36.4466255,2.22243838 L36.5234746,2.3751339 L36.4907561,2.5429171 C36.477108,2.61290598 36.4509823,2.74337054 36.4132285,2.92648289 C36.3504746,3.23084903 36.2777977,3.57216817 36.1960425,3.94262451 C35.96243,5.00119057 35.7027172,6.0820414 35.4235045,7.12302916 L35.1598372,8.10605899 L34.5429026,7.29657777 C33.6521904,6.12787228 32.849124,6.12890194 32.0083416,6.81724625 C31.7849368,7.00014665 31.6217165,7.18327735 31.5414569,7.29379899 L30.9630137,8.0903453 L30.6609934,7.15340017 C30.6171363,7.01734417 30.5413616,6.77229459 30.4442867,6.44132072 C30.2828308,5.89084164 30.1214212,5.30085037 29.9706644,4.69422065 C29.8092939,4.0448828 29.6697072,3.4142581 29.5583306,2.8158022 C29.5405842,2.72044625 29.5235954,2.62610929 29.5073843,2.53283131 L29.4757477,2.35079689 L29.5700827,2.19193118 Z"></path>
                                            </g>
                                        </g>
                                        <g id="arrows" transform="translate(38.000000, 0.000000)">
                                            <use id="Rectangle-6" stroke="#9E9E9E" mask="url(#mask-25)" stroke-width="2" fill="#FFFFFF" stroke-dasharray="1,1,1,1" xlink:href="#path-24"></use>
                                            <use id="Rectangle-6" stroke="#9E9E9E" mask="url(#mask-27)" stroke-width="2" fill="#FFFFFF" stroke-dasharray="1,1,1,1" xlink:href="#path-26"></use>
                                            <path d="M18,2 L4,2 L4,1 L18,1 L18,-3.83475851e-17 L21,1.5 L18,3 L18,2 Z M1,1.5 L4,-3.83475851e-17 L4,3 L1,1.5 Z" id="Combined-Shape" fill="#333333"></path>
                                        </g>
                                        <g id="arrows" transform="translate(5.000000, 0.000000)">
                                            <use id="Rectangle-6" stroke="#9E9E9E" mask="url(#mask-29)" stroke-width="2" fill="#FFFFFF" stroke-dasharray="1,1,1,1" xlink:href="#path-28"></use>
                                            <use id="Rectangle-6" stroke="#9E9E9E" mask="url(#mask-31)" stroke-width="2" fill="#FFFFFF" stroke-dasharray="1,1,1,1" xlink:href="#path-30"></use>
                                            <path d="M18,2 L4,2 L4,1 L18,1 L18,-3.83475851e-17 L21,1.5 L18,3 L18,2 Z M1,1.5 L4,-3.83475851e-17 L4,3 L1,1.5 Z" id="Combined-Shape" fill="#333333"></path>
                                        </g>
                                    </g>
                                </g>
                            </g>
                        </g>
                        <path d="M287.24,32.85 L286.06,32.85 L286.06,35 L285.28,35 L285.28,32.85 L282.2,32.85 L282.2,32.52 L285.52,27.89 L286.06,27.89 L286.06,32.15 L287.24,32.15 L287.24,32.85 Z M285.28,29.97 L285.38,29.15 L285.35,29.15 L285,29.83 L283.59,31.74 L283.11,32.23 L283.81,32.15 L285.28,32.15 L285.28,29.97 Z M288.13,33.33 C288.13,32.9099979 288.239999,32.5450016 288.46,32.235 C288.680001,31.9249985 289.023331,31.6433346 289.49,31.39 C289.323332,31.2899995 289.168334,31.1850005 289.025,31.075 C288.881666,30.9649995 288.755001,30.8400007 288.645,30.7 C288.534999,30.5599993 288.448334,30.4033342 288.385,30.23 C288.321666,30.0566658 288.29,29.8566678 288.29,29.63 C288.29,29.3699987 288.335,29.1333344 288.425,28.92 C288.515,28.7066656 288.644999,28.5233341 288.815,28.37 C288.985001,28.2166659 289.188332,28.0966671 289.425,28.01 C289.661668,27.9233329 289.929999,27.88 290.23,27.88 C290.510001,27.88 290.763332,27.9199996 290.99,28 C291.216668,28.0800004 291.408333,28.1899993 291.565,28.33 C291.721667,28.4700007 291.843333,28.6366657 291.93,28.83 C292.016667,29.0233343 292.06,29.2366655 292.06,29.47 C292.06,29.8500019 291.973334,30.1849985 291.8,30.475 C291.626666,30.7650014 291.340002,31.0499986 290.94,31.33 C291.113334,31.4300005 291.278333,31.5399994 291.435,31.66 C291.591667,31.7800006 291.728333,31.9133326 291.845,32.06 C291.961667,32.2066674 292.053333,32.3716657 292.12,32.555 C292.186667,32.7383343 292.22,32.9466655 292.22,33.18 C292.22,33.4666681 292.173334,33.7283321 292.08,33.965 C291.986666,34.2016678 291.850001,34.4049992 291.67,34.575 C291.489999,34.7450008 291.270001,34.8783328 291.01,34.975 C290.749999,35.0716671 290.453335,35.12 290.12,35.12 C289.799998,35.12 289.516668,35.0733338 289.27,34.98 C289.023332,34.8866662 288.815001,34.7600008 288.645,34.6 C288.474999,34.4399992 288.346667,34.2516677 288.26,34.035 C288.173333,33.8183322 288.13,33.5833346 288.13,33.33 Z M291.44,33.23 C291.44,33.029999 291.4,32.8550008 291.32,32.705 C291.24,32.5549993 291.135001,32.4183339 291.005,32.295 C290.874999,32.171666 290.726668,32.0600005 290.56,31.96 C290.393332,31.8599995 290.220001,31.7633338 290.04,31.67 C289.633331,31.8966678 289.343334,32.1499986 289.17,32.43 C288.996666,32.7100014 288.91,32.9766654 288.91,33.23 C288.91,33.3900008 288.936666,33.5433326 288.99,33.69 C289.043334,33.8366674 289.123333,33.9633328 289.23,34.07 C289.336667,34.1766672 289.468333,34.2616663 289.625,34.325 C289.781667,34.3883336 289.963332,34.42 290.17,34.42 C290.336667,34.42 290.496666,34.3950002 290.65,34.345 C290.803334,34.2949998 290.938333,34.2216672 291.055,34.125 C291.171667,34.0283328 291.265,33.9050007 291.335,33.755 C291.405,33.6049992 291.44,33.430001 291.44,33.23 Z M289.07,29.61 C289.07,29.7966676 289.106666,29.961666 289.18,30.105 C289.253334,30.2483341 289.351666,30.3766661 289.475,30.49 C289.598334,30.6033339 289.739999,30.7083328 289.9,30.805 C290.060001,30.9016672 290.226666,30.9933329 290.4,31.08 C290.700001,30.8466655 290.921666,30.6166678 291.065,30.39 C291.208334,30.1633322 291.28,29.9133347 291.28,29.64 C291.28,29.2999983 291.175001,29.0383342 290.965,28.855 C290.754999,28.6716658 290.503335,28.58 290.21,28.58 C290.029999,28.58 289.870001,28.6099997 289.73,28.67 C289.589999,28.7300003 289.470001,28.8066662 289.37,28.9 C289.269999,28.9933338 289.195,29.101666 289.145,29.225 C289.095,29.348334 289.07,29.476666 289.07,29.61 Z M307.33,34.26 L308.73,34.26 L308.73,29.42 L308.83,28.83 L308.43,29.3 L307.33,30.09 L306.95,29.58 L309.15,27.88 L309.51,27.88 L309.51,34.26 L310.88,34.26 L310.88,35 L307.33,35 L307.33,34.26 Z M316.62,32.89 C316.62,33.1966682 316.573334,33.4849987 316.48,33.755 C316.386666,34.0250013 316.250001,34.2616656 316.07,34.465 C315.889999,34.6683344 315.666668,34.8283328 315.4,34.945 C315.133332,35.0616672 314.830002,35.12 314.49,35.12 C314.156665,35.12 313.856668,35.0666672 313.59,34.96 C313.323332,34.8533328 313.093334,34.6950011 312.9,34.485 C312.706666,34.2749989 312.558334,34.0166682 312.455,33.71 C312.351666,33.4033318 312.3,33.050002 312.3,32.65 C312.3,31.9899967 312.384999,31.3816695 312.555,30.825 C312.725001,30.2683306 312.959998,29.7833354 313.26,29.37 C313.560001,28.9566646 313.914998,28.621668 314.325,28.365 C314.735002,28.1083321 315.179998,27.946667 315.66,27.88 L315.83,28.52 C315.456665,28.586667 315.116668,28.7133324 314.81,28.9 C314.503332,29.0866676 314.235001,29.3166653 314.005,29.59 C313.774999,29.8633347 313.586667,30.1699983 313.44,30.51 C313.293333,30.8500017 313.193334,31.1999982 313.14,31.56 C313.246667,31.3799991 313.426665,31.2150008 313.68,31.065 C313.933335,30.9149993 314.243332,30.84 314.61,30.84 C315.23667,30.84 315.728332,31.0199982 316.085,31.38 C316.441668,31.7400018 316.62,32.2433301 316.62,32.89 Z M315.79,32.97 C315.79,32.4966643 315.680001,32.1400012 315.46,31.9 C315.239999,31.6599988 314.900002,31.54 314.44,31.54 C314.113332,31.54 313.831668,31.6199992 313.595,31.78 C313.358332,31.9400008 313.193334,32.119999 313.1,32.32 C313.086667,32.4133338 313.08,32.4899997 313.08,32.55 L313.08,32.75 C313.08,32.9566677 313.108333,33.159999 313.165,33.36 C313.221667,33.560001 313.309999,33.7383326 313.43,33.895 C313.550001,34.0516674 313.698332,34.1783329 313.875,34.275 C314.051668,34.3716672 314.259999,34.42 314.5,34.42 C314.693334,34.42 314.868333,34.3833337 315.025,34.31 C315.181667,34.2366663 315.316666,34.1366673 315.43,34.01 C315.543334,33.8833327 315.631666,33.7300009 315.695,33.55 C315.758334,33.3699991 315.79,33.1766677 315.79,32.97 Z M334.25,34.26 L335.65,34.26 L335.65,29.42 L335.75,28.83 L335.35,29.3 L334.25,30.09 L333.87,29.58 L336.07,27.88 L336.43,27.88 L336.43,34.26 L337.8,34.26 L337.8,35 L334.25,35 L334.25,34.26 Z M340.75,34.42 C341.210002,34.42 341.589999,34.286668 341.89,34.02 C342.190001,33.753332 342.34,33.3666692 342.34,32.86 C342.34,32.3733309 342.191668,32.0100012 341.895,31.77 C341.598332,31.5299988 341.190003,31.41 340.67,31.41 L339.83,31.46 L339.83,28 L342.95,28 L342.95,28.74 L340.58,28.74 L340.58,30.73 L341.01,30.71 C341.670003,30.7166667 342.189998,30.8999982 342.57,31.26 C342.950002,31.6200018 343.14,32.1366633 343.14,32.81 C343.14,33.1833352 343.076667,33.5149986 342.95,33.805 C342.823333,34.0950014 342.651668,34.3366657 342.435,34.53 C342.218332,34.7233343 341.963335,34.8699995 341.67,34.97 C341.376665,35.0700005 341.063335,35.12 340.73,35.12 C340.429999,35.12 340.176668,35.1033335 339.97,35.07 C339.763332,35.0366665 339.570001,34.986667 339.39,34.92 L339.6,34.24 C339.753334,34.3000003 339.918332,34.3449999 340.095,34.375 C340.271668,34.4050001 340.489999,34.42 340.75,34.42 Z M348.53,29.59 C348.53,29.9433351 348.465001,30.3049981 348.335,30.675 C348.204999,31.0450018 348.035001,31.4166648 347.825,31.79 C347.614999,32.1633352 347.380001,32.5283315 347.12,32.885 C346.859999,33.2416684 346.600001,33.5799984 346.34,33.9 L345.85,34.33 L345.85,34.37 L346.49,34.26 L348.67,34.26 L348.67,35 L344.69,35 L344.69,34.71 C344.836667,34.5566659 345.013332,34.3666678 345.22,34.14 C345.426668,33.9133322 345.641666,33.6616681 345.865,33.385 C346.088334,33.108332 346.308332,32.8150015 346.525,32.505 C346.741668,32.1949984 346.938332,31.8800016 347.115,31.56 C347.291668,31.2399984 347.433333,30.9233349 347.54,30.61 C347.646667,30.2966651 347.7,30.0000014 347.7,29.72 C347.7,29.3933317 347.606668,29.1216678 347.42,28.905 C347.233332,28.6883323 346.950002,28.58 346.57,28.58 C346.316665,28.58 346.070001,28.6316662 345.83,28.735 C345.589999,28.8383338 345.383334,28.956666 345.21,29.09 L344.88,28.52 C345.113335,28.319999 345.389998,28.1633339 345.71,28.05 C346.030002,27.9366661 346.373332,27.88 346.74,27.88 C347.026668,27.88 347.279999,27.9216662 347.5,28.005 C347.720001,28.0883337 347.906666,28.2066659 348.06,28.36 C348.213334,28.5133341 348.33,28.6949989 348.41,28.905 C348.49,29.1150011 348.53,29.3433321 348.53,29.59 Z" id="48-16-152" fill="#333333" mask="url(#mask-2)"></path>
                    </g>
                </g>
            </g>
        </g>
    </g>
</svg>