<?xml version="1.0" encoding="UTF-8"?>
<svg width="77px" height="49px" viewBox="0 0 77 49" version="1.1" xmlns="http://www.w3.org/2000/svg" xmlns:xlink="http://www.w3.org/1999/xlink">
    <!-- Generator: Sketch 45.2 (43514) - http://www.bohemiancoding.com/sketch -->
    <title>Stacked Group</title>
    <desc>Created with Sketch.</desc>
    <defs>
        <path d="M8.94697964,8.00272523 L37.6282486,7.94771539 L54.7904171,8.82055848 C54.7904171,8.82055848 59.6716517,9.75221063 63.7405102,12.7710835 C67.8093687,15.7899563 72.0794849,18.3170128 72.0794849,18.3170128 C72.0794849,18.3170128 75.7116728,20.2421122 74.6168748,21.1748549 C73.5220768,22.1075975 70.7316457,21.5845201 70.7316457,21.5845201 C70.7316457,21.5845201 61.166182,13.7160865 57,12 C52.833818,10.2839135 48,11 48,11 L39,11 L8.94697964,12 L8.94697964,8.00272523 Z" id="path-1"></path>
        <rect id="path-2" x="8" y="0" width="1" height="11"></rect>
        <mask id="mask-3" maskContentUnits="userSpaceOnUse" maskUnits="objectBoundingBox" x="0" y="0" width="1" height="11" fill="white">
            <use xlink:href="#path-2"></use>
        </mask>
        <rect id="path-4" x="56" y="0" width="1" height="8"></rect>
        <mask id="mask-5" maskContentUnits="userSpaceOnUse" maskUnits="objectBoundingBox" x="0" y="0" width="1" height="8" fill="white">
            <use xlink:href="#path-4"></use>
        </mask>
        <rect id="path-6" x="8" y="0" width="1" height="11"></rect>
        <mask id="mask-7" maskContentUnits="userSpaceOnUse" maskUnits="objectBoundingBox" x="0" y="0" width="1" height="11" fill="white">
            <use xlink:href="#path-6"></use>
        </mask>
        <rect id="path-8" x="8" y="0" width="1" height="11"></rect>
        <mask id="mask-9" maskContentUnits="userSpaceOnUse" maskUnits="objectBoundingBox" x="0" y="0" width="1" height="11" fill="white">
            <use xlink:href="#path-8"></use>
        </mask>
    </defs>
    <g id="Page-1" stroke="none" stroke-width="1" fill="none" fill-rule="evenodd">
        <g id="ONG_size_info_implementing_fiter_filled_my-size_active" transform="translate(-882.000000, -774.000000)">
            <g id="Filter" transform="translate(763.000000, 533.000000)">
                <g id="inputs" transform="translate(14.000000, 17.000000)">
                    <g id="3" transform="translate(0.000000, 224.000000)">
                        <g id="Stacked-Group">
                            <g id="Group-17">
                                <g id="Stacked-Group" transform="translate(106.000000, 0.000000)">
                                    <path d="M7.22867337,0.89254386 L4.61239053,0.89254386 L4.61239053,8.44298246 L3.61628284,8.44298246 L3.61628284,0.89254386 L1,0.89254386 L1,0 L7.22867337,0 L7.22867337,0.89254386 Z M12.7492702,7.96052632 C12.509243,8.15350974 12.2072134,8.30628599 11.8431722,8.41885965 C11.4791311,8.53143331 11.0930932,8.5877193 10.685047,8.5877193 C10.2289954,8.5877193 9.83295659,8.51334139 9.49691859,8.36458333 C9.16088058,8.21582528 8.8848535,8.00274262 8.66882906,7.72532895 C8.45280463,7.44791528 8.29278893,7.11623 8.18877717,6.73026316 C8.0847654,6.34429632 8.0327603,5.91009013 8.0327603,5.42763158 C8.0327603,4.39838667 8.26078267,3.61440328 8.71683425,3.07565789 C9.17288584,2.53691251 9.82494981,2.26754386 10.6730457,2.26754386 C10.9450765,2.26754386 11.2171032,2.29769707 11.489134,2.35800439 C11.7611647,2.41831171 12.0051887,2.53289389 12.2212131,2.70175439 C12.4372375,2.87061488 12.6132548,3.10983032 12.7492702,3.41940789 C12.8852856,3.72898547 12.9532922,4.13705887 12.9532922,4.64364035 C12.9532922,4.90899255 12.9292899,5.20248377 12.8812845,5.52412281 L9.02886799,5.52412281 C9.02886799,5.87792575 9.06487152,6.1915191 9.13687966,6.46491228 C9.20888781,6.73830546 9.3208988,6.96948005 9.47291599,7.15844298 C9.62493319,7.34740592 9.82295261,7.49214131 10.0669802,7.59265351 C10.3110078,7.69316571 10.6090371,7.74342105 10.9610769,7.74342105 C11.2331076,7.74342105 11.5051343,7.69517592 11.7771651,7.59868421 C12.0491959,7.5021925 12.2532159,7.38962053 12.3892313,7.26096491 L12.7492702,7.96052632 Z M10.685047,3.11184211 C10.2129936,3.11184211 9.83495655,3.23647536 9.55092442,3.48574561 C9.2668923,3.73501587 9.09687562,4.1611812 9.04086928,4.76425439 L12.017191,4.76425439 C12.017191,4.15314022 11.9011797,3.72496468 11.6691534,3.47971491 C11.4371272,3.23446515 11.109095,3.11184211 10.685047,3.11184211 Z M17.9818359,8.44298246 L17.9818359,5.02960526 C17.9818359,4.70796623 17.9678345,4.42854651 17.9398313,4.19133772 C17.9118282,3.95412893 17.8578229,3.75511776 17.7778138,3.59429825 C17.6978048,3.43347873 17.5837936,3.3128659 17.4357768,3.23245614 C17.2877601,3.15204638 17.0937411,3.11184211 16.8537139,3.11184211 C16.4856723,3.11184211 16.1796423,3.22441408 15.9356147,3.4495614 C15.6915871,3.67470873 15.5215704,3.95613866 15.4255595,4.29385965 L15.4255595,8.44298246 L14.4654557,8.44298246 L14.4654557,2.4122807 L15.1375284,2.4122807 L15.3175478,3.14802632 L15.365553,3.14802632 C15.5815775,2.89071509 15.831602,2.67964264 16.1156341,2.51480263 C16.3996662,2.34996263 16.7697026,2.26754386 17.2257541,2.26754386 C17.6097976,2.26754386 17.9238284,2.34192177 18.167856,2.49067982 C18.4118836,2.63943788 18.6019022,2.89875546 18.7379176,3.26864035 C18.9219384,2.95504229 19.1759633,2.70979621 19.5,2.53289474 C19.8240367,2.35599327 20.1900726,2.26754386 20.5981187,2.26754386 C20.9341567,2.26754386 21.2181846,2.30573792 21.4502108,2.38212719 C21.6822371,2.45851646 21.8742559,2.59320079 22.0262731,2.78618421 C22.1782903,2.97916763 22.2883011,3.24049543 22.3563088,3.57017544 C22.4243165,3.89985545 22.4583198,4.31797992 22.4583198,4.8245614 L22.4583198,8.44298246 L21.498216,8.44298246 L21.498216,4.8125 C21.498216,4.52302487 21.4842146,4.27174814 21.4562115,4.05866228 C21.4282083,3.84557642 21.3722028,3.6686776 21.2881933,3.52796053 C21.2041838,3.38724345 21.0881724,3.28271233 20.9401557,3.21436404 C20.792139,3.14601574 20.5981199,3.11184211 20.3580928,3.11184211 C19.9580475,3.11184211 19.6460169,3.22441408 19.4219916,3.4495614 C19.1979662,3.67470873 19.0379505,3.99634294 18.9419397,4.41447368 L18.9419397,8.44298246 L17.9818359,8.44298246 Z M24.2105092,2.4122807 L24.8705806,2.4122807 L25.0506001,3.13596491 L25.0986053,3.13596491 C25.2826261,2.85453076 25.5206494,2.63943788 25.8126825,2.49067982 C26.1047155,2.34192177 26.4387483,2.26754386 26.8147908,2.26754386 C27.6148813,2.26754386 28.2109398,2.50474909 28.6029841,2.97916667 C28.9950284,3.45358424 29.1910477,4.22952678 29.1910477,5.30701754 C29.1910477,5.81359902 29.1250412,6.26991756 28.9930263,6.67598684 C28.8610113,7.08205612 28.6749931,7.42580269 28.4349659,7.70723684 C28.1949388,7.988671 27.9049103,8.20577409 27.5648719,8.35855263 C27.2248334,8.51133117 26.8467963,8.5877193 26.4307493,8.5877193 C26.1347158,8.5877193 25.9006928,8.56962737 25.7286734,8.53344298 C25.5566539,8.49725859 25.3706357,8.43494196 25.170613,8.34649123 L25.170613,10.8552632 L24.2105092,10.8552632 L24.2105092,2.4122807 Z M26.6347713,3.11184211 C26.2267252,3.11184211 25.9046936,3.21838344 25.6686669,3.4314693 C25.4326402,3.64455516 25.2666239,3.96819958 25.170613,4.40241228 L25.170613,7.39364035 C25.3146293,7.50621401 25.4786454,7.59265321 25.6626662,7.65296053 C25.846687,7.71326785 26.090711,7.74342105 26.3947454,7.74342105 C26.9468078,7.74342105 27.3848508,7.53636903 27.7088874,7.12225877 C28.0329241,6.70814851 28.19494,6.09905373 28.19494,5.29495614 C28.19494,4.96527613 28.1669372,4.66575427 28.1109309,4.39638158 C28.0549246,4.12700889 27.9649157,3.89784451 27.8409017,3.70888158 C27.7168877,3.51991865 27.556872,3.37317304 27.3608498,3.26864035 C27.1648277,3.16410766 26.9228039,3.11184211 26.6347713,3.11184211 Z M31.7713266,6.95942982 C31.7713266,7.24086398 31.8193313,7.44188536 31.9153422,7.5625 C32.0113531,7.68311464 32.1473664,7.74342105 32.3233863,7.74342105 C32.4273981,7.74342105 32.5394091,7.7353802 32.6594226,7.71929825 C32.7794362,7.70321629 32.9154496,7.66703245 33.0674668,7.61074561 L33.1754784,8.37061404 C33.047464,8.43494184 32.8694465,8.4872074 32.6414207,8.52741228 C32.4133949,8.56761716 32.2153755,8.5877193 32.0473565,8.5877193 C31.6873157,8.5877193 31.3912867,8.48519839 31.1592605,8.28015351 C30.9272342,8.07510862 30.8112228,7.72734163 30.8112228,7.23684211 L30.8112228,0 L31.7713266,0 L31.7713266,6.95942982 Z M38.5880636,7.96052632 C38.3480364,8.15350974 38.0460068,8.30628599 37.6819656,8.41885965 C37.3179244,8.53143331 36.9318866,8.5877193 36.5238404,8.5877193 C36.0677888,8.5877193 35.67175,8.51334139 35.335712,8.36458333 C34.999674,8.21582528 34.7236469,8.00274262 34.5076224,7.72532895 C34.291598,7.44791528 34.1315823,7.11623 34.0275705,6.73026316 C33.9235588,6.34429632 33.8715537,5.91009013 33.8715537,5.42763158 C33.8715537,4.39838667 34.0995761,3.61440328 34.5556276,3.07565789 C35.0116792,2.53691251 35.6637432,2.26754386 36.5118391,2.26754386 C36.7838699,2.26754386 37.0558966,2.29769707 37.3279273,2.35800439 C37.5999581,2.41831171 37.8439821,2.53289389 38.0600065,2.70175439 C38.2760309,2.87061488 38.4520482,3.10983032 38.5880636,3.41940789 C38.724079,3.72898547 38.7920856,4.13705887 38.7920856,4.64364035 C38.7920856,4.90899255 38.7680833,5.20248377 38.7200778,5.52412281 L34.8676614,5.52412281 C34.8676614,5.87792575 34.9036649,6.1915191 34.975673,6.46491228 C35.0476812,6.73830546 35.1596922,6.96948005 35.3117094,7.15844298 C35.4637266,7.34740592 35.661746,7.49214131 35.9057736,7.59265351 C36.1498012,7.69316571 36.4478304,7.74342105 36.7998703,7.74342105 C37.071901,7.74342105 37.3439277,7.69517592 37.6159585,7.59868421 C37.8879893,7.5021925 38.0920093,7.38962053 38.2280247,7.26096491 L38.5880636,7.96052632 Z M36.5238404,3.11184211 C36.051787,3.11184211 35.6737499,3.23647536 35.3897178,3.48574561 C35.1056857,3.73501587 34.935669,4.1611812 34.8796627,4.76425439 L37.8559844,4.76425439 C37.8559844,4.15314022 37.739973,3.72496468 37.5079468,3.47971491 C37.2759206,3.23446515 36.9478884,3.11184211 36.5238404,3.11184211 Z M44.576711,6.95942982 C44.576711,7.24086398 44.6247157,7.44188536 44.7207266,7.5625 C44.8167374,7.68311464 44.9527508,7.74342105 45.1287707,7.74342105 C45.2327824,7.74342105 45.3447934,7.7353802 45.464807,7.71929825 C45.5848206,7.70321629 45.7208339,7.66703245 45.8728511,7.61074561 L45.9808628,8.37061404 C45.8528483,8.43494184 45.6748309,8.4872074 45.4468051,8.52741228 C45.2187793,8.56761716 45.0207598,8.5877193 44.8527408,8.5877193 C44.4927001,8.5877193 44.1966711,8.48519839 43.9646448,8.28015351 C43.7326186,8.07510862 43.6166072,7.72734163 43.6166072,7.23684211 L43.6166072,0 L44.576711,0 L44.576711,6.95942982 Z M51.3934479,7.96052632 C51.1534208,8.15350974 50.8513912,8.30628599 50.48735,8.41885965 C50.1233088,8.53143331 49.7372709,8.5877193 49.3292248,8.5877193 C48.8731732,8.5877193 48.4771343,8.51334139 48.1410963,8.36458333 C47.8050583,8.21582528 47.5290312,8.00274262 47.3130068,7.72532895 C47.0969824,7.44791528 46.9369667,7.11623 46.8329549,6.73026316 C46.7289431,6.34429632 46.676938,5.91009013 46.676938,5.42763158 C46.676938,4.39838667 46.9049604,3.61440328 47.361012,3.07565789 C47.8170636,2.53691251 48.4691276,2.26754386 49.3172235,2.26754386 C49.5892543,2.26754386 49.8612809,2.29769707 50.1333117,2.35800439 C50.4053425,2.41831171 50.6493664,2.53289389 50.8653909,2.70175439 C51.0814153,2.87061488 51.2574326,3.10983032 51.3934479,3.41940789 C51.5294633,3.72898547 51.59747,4.13705887 51.59747,4.64364035 C51.59747,4.90899255 51.5734676,5.20248377 51.5254622,5.52412281 L47.6730457,5.52412281 C47.6730457,5.87792575 47.7090493,6.1915191 47.7810574,6.46491228 C47.8530656,6.73830546 47.9650765,6.96948005 48.1170937,7.15844298 C48.2691109,7.34740592 48.4671304,7.49214131 48.711158,7.59265351 C48.9551856,7.69316571 49.2532148,7.74342105 49.6052546,7.74342105 C49.8772854,7.74342105 50.1493121,7.69517592 50.4213428,7.59868421 C50.6933736,7.5021925 50.8973936,7.38962053 51.033409,7.26096491 L51.3934479,7.96052632 Z M49.3292248,3.11184211 C48.8571714,3.11184211 48.4791343,3.23647536 48.1951022,3.48574561 C47.91107,3.73501587 47.7410534,4.1611812 47.685047,4.76425439 L50.6613688,4.76425439 C50.6613688,4.15314022 50.5453574,3.72496468 50.3133312,3.47971491 C50.0813049,3.23446515 49.7532727,3.11184211 49.3292248,3.11184211 Z M56.96205,8.44298246 L56.96205,5.00548246 C56.96205,4.37828634 56.8720411,3.90588609 56.6920208,3.58826754 C56.5120004,3.270649 56.181968,3.11184211 55.7019137,3.11184211 C55.2778658,3.11184211 54.9278314,3.22642429 54.6518002,3.45559211 C54.375769,3.68475992 54.1817499,3.97222049 54.0697373,4.31798246 L54.0697373,8.44298246 L53.1096335,8.44298246 L53.1096335,2.4122807 L53.7817061,2.4122807 L53.9617256,3.14802632 L54.0097308,3.14802632 C54.2017525,2.89071509 54.4597778,2.67964264 54.7838145,2.51480263 C55.1078511,2.34996263 55.493889,2.26754386 55.9419397,2.26754386 C56.2699768,2.26754386 56.558005,2.30573792 56.8060331,2.38212719 C57.0540611,2.45851646 57.2600814,2.59320079 57.4240999,2.78618421 C57.5881185,2.97916763 57.7121306,3.23848521 57.7961401,3.56414474 C57.8801496,3.88980426 57.9221537,4.30189809 57.9221537,4.8004386 L57.9221537,8.44298246 L56.96205,8.44298246 Z M64.2708401,8.72039474 C64.2708401,9.5003694 64.0648199,10.0752905 63.6527733,10.4451754 C63.2407267,10.8150603 62.6306668,11 61.8225754,11 C61.3425211,11 60.9564832,10.9698468 60.6644502,10.9095395 C60.3724172,10.8492322 60.1223927,10.7708338 59.9143691,10.6743421 L60.1663964,9.85416667 C60.3504172,9.92653545 60.5544372,9.99488272 60.7784625,10.0592105 C61.0024879,10.1235383 61.2945165,10.1557018 61.6545572,10.1557018 C61.9905953,10.1557018 62.2646221,10.1255485 62.4766461,10.0652412 C62.6886701,10.0049339 62.8586868,9.90442322 62.9867013,9.76370614 C63.1147157,9.62298906 63.2027244,9.44206982 63.2507298,9.22094298 C63.2987352,8.99981615 63.3227376,8.73647814 63.3227376,8.43092105 L63.3227376,7.85197368 L63.2747324,7.85197368 C63.1147143,8.08516198 62.9106943,8.26407101 62.6626662,8.38870614 C62.4146382,8.51334127 62.0906064,8.57565789 61.6905611,8.57565789 C60.8824697,8.57565789 60.2884115,8.32237095 59.9083685,7.81578947 C59.5283255,7.30920799 59.3383068,6.52120418 59.3383068,5.45175439 C59.3383068,4.42250947 59.5823308,3.6405363 60.070386,3.1058114 C60.5584412,2.57108651 61.2785118,2.30372807 62.2306195,2.30372807 C62.6866711,2.30372807 63.0767094,2.33991192 63.400746,2.4122807 C63.7247827,2.48464948 64.0148111,2.56907846 64.2708401,2.66557018 L64.2708401,8.72039474 Z M61.8585793,7.73135965 C62.2666255,7.73135965 62.5866569,7.62883874 62.8186831,7.42379386 C63.0507093,7.21874897 63.2147254,6.89912498 63.3107363,6.46491228 L63.3107363,3.37719298 C62.9907001,3.22441444 62.5826601,3.14802632 62.086604,3.14802632 C61.5425424,3.14802632 61.1145004,3.33296599 60.8024651,3.70285088 C60.4904298,4.07273577 60.3344145,4.65167735 60.3344145,5.43969298 C60.3344145,5.77741397 60.3624173,6.0869869 60.4184236,6.36842105 C60.4744299,6.64985521 60.5624386,6.89108087 60.6824522,7.09210526 C60.8024657,7.29312966 60.958481,7.44992634 61.1505028,7.5625 C61.3425245,7.67507366 61.5785476,7.73135965 61.8585793,7.73135965 Z M65.3269543,2.4122807 L66.2630555,2.4122807 L66.2630555,1.21820175 L67.2231593,0.940789474 L67.2231593,2.4122807 L68.8553357,2.4122807 L68.8553357,3.25657895 L67.2231593,3.25657895 L67.2231593,6.59758772 C67.2231593,7.01571846 67.2751644,7.3112199 67.3791761,7.48410088 C67.4831879,7.65698186 67.6592052,7.74342105 67.9072332,7.74342105 C68.1152567,7.74342105 68.291274,7.7213087 68.4352903,7.67708333 C68.5793066,7.63285797 68.7393223,7.57456177 68.9153422,7.50219298 L69.1313656,8.2379386 C68.9153411,8.34247128 68.679318,8.42690026 68.423289,8.49122807 C68.16726,8.55555588 67.891233,8.5877193 67.5951995,8.5877193 C67.1071443,8.5877193 66.7631105,8.44901454 66.5630879,8.17160088 C66.3630653,7.89418721 66.2630555,7.42982782 66.2630555,6.77850877 L66.2630555,3.25657895 L65.3269543,3.25657895 L65.3269543,2.4122807 Z M74.0398962,8.44298246 L74.0398962,5.00548246 C74.0398962,4.6918844 74.0218944,4.4164851 73.9858904,4.17927632 C73.9498863,3.94206753 73.8838798,3.74506657 73.787869,3.58826754 C73.6918581,3.43146851 73.5618453,3.3128659 73.3978268,3.23245614 C73.2338082,3.15204638 73.0197872,3.11184211 72.7557574,3.11184211 C72.3797148,3.11184211 72.0396815,3.23446515 71.7356471,3.47971491 C71.4316127,3.72496468 71.2355935,4.04056825 71.1475835,4.42653509 L71.1475835,8.44298246 L70.1874797,8.44298246 L70.1874797,0 L71.1475835,0 L71.1475835,3.0877193 L71.1955887,3.0877193 C71.4036122,2.83844905 71.6536368,2.63943788 71.9456698,2.49067982 C72.2377028,2.34192177 72.5997384,2.26754386 73.0317872,2.26754386 C73.3678252,2.26754386 73.6598539,2.30573792 73.9078819,2.38212719 C74.15591,2.45851646 74.3619302,2.59320079 74.5259488,2.78618421 C74.6899673,2.97916763 74.8099791,3.23848521 74.8859877,3.56414474 C74.9619963,3.88980426 75,4.30189809 75,4.8004386 L75,8.44298246 L74.0398962,8.44298246 Z" id="Temple-length" fill="#333333"></path>
                                    <g id="temple-leight" transform="translate(0.000000, 18.000000)">
                                        <g id="Group-18">
                                            <g id="Path-3">
                                                <use fill="#D8D8D8" fill-rule="evenodd" xlink:href="#path-1"></use>
                                                <path stroke-opacity="0.5" stroke="#333333" stroke-width="1" d="M8.94602066,7.50272615 L37.6536451,7.44836079 L54.884157,8.32942424 C55.0048096,8.35245248 55.2237369,8.39998573 55.527003,8.47493022 C56.0283814,8.59883306 56.5860244,8.7559469 57.1860268,8.94923066 C58.9000994,9.50139913 60.614488,10.2337135 62.2181452,11.1713509 C62.8553946,11.5439423 63.4635434,11.942997 64.0384363,12.3695365 C64.218329,12.5030071 64.4005975,12.6369789 64.5851385,12.7714041 C66.2796883,14.0057645 68.0968701,15.2301416 69.914236,16.388428 C70.5504242,16.7938984 71.1410718,17.1620669 71.6709297,17.4859791 C71.9882843,17.6799839 72.2144305,17.8158772 72.3136355,17.8752284 C72.4057449,17.9240474 72.5623323,18.0110893 72.7622751,18.1291243 C73.0950653,18.3255849 73.4280676,18.5382435 73.7407584,18.7605696 C74.1692899,19.0652595 74.526597,19.3645884 74.7924182,19.6572529 C75.3996247,20.3257763 75.5602535,21.0279789 74.9411356,21.555453 C74.4669898,21.9594143 73.7771418,22.1578348 72.9239797,22.2143253 C72.3575355,22.2518314 71.7588388,22.223643 71.1746002,22.1541101 C70.9324647,22.1252924 70.747374,22.0961774 70.6395232,22.0759603 L70.5132368,22.0522874 L70.4140087,21.9706636 C70.3209239,21.8940931 70.1440586,21.7497799 69.8937577,21.5474134 C69.4760833,21.2097264 69.0056383,20.8333433 68.492777,20.4279596 C67.0276026,19.2698339 65.5167049,18.1117789 64.0432375,17.0315442 C63.5592266,16.6767041 63.0862828,16.3355203 62.6262108,16.0096721 C60.1382154,14.2475374 58.1321424,13.0070954 56.8095682,12.4623156 C56.3385648,12.2683052 55.8447382,12.1009467 55.3305417,11.95904 C53.1432562,11.3553982 50.8128064,11.2467143 48.7278922,11.4241056 C48.4120557,11.450978 48.1884011,11.4775467 48,11.5 L39.0166281,11.4997234 L8.44697964,12.516914 L8.44697964,7.5036833 L8.94602066,7.50272615 Z"></path>
                                            </g>
                                            <use id="Rectangle-6" stroke="#9E9E9E" mask="url(#mask-3)" stroke-width="2" fill="#FFFFFF" stroke-dasharray="1,1,1,1" xlink:href="#path-2"></use>
                                            <use id="Rectangle-6" stroke="#9E9E9E" mask="url(#mask-5)" stroke-width="2" fill="#FFFFFF" stroke-dasharray="1,1,1,1" xlink:href="#path-4"></use>
                                            <g id="Frame-side" opacity="0.5" transform="translate(0.000000, 6.000000)" stroke="#333333">
                                                <g id="Group-4">
                                                    <path d="M0.142030117,2.79008654 C0.142030117,2.79008654 0.210796925,0.922478387 0.518105647,0.69240263 C0.701891709,0.554805763 1.26154417,0.521208571 1.76615296,0.597339099 C2.10530066,0.648506447 2.4195841,0.749239866 2.57817886,0.90127839 C2.97274252,1.27953097 6.06724891,1.98627192 6.67374961,2.01639823 C7.28025032,2.04652454 9.2228563,2.07888243 9.2228563,2.07888243 C9.2228563,2.07888243 4.08608842,0.28089953 3.61171018,0.238053221 C3.13733193,0.195206911 1.90464712,0.500047877 1.90464712,0.500047877" id="Path-4"></path>
                                                    <path d="M-0.381706329,3.16222794 C-0.22691102,2.18794299 0.772144778,1.44821528 1.75994237,1.85205676 C2.84101167,2.29403053 3.62764134,3.94188594 4.04100858,6.86163165 C4.56936107,10.5935552 4.93597795,14.0540279 5.03815925,16.6959555 C5.18237614,20.4247254 4.86987227,22.3491787 3.54952205,22.2755239 C1.26923744,22.1483197 0.827822971,19.9152887 -0.386573569,3.27708173 L-0.381706329,3.16222794 Z" id="Path-6"></path>
                                                    <path d="M9.23885865,5.54486591 L6.54445054,5.42091277 C6.54445054,5.42091277 5.03887372,6.20358049 4.97839659,7.78504214 C4.91791946,9.36650379 5.16286565,21.0384615 5.16286565,21.0384615 C5.16286565,21.0384615 3.74551917,26.4194217 2.77167165,21.1544882" id="Path-7"></path>
                                                    <path d="M9.07082059,5.5849081 C9.07082059,5.5849081 7.4687289,6.43563389 7.34584157,7.9739101 C7.22295425,9.51218631 7.29779125,20.6567624 7.29779125,20.6567624 C7.29779125,20.6567624 7.715332,23.5183443 4.21111024,23.5183443" id="Path-8"></path>
                                                    <path d="M0.93518559,12.47342 C0.93518559,12.47342 2.25652125,21.7123347 3.88075353,21.4191965" id="Path-9"></path>
                                                </g>
                                            </g>
                                            <use id="Rectangle-6" stroke="#9E9E9E" mask="url(#mask-7)" stroke-width="2" fill="#FFFFFF" stroke-dasharray="1,1,1,1" xlink:href="#path-6"></use>
                                            <use id="Rectangle-6" stroke="#9E9E9E" mask="url(#mask-9)" stroke-width="2" fill="#FFFFFF" stroke-dasharray="1,1,1,1" xlink:href="#path-8"></use>
                                            <path d="M53,3 L12,3 L12,2 L53,2 L53,1 L56,2.5 L53,4 L53,3 Z M9,2.5 L12,1 L12,4 L9,2.5 Z" id="Combined-Shape" fill="#333333"></path>
                                        </g>
                                    </g>
                                </g>
                            </g>
                        </g>
                    </g>
                </g>
            </g>
        </g>
    </g>
</svg>